<svg xmlns="http://www.w3.org/2000/svg" viewBox="0 0 800 450" width="800" height="450">
  <defs>
    <linearGradient id="serverGrad" x1="0" y1="0" x2="0" y2="1">
      <stop offset="0%" stop-color="#2d2d2d"/>
      <stop offset="100%" stop-color="#1a1a1a"/>
    </linearGradient>
    <filter id="dropShadow" x="-20%" y="-20%" width="140%" height="140%">
      <feGaussianBlur in="SourceAlpha" stdDeviation="4"/>
      <feOffset dx="0" dy="4" result="offsetblur"/>
      <feComponentTransfer>
        <feFuncA type="linear" slope="0.2"/>
      </feComponentTransfer>
      <feMerge>
        <feMergeNode/>
        <feMergeNode in="SourceGraphic"/>
      </feMerge>
    </filter>
  </defs>

  <rect width="800" height="450" fill="#f5f5f5"/>

  <!-- Decorative circles -->
  <circle cx="80" cy="406.7" r="14.7" fill="#e0e0e0"/>
  <circle cx="126.7" cy="426.7" r="9.3" fill="#e0e0e0"/>
  <circle cx="186.7" cy="403.3" r="12" fill="#e0e0e0"/>
  <circle cx="613.3" cy="413.3" r="13.3" fill="#e0e0e0"/>
  <circle cx="673.3" cy="430" r="8" fill="#e0e0e0"/>
  <circle cx="720" cy="403.3" r="10.7" fill="#e0e0e0"/>

  <!-- Left server rack -->
  <g filter="url(#dropShadow)">
    <rect x="60" y="93.3" width="120" height="263.3" rx="8" fill="url(#serverGrad)" stroke="#3d3d3d" stroke-width="1.3"/>
    <rect x="73.3" y="113.3" width="93.3" height="40" rx="4" fill="#2d2d2d" stroke="#3d3d3d"/>
    <rect x="73.3" y="163.3" width="93.3" height="40" rx="4" fill="#2d2d2d" stroke="#3d3d3d"/>
    <rect x="73.3" y="213.3" width="93.3" height="40" rx="4" fill="#2d2d2d" stroke="#3d3d3d"/>
    <rect x="73.3" y="263.3" width="93.3" height="40" rx="4" fill="#2d2d2d" stroke="#3d3d3d"/>
    <!-- Status lights -->
    <circle cx="152" cy="133.3" r="3.3" fill="#556b2f"/>
    <circle cx="152" cy="183.3" r="3.3" fill="#556b2f"/>
    <circle cx="152" cy="233.3" r="3.3" fill="#556b2f"/>
    <circle cx="152" cy="283.3" r="3.3" fill="#556b2f"/>
    <!-- Drive indicators -->
    <rect x="83.3" y="123.3" width="40" height="4" rx="2" fill="#3d3d3d"/>
    <rect x="83.3" y="132" width="30" height="4" rx="2" fill="#3d3d3d"/>
    <rect x="83.3" y="173.3" width="36.7" height="4" rx="2" fill="#3d3d3d"/>
    <rect x="83.3" y="182" width="43.3" height="4" rx="2" fill="#3d3d3d"/>
    <rect x="83.3" y="223.3" width="33.3" height="4" rx="2" fill="#3d3d3d"/>
    <rect x="83.3" y="232" width="40" height="4" rx="2" fill="#3d3d3d"/>
    <rect x="83.3" y="273.3" width="36.7" height="4" rx="2" fill="#3d3d3d"/>
    <rect x="83.3" y="282" width="30" height="4" rx="2" fill="#3d3d3d"/>
  </g>

  <!-- Right server rack -->
  <g filter="url(#dropShadow)">
    <rect x="620" y="93.3" width="120" height="263.3" rx="8" fill="url(#serverGrad)" stroke="#3d3d3d" stroke-width="1.3"/>
    <rect x="633.3" y="113.3" width="93.3" height="40" rx="4" fill="#2d2d2d" stroke="#3d3d3d"/>
    <rect x="633.3" y="163.3" width="93.3" height="40" rx="4" fill="#2d2d2d" stroke="#3d3d3d"/>
    <rect x="633.3" y="213.3" width="93.3" height="40" rx="4" fill="#2d2d2d" stroke="#3d3d3d"/>
    <rect x="633.3" y="263.3" width="93.3" height="40" rx="4" fill="#2d2d2d" stroke="#3d3d3d"/>
    <!-- Status lights -->
    <circle cx="712" cy="133.3" r="3.3" fill="#556b2f"/>
    <circle cx="712" cy="183.3" r="3.3" fill="#556b2f"/>
    <circle cx="712" cy="233.3" r="3.3" fill="#556b2f"/>
    <circle cx="712" cy="283.3" r="3.3" fill="#556b2f"/>
    <!-- Drive indicators -->
    <rect x="643.3" y="123.3" width="40" height="4" rx="2" fill="#3d3d3d"/>
    <rect x="643.3" y="132" width="30" height="4" rx="2" fill="#3d3d3d"/>
    <rect x="643.3" y="173.3" width="36.7" height="4" rx="2" fill="#3d3d3d"/>
    <rect x="643.3" y="182" width="43.3" height="4" rx="2" fill="#3d3d3d"/>
    <rect x="643.3" y="223.3" width="33.3" height="4" rx="2" fill="#3d3d3d"/>
    <rect x="643.3" y="232" width="40" height="4" rx="2" fill="#3d3d3d"/>
    <rect x="643.3" y="273.3" width="36.7" height="4" rx="2" fill="#3d3d3d"/>
    <rect x="643.3" y="282" width="30" height="4" rx="2" fill="#3d3d3d"/>
  </g>

  <!-- Transparent pipeline -->
  <rect x="173.3" y="196.7" width="453.3" height="56.7" rx="28.3" fill="#556b2f" fill-opacity="0.08" stroke="#556b2f" stroke-width="2.3"/>
  <rect x="190" y="206.7" width="420" height="36.7" rx="18.3" fill="#556b2f" fill-opacity="0.05"/>

  <!-- Data packets with locks -->
  <g>
    <!-- Packet 1 -->
    <g transform="translate(213.3, 210)">
      <rect width="46.7" height="29.3" rx="4" fill="#e0e0e0" stroke="#3d3d3d" stroke-width="1"/>
      <rect x="16.7" y="9.3" width="13.3" height="12" rx="2" fill="none" stroke="#556b2f" stroke-width="1.3"/>
      <path d="M20 9.3 v-3.3 a3.3 3.3 0 0 1 6.7 0 v3.3" stroke="#556b2f" stroke-width="1.3" fill="none" stroke-linecap="round"/>
    </g>
    <!-- Packet 2 -->
    <g transform="translate(293.3, 210)">
      <rect width="46.7" height="29.3" rx="4" fill="#e0e0e0" stroke="#3d3d3d" stroke-width="1"/>
      <rect x="16.7" y="9.3" width="13.3" height="12" rx="2" fill="none" stroke="#556b2f" stroke-width="1.3"/>
      <path d="M20 9.3 v-3.3 a3.3 3.3 0 0 1 6.7 0 v3.3" stroke="#556b2f" stroke-width="1.3" fill="none" stroke-linecap="round"/>
    </g>
    <!-- Packet 3 -->
    <g transform="translate(373.3, 210)">
      <rect width="46.7" height="29.3" rx="4" fill="#e0e0e0" stroke="#3d3d3d" stroke-width="1"/>
      <rect x="16.7" y="9.3" width="13.3" height="12" rx="2" fill="none" stroke="#556b2f" stroke-width="1.3"/>
      <path d="M20 9.3 v-3.3 a3.3 3.3 0 0 1 6.7 0 v3.3" stroke="#556b2f" stroke-width="1.3" fill="none" stroke-linecap="round"/>
    </g>
    <!-- Packet 4 -->
    <g transform="translate(453.3, 210)">
      <rect width="46.7" height="29.3" rx="4" fill="#e0e0e0" stroke="#3d3d3d" stroke-width="1"/>
      <rect x="16.7" y="9.3" width="13.3" height="12" rx="2" fill="none" stroke="#556b2f" stroke-width="1.3"/>
      <path d="M20 9.3 v-3.3 a3.3 3.3 0 0 1 6.7 0 v3.3" stroke="#556b2f" stroke-width="1.3" fill="none" stroke-linecap="round"/>
    </g>
    <!-- Packet 5 -->
    <g transform="translate(533.3, 210)">
      <rect width="46.7" height="29.3" rx="4" fill="#e0e0e0" stroke="#3d3d3d" stroke-width="1"/>
      <rect x="16.7" y="9.3" width="13.3" height="12" rx="2" fill="none" stroke="#556b2f" stroke-width="1.3"/>
      <path d="M20 9.3 v-3.3 a3.3 3.3 0 0 1 6.7 0 v3.3" stroke="#556b2f" stroke-width="1.3" fill="none" stroke-linecap="round"/>
    </g>
  </g>

  <!-- Flow direction arrows -->
  <g fill="#556b2f" opacity="0.4">
    <path d="M193.3 224.7 l-10-5.3 v10.7 z"/>
    <path d="M606.7 224.7 l10-5.3 v10.7 z"/>
  </g>
</svg>
