<svg xmlns="http://www.w3.org/2000/svg" viewBox="0 0 800 450" width="800" height="450">
  <defs>
    <linearGradient id="serverGrad" x1="0%" y1="0%" x2="0%" y2="100%">
      <stop offset="0%" style="stop-color:#2d2d2d;stop-opacity:1" />
      <stop offset="100%" style="stop-color:#1a1a1a;stop-opacity:1" />
    </linearGradient>
    <filter id="shadow" x="-20%" y="-20%" width="140%" height="140%">
      <feDropShadow dx="0" dy="2" stdDeviation="3" flood-color="#000" flood-opacity="0.3"/>
    </filter>
  </defs>

  <!-- Background -->
  <rect width="800" height="450" fill="#f5f5f5"/>

  <!-- VS divider -->
  <line x1="400" y1="50" x2="400" y2="400" stroke="#e0e0e0" stroke-width="1" stroke-dasharray="6,4"/>

  <!-- LEFT: Unencrypted stolen hardware -->
  <!-- Hard drive -->
  <g transform="translate(120, 110)" filter="url(#shadow)">
    <rect width="160" height="100" rx="8" fill="url(#serverGrad)"/>
    <!-- Drive label -->
    <rect x="15" y="15" width="80" height="12" rx="2" fill="#3d3d3d"/>
    <!-- Spindle hole -->
    <circle cx="120" cy="50" r="20" fill="#1a1a1a"/>
    <circle cx="120" cy="50" r="8" fill="#3d3d3d"/>
    <circle cx="120" cy="50" r="3" fill="#1a1a1a"/>
    <!-- Data visible (exposed lines) -->
    <rect x="15" y="38" width="70" height="4" rx="1" fill="#556b2f" opacity="0.6"/>
    <rect x="15" y="48" width="55" height="4" rx="1" fill="#556b2f" opacity="0.5"/>
    <rect x="15" y="58" width="65" height="4" rx="1" fill="#556b2f" opacity="0.4"/>
    <rect x="15" y="68" width="50" height="4" rx="1" fill="#556b2f" opacity="0.5"/>
    <rect x="15" y="78" width="60" height="4" rx="1" fill="#556b2f" opacity="0.3"/>
  </g>

  <!-- "Data exposed" indicator -->
  <g transform="translate(150, 230)">
    <!-- Eye icon (visible) -->
    <ellipse cx="50" cy="15" rx="30" ry="15" fill="none" stroke="#1a1a1a" stroke-width="2"/>
    <circle cx="50" cy="15" r="8" fill="#1a1a1a"/>
    <circle cx="50" cy="15" r="3" fill="#e0e0e0"/>
  </g>

  <!-- Warning on left -->
  <g transform="translate(170, 55)">
    <polygon points="30,0 60,52 0,52" fill="#e0e0e0" stroke="#1a1a1a" stroke-width="2"/>
    <polygon points="30,8 54,48 6,48" fill="#f5f5f5"/>
    <line x1="30" y1="18" x2="30" y2="32" stroke="#1a1a1a" stroke-width="3" stroke-linecap="round"/>
    <circle cx="30" cy="40" r="2.5" fill="#1a1a1a"/>
  </g>

  <!-- Arrows showing data leaking -->
  <g transform="translate(100, 280)" opacity="0.6">
    <line x1="50" y1="5" x2="20" y2="35" stroke="#1a1a1a" stroke-width="1.5" stroke-dasharray="4,3"/>
    <line x1="100" y1="5" x2="80" y2="35" stroke="#1a1a1a" stroke-width="1.5" stroke-dasharray="4,3"/>
    <line x1="150" y1="5" x2="170" y2="35" stroke="#1a1a1a" stroke-width="1.5" stroke-dasharray="4,3"/>
    <rect x="5" y="35" width="40" height="20" rx="3" fill="#e0e0e0"/>
    <rect x="65" y="35" width="40" height="20" rx="3" fill="#e0e0e0"/>
    <rect x="155" y="35" width="40" height="20" rx="3" fill="#e0e0e0"/>
  </g>

  <text x="200" y="370" text-anchor="middle" font-family="system-ui, sans-serif" font-size="12" fill="#e0e0e0">Unencrypted</text>

  <!-- RIGHT: Encrypted hardware -->
  <g transform="translate(520, 110)" filter="url(#shadow)">
    <rect width="160" height="100" rx="8" fill="url(#serverGrad)"/>
    <!-- Drive label -->
    <rect x="15" y="15" width="80" height="12" rx="2" fill="#3d3d3d"/>
    <!-- Spindle hole -->
    <circle cx="120" cy="50" r="20" fill="#1a1a1a"/>
    <circle cx="120" cy="50" r="8" fill="#3d3d3d"/>
    <circle cx="120" cy="50" r="3" fill="#1a1a1a"/>
    <!-- Encrypted data (scrambled blocks) -->
    <rect x="15" y="38" width="70" height="4" rx="1" fill="#3d3d3d" opacity="0.5"/>
    <rect x="15" y="48" width="55" height="4" rx="1" fill="#3d3d3d" opacity="0.4"/>
    <rect x="15" y="58" width="65" height="4" rx="1" fill="#3d3d3d" opacity="0.3"/>
    <rect x="15" y="68" width="50" height="4" rx="1" fill="#3d3d3d" opacity="0.4"/>
    <rect x="15" y="78" width="60" height="4" rx="1" fill="#3d3d3d" opacity="0.3"/>
  </g>

  <!-- Lock icon on encrypted drive -->
  <g transform="translate(575, 130)">
    <rect x="0" y="12" width="30" height="24" rx="4" fill="#556b2f"/>
    <path d="M5 12 L5 6 C5 -2 25 -2 25 6 L25 12" fill="none" stroke="#556b2f" stroke-width="3"/>
    <circle cx="15" cy="24" r="3" fill="#f5f5f5"/>
    <line x1="15" y1="27" x2="15" y2="31" stroke="#f5f5f5" stroke-width="2"/>
  </g>

  <!-- Shield on encrypted -->
  <g transform="translate(570, 55)">
    <path d="M30 5 L55 15 L55 35 C55 50 30 70 30 70 C30 70 5 50 5 35 L5 15 Z" fill="#556b2f" stroke="#1a1a1a" stroke-width="2"/>
    <path d="M30 12 L48 19 L48 34 C48 46 30 62 30 62 C30 62 12 46 12 34 L12 19 Z" fill="#f5f5f5"/>
    <polyline points="18,32 26,42 42,22" fill="none" stroke="#556b2f" stroke-width="4" stroke-linecap="round" stroke-linejoin="round"/>
  </g>

  <!-- Blocked eye (cannot see data) -->
  <g transform="translate(550, 230)">
    <ellipse cx="50" cy="15" rx="30" ry="15" fill="none" stroke="#556b2f" stroke-width="2"/>
    <circle cx="50" cy="15" r="8" fill="#556b2f"/>
    <line x1="20" y1="35" x2="80" y2="-5" stroke="#556b2f" stroke-width="3" stroke-linecap="round"/>
  </g>

  <text x="600" y="370" text-anchor="middle" font-family="system-ui, sans-serif" font-size="12" fill="#556b2f">Encrypted</text>

  <!-- Decorative elements -->
  <circle cx="80" cy="400" r="35" fill="#e0e0e0" opacity="0.3"/>
  <circle cx="720" cy="410" r="50" fill="#e0e0e0" opacity="0.2"/>
  <circle cx="400" cy="430" r="25" fill="#556b2f" opacity="0.1"/>
</svg>
