<svg xmlns="http://www.w3.org/2000/svg" viewBox="0 0 800 450" width="800" height="450" role="img" aria-label="Una orden judicial obliga a la empresa en la nube a entregar tus archivos privados sin avisarte." font-family="Arial, 'Helvetica Neue', 'Segoe UI', sans-serif">
  <title>Una orden judicial obliga a la empresa en la nube a entregar tus archivos privados sin avisarte.</title>

  <rect x="0" y="0" width="800" height="450" fill="#f5f5f5" />

  
  <text x="70" y="82" font-family="Arial, 'Helvetica Neue', 'Segoe UI', sans-serif" font-size="46" font-weight="bold" fill="#8b0000" text-anchor="middle">?</text>
  <circle cx="70" cy="122" r="18" fill="#2d2d2d" />
  <path d="M44 215 L50 152 Q70 134 90 152 L96 215 Z" fill="#2d2d2d" />
  <text x="16" y="262" font-family="Arial, 'Helvetica Neue', 'Segoe UI', sans-serif" font-size="28" font-weight="bold" fill="#1a1a1a" text-anchor="start">Sin avisarte</text>

  
  <rect x="250" y="170" width="230" height="180" rx="12" fill="#2d2d2d" stroke="#1a1a1a" stroke-width="3" />
  <rect x="275" y="290" width="180" height="26" rx="3" fill="#f5f5f5" />
  <rect x="275" y="258" width="180" height="26" rx="3" fill="#f5f5f5" />
  <rect x="275" y="226" width="180" height="26" rx="3" fill="#f5f5f5" />
  <text x="365" y="410" font-family="Arial, 'Helvetica Neue', 'Segoe UI', sans-serif" font-size="28" font-weight="bold" fill="#1a1a1a" text-anchor="middle">Tus archivos privados</text>

  
  <g transform="rotate(-6 465 187)">
    <rect x="430" y="140" width="70" height="95" rx="4" fill="#8b0000" stroke="#1a1a1a" stroke-width="3" />
    <rect x="442" y="178" width="46" height="5" rx="2" fill="#f5f5f5" />
    <rect x="442" y="192" width="46" height="5" rx="2" fill="#f5f5f5" />
    <rect x="442" y="206" width="34" height="5" rx="2" fill="#f5f5f5" />
  </g>

  
  <line x1="578" y1="100" x2="498" y2="130" stroke="#8b0000" stroke-width="26" stroke-linecap="round" />
  <ellipse cx="490" cy="138" rx="27" ry="21" fill="#8b0000" stroke="#1a1a1a" stroke-width="2.5" />
  <rect x="452" y="146" width="12" height="32" rx="6" fill="#8b0000" stroke="#1a1a1a" stroke-width="2" />
  <rect x="467" y="150" width="12" height="34" rx="6" fill="#8b0000" stroke="#1a1a1a" stroke-width="2" />
  <rect x="482" y="150" width="12" height="34" rx="6" fill="#8b0000" stroke="#1a1a1a" stroke-width="2" />
  <rect x="497" y="147" width="12" height="32" rx="6" fill="#8b0000" stroke="#1a1a1a" stroke-width="2" />
  <rect x="500" y="116" width="28" height="13" rx="6" fill="#8b0000" stroke="#1a1a1a" stroke-width="2" transform="rotate(-28 514 122)" />
  <text x="540" y="80" font-family="Arial, 'Helvetica Neue', 'Segoe UI', sans-serif" font-size="28" font-weight="bold" fill="#8b0000" text-anchor="middle">Entregado</text>

  
  <path d="M622 165 Q595 130 583 110" fill="none" stroke="#8b0000" stroke-width="4" />
  <path d="M583 110 L590 124 L575 122 Z" fill="#8b0000" />

  
  <line x1="668" y1="132" x2="716" y2="92" stroke="#1a1a1a" stroke-width="9" stroke-linecap="round" />
  <rect x="700" y="72" width="46" height="20" rx="4" fill="#1a1a1a" transform="rotate(45 723 82)" />
  <rect x="655" y="128" width="44" height="11" rx="2" fill="#1a1a1a" />
  <rect x="625" y="140" width="150" height="180" rx="6" fill="#8b0000" stroke="#1a1a1a" stroke-width="3" />
  <rect x="645" y="172" width="110" height="7" rx="3" fill="#f5f5f5" />
  <rect x="645" y="192" width="110" height="7" rx="3" fill="#f5f5f5" />
  <rect x="645" y="212" width="80" height="7" rx="3" fill="#f5f5f5" />
  <circle cx="690" cy="280" r="22" fill="#f5f5f5" stroke="#1a1a1a" stroke-width="2.5" />
  <text x="690" y="289" font-family="Arial, 'Helvetica Neue', 'Segoe UI', sans-serif" font-size="28" font-weight="bold" fill="#8b0000" text-anchor="middle">§</text>
  <text x="690" y="362" font-family="Arial, 'Helvetica Neue', 'Segoe UI', sans-serif" font-size="28" font-weight="bold" fill="#1a1a1a" text-anchor="middle">Orden judicial</text>
</svg>
