<svg width="800" height="450" viewBox="0 0 800 450" fill="none" xmlns="http://www.w3.org/2000/svg">
  <defs>
    <filter id="drop-shadow" x="-20%" y="-20%" width="140%" height="140%">
      <feGaussianBlur in="SourceAlpha" stdDeviation="2.9"/>
      <feOffset dx="1.5" dy="2.9" result="offsetblur"/>
      <feComponentTransfer>
        <feFuncA type="linear" slope="0.2"/>
      </feComponentTransfer>
      <feMerge>
        <feMergeNode/>
        <feMergeNode in="SourceGraphic"/>
      </feMerge>
    </filter>
  </defs>

  <rect width="800" height="449.5" fill="#f5f5f5"/>

  <!-- Decorative circles -->
  <circle cx="58.2" cy="414.5" r="43.6" fill="#e0e0e0" opacity="0.3"/>
  <circle cx="741.8" cy="421.8" r="36.4" fill="#e0e0e0" opacity="0.3"/>

  <!-- Dashboard container -->
  <g filter="url(#drop-shadow)">
    <rect x="43.6" y="21.8" width="712.7" height="392.7" rx="13.1" fill="white" stroke="#e0e0e0" stroke-width="1.5"/>
    <!-- Header bar -->
    <rect x="43.6" y="21.8" width="712.7" height="40" rx="13.1" fill="#2d2d2d"/>
    <rect x="43.6" y="48.7" width="712.7" height="13.1" fill="#2d2d2d"/>
    <!-- Header dots -->
    <circle cx="69.1" cy="41.5" r="4.4" fill="#3d3d3d"/>
    <circle cx="84.4" cy="41.5" r="4.4" fill="#3d3d3d"/>
    <circle cx="99.6" cy="41.5" r="4.4" fill="#3d3d3d"/>
  </g>

  <!-- Column separators -->
  <line x1="281.5" y1="76.4" x2="281.5" y2="396.4" stroke="#e0e0e0" stroke-width="1.1"/>
  <line x1="518.5" y1="76.4" x2="518.5" y2="396.4" stroke="#e0e0e0" stroke-width="1.1"/>

  <!-- Column 1: Migration -->
  <g transform="translate(65.5, 76.4)">
    <text x="107.6" y="21.8" text-anchor="middle" fill="#1a1a1a" font-family="Arial, sans-serif" font-size="13.1" font-weight="bold">Migration</text>

    <!-- Progress ring -->
    <circle cx="107.6" cy="109.1" r="47.3" fill="none" stroke="#e0e0e0" stroke-width="7.3"/>
    <circle cx="107.6" cy="109.1" r="47.3" fill="none" stroke="#556b2f" stroke-width="7.3" stroke-linecap="round" stroke-dasharray="297" stroke-dashoffset="0" transform="rotate(-90, 107.6, 109.1)"/>
    <text x="107.6" y="112.7" text-anchor="middle" fill="#556b2f" font-family="Arial, sans-serif" font-size="21.8" font-weight="bold">100%</text>
    <text x="107.6" y="127.3" text-anchor="middle" fill="#3d3d3d" font-family="Arial, sans-serif" font-size="8.7">Complete</text>

    <!-- Status bar -->
    <rect x="21.8" y="185.5" width="172.4" height="7.3" rx="3.6" fill="#e0e0e0"/>
    <rect x="21.8" y="185.5" width="172.4" height="7.3" rx="3.6" fill="#556b2f"/>

    <!-- Status rows -->
    <g transform="translate(21.8, 210.9)">
      <circle cx="4.4" cy="4.4" r="4.4" fill="#556b2f"/>
      <text x="14.5" y="7.3" fill="#3d3d3d" font-family="Arial, sans-serif" font-size="9.5">Schema verified</text>
    </g>
    <g transform="translate(21.8, 232.7)">
      <circle cx="4.4" cy="4.4" r="4.4" fill="#556b2f"/>
      <text x="14.5" y="7.3" fill="#3d3d3d" font-family="Arial, sans-serif" font-size="9.5">Data integrity check</text>
    </g>
    <g transform="translate(21.8, 254.5)">
      <circle cx="4.4" cy="4.4" r="4.4" fill="#556b2f"/>
      <text x="14.5" y="7.3" fill="#3d3d3d" font-family="Arial, sans-serif" font-size="9.5">Encryption active</text>
    </g>
    <g transform="translate(21.8, 276.4)">
      <circle cx="4.4" cy="4.4" r="4.4" fill="#556b2f"/>
      <text x="14.5" y="7.3" fill="#3d3d3d" font-family="Arial, sans-serif" font-size="9.5">Zero downtime</text>
    </g>
  </g>

  <!-- Column 2: Audit Trail -->
  <g transform="translate(298.2, 76.4)">
    <text x="109.8" y="21.8" text-anchor="middle" fill="#1a1a1a" font-family="Arial, sans-serif" font-size="13.1" font-weight="bold">Audit Trail</text>

    <!-- Log entries -->
    <g transform="translate(14.5, 43.6)">
      <circle cx="5.8" cy="5.8" r="4.4" fill="#556b2f"/>
      <rect x="17.5" y="1.5" width="87.3" height="5.8" rx="2.9" fill="#e0e0e0"/>
      <rect x="112.7" y="1.5" width="58.2" height="5.8" rx="2.9" fill="#e0e0e0" opacity="0.6"/>
      <text x="17.5" y="20.4" fill="#3d3d3d" font-family="monospace" font-size="7.3">14:32:01</text>
    </g>
    <g transform="translate(14.5, 80)">
      <circle cx="5.8" cy="5.8" r="4.4" fill="#556b2f"/>
      <rect x="17.5" y="1.5" width="101.8" height="5.8" rx="2.9" fill="#e0e0e0"/>
      <rect x="127.3" y="1.5" width="43.6" height="5.8" rx="2.9" fill="#e0e0e0" opacity="0.6"/>
      <text x="17.5" y="20.4" fill="#3d3d3d" font-family="monospace" font-size="7.3">14:32:04</text>
    </g>
    <g transform="translate(14.5, 116.4)">
      <circle cx="5.8" cy="5.8" r="4.4" fill="#556b2f"/>
      <rect x="17.5" y="1.5" width="72.7" height="5.8" rx="2.9" fill="#e0e0e0"/>
      <rect x="98.2" y="1.5" width="65.5" height="5.8" rx="2.9" fill="#e0e0e0" opacity="0.6"/>
      <text x="17.5" y="20.4" fill="#3d3d3d" font-family="monospace" font-size="7.3">14:32:08</text>
    </g>
    <g transform="translate(14.5, 152.7)">
      <circle cx="5.8" cy="5.8" r="4.4" fill="#556b2f"/>
      <rect x="17.5" y="1.5" width="94.5" height="5.8" rx="2.9" fill="#e0e0e0"/>
      <rect x="120" y="1.5" width="50.9" height="5.8" rx="2.9" fill="#e0e0e0" opacity="0.6"/>
      <text x="17.5" y="20.4" fill="#3d3d3d" font-family="monospace" font-size="7.3">14:32:12</text>
    </g>
    <g transform="translate(14.5, 189.1)">
      <circle cx="5.8" cy="5.8" r="4.4" fill="#556b2f"/>
      <rect x="17.5" y="1.5" width="80" height="5.8" rx="2.9" fill="#e0e0e0"/>
      <rect x="105.5" y="1.5" width="61.8" height="5.8" rx="2.9" fill="#e0e0e0" opacity="0.6"/>
      <text x="17.5" y="20.4" fill="#3d3d3d" font-family="monospace" font-size="7.3">14:32:15</text>
    </g>
    <g transform="translate(14.5, 225.5)">
      <circle cx="5.8" cy="5.8" r="4.4" fill="#556b2f"/>
      <rect x="17.5" y="1.5" width="105.5" height="5.8" rx="2.9" fill="#e0e0e0"/>
      <rect x="130.9" y="1.5" width="40" height="5.8" rx="2.9" fill="#e0e0e0" opacity="0.6"/>
      <text x="17.5" y="20.4" fill="#3d3d3d" font-family="monospace" font-size="7.3">14:32:19</text>
    </g>

    <!-- Vertical timeline line -->
    <line x1="20.4" y1="55.3" x2="20.4" y2="237.1" stroke="#556b2f" stroke-width="1.1" stroke-dasharray="2.9 2.2" opacity="0.4"/>
  </g>

  <!-- Column 3: Security -->
  <g transform="translate(535.3, 76.4)">
    <text x="109.8" y="21.8" text-anchor="middle" fill="#1a1a1a" font-family="Arial, sans-serif" font-size="13.1" font-weight="bold">Security</text>

    <!-- Lock grid: 2 rows × 3 columns -->
    <!-- Row 1 -->
    <g transform="translate(14.5, 43.6)">
      <!-- Lock 1 -->
      <g transform="translate(0, 0)">
        <rect width="54.5" height="47.3" rx="7.3" fill="#f5f5f5" stroke="#e0e0e0" stroke-width="1.1"/>
        <rect x="16" y="16" width="21.8" height="20.4" rx="3.6" fill="none" stroke="#556b2f" stroke-width="1.8"/>
        <path d="M21.8 16 v-5.8 a5.1 5.1 0 0 1 10.2 0 v5.8" stroke="#556b2f" stroke-width="1.8" fill="none" stroke-linecap="round"/>
        <text x="26.9" y="59.6" text-anchor="middle" fill="#3d3d3d" font-family="Arial, sans-serif" font-size="8" font-weight="bold">SOC 2</text>
      </g>
      <!-- Lock 2 -->
      <g transform="translate(69.1, 0)">
        <rect width="54.5" height="47.3" rx="7.3" fill="#f5f5f5" stroke="#e0e0e0" stroke-width="1.1"/>
        <rect x="16" y="16" width="21.8" height="20.4" rx="3.6" fill="none" stroke="#556b2f" stroke-width="1.8"/>
        <path d="M21.8 16 v-5.8 a5.1 5.1 0 0 1 10.2 0 v5.8" stroke="#556b2f" stroke-width="1.8" fill="none" stroke-linecap="round"/>
        <text x="26.9" y="59.6" text-anchor="middle" fill="#3d3d3d" font-family="Arial, sans-serif" font-size="8" font-weight="bold">ISO 27001</text>
      </g>
      <!-- Lock 3 -->
      <g transform="translate(138.2, 0)">
        <rect width="54.5" height="47.3" rx="7.3" fill="#f5f5f5" stroke="#e0e0e0" stroke-width="1.1"/>
        <rect x="16" y="16" width="21.8" height="20.4" rx="3.6" fill="none" stroke="#556b2f" stroke-width="1.8"/>
        <path d="M21.8 16 v-5.8 a5.1 5.1 0 0 1 10.2 0 v5.8" stroke="#556b2f" stroke-width="1.8" fill="none" stroke-linecap="round"/>
        <text x="26.9" y="59.6" text-anchor="middle" fill="#3d3d3d" font-family="Arial, sans-serif" font-size="8" font-weight="bold">GDPR</text>
      </g>
    </g>

    <!-- Row 2 -->
    <g transform="translate(14.5, 149.1)">
      <!-- Lock 4 -->
      <g transform="translate(0, 0)">
        <rect width="54.5" height="47.3" rx="7.3" fill="#f5f5f5" stroke="#e0e0e0" stroke-width="1.1"/>
        <rect x="16" y="16" width="21.8" height="20.4" rx="3.6" fill="none" stroke="#556b2f" stroke-width="1.8"/>
        <path d="M21.8 16 v-5.8 a5.1 5.1 0 0 1 10.2 0 v5.8" stroke="#556b2f" stroke-width="1.8" fill="none" stroke-linecap="round"/>
        <text x="26.9" y="59.6" text-anchor="middle" fill="#3d3d3d" font-family="Arial, sans-serif" font-size="8" font-weight="bold">AES-256</text>
      </g>
      <!-- Lock 5 -->
      <g transform="translate(69.1, 0)">
        <rect width="54.5" height="47.3" rx="7.3" fill="#f5f5f5" stroke="#e0e0e0" stroke-width="1.1"/>
        <rect x="16" y="16" width="21.8" height="20.4" rx="3.6" fill="none" stroke="#556b2f" stroke-width="1.8"/>
        <path d="M21.8 16 v-5.8 a5.1 5.1 0 0 1 10.2 0 v5.8" stroke="#556b2f" stroke-width="1.8" fill="none" stroke-linecap="round"/>
        <text x="26.9" y="59.6" text-anchor="middle" fill="#3d3d3d" font-family="Arial, sans-serif" font-size="8" font-weight="bold">TLS 1.3</text>
      </g>
      <!-- Lock 6 -->
      <g transform="translate(138.2, 0)">
        <rect width="54.5" height="47.3" rx="7.3" fill="#f5f5f5" stroke="#e0e0e0" stroke-width="1.1"/>
        <rect x="16" y="16" width="21.8" height="20.4" rx="3.6" fill="none" stroke="#556b2f" stroke-width="1.8"/>
        <path d="M21.8 16 v-5.8 a5.1 5.1 0 0 1 10.2 0 v5.8" stroke="#556b2f" stroke-width="1.8" fill="none" stroke-linecap="round"/>
        <text x="26.9" y="59.6" text-anchor="middle" fill="#3d3d3d" font-family="Arial, sans-serif" font-size="8" font-weight="bold">RBAC</text>
      </g>
    </g>
  </g>
</svg>
