<svg xmlns="http://www.w3.org/2000/svg" viewBox="0 0 390 600" width="390" height="600" role="img" aria-label="A US court order at the top pulls red files up out of your dark data box while you stand at the bottom facing away and are never told." font-family="'Segoe UI', Tahoma, 'Geeza Pro', 'Noto Naskh Arabic', sans-serif" direction="rtl">
  <title>A US court order at the top pulls red files up out of your dark data box while you stand at the bottom facing away and are never told.</title>

  <rect width="390" height="600" fill="#f5f5f5" />

  
  <rect x="55" y="50" width="80" height="22" fill="#8b0000" stroke="#1a1a1a" stroke-width="2.5" />
  
  <rect x="125" y="22" width="140" height="80" fill="#8b0000" stroke="#1a1a1a" stroke-width="2.5" rx="6" />
  <line x1="148" y1="22" x2="148" y2="102" stroke="#1a1a1a" stroke-width="2.5" />
  <line x1="242" y1="22" x2="242" y2="102" stroke="#1a1a1a" stroke-width="2.5" />

  
  <rect x="55" y="115" width="280" height="118" fill="#f5f5f5" stroke="#1a1a1a" stroke-width="2.5" />
  
  <rect x="55" y="115" width="280" height="32" fill="#8b0000" stroke="#1a1a1a" stroke-width="2.5" />
  
  <path d="M 315 115 L 335 115 L 335 135 Z" fill="#1a1a1a" />
  
  <line x1="72" y1="170" x2="318" y2="170" stroke="#1a1a1a" stroke-width="2.5" />
  <line x1="72" y1="186" x2="270" y2="186" stroke="#1a1a1a" stroke-width="2.5" />

  
  <text x="195" y="220" font-family="'Segoe UI', Tahoma, 'Geeza Pro', 'Noto Naskh Arabic', sans-serif" font-size="22" font-weight="700" fill="#1a1a1a" text-anchor="middle" direction="rtl">أمر قضائي أمريكي</text>

  
  <path d="M 195 310 L 195 252" fill="none" stroke="#8b0000" stroke-width="4" stroke-dasharray="8,5" />
  <polygon points="195,242 187,256 203,256" fill="#8b0000" />

  
  <g transform="translate(195, 295)">
    <path d="M -14 -18 L 6 -18 L 16 -8 L 16 18 L -14 18 Z" fill="#8b0000" stroke="#1a1a1a" stroke-width="2.5" />
    <path d="M 6 -18 L 6 -8 L 16 -8" fill="none" stroke="#1a1a1a" stroke-width="2.5" />
    <line x1="-8" y1="-2" x2="10" y2="-2" stroke="#f5f5f5" stroke-width="2.5" />
    <line x1="-8" y1="7" x2="6" y2="7" stroke="#f5f5f5" stroke-width="2.5" />
  </g>
  <g transform="translate(195, 268)">
    <path d="M -14 -18 L 6 -18 L 16 -8 L 16 18 L -14 18 Z" fill="#8b0000" stroke="#1a1a1a" stroke-width="2.5" />
    <path d="M 6 -18 L 6 -8 L 16 -8" fill="none" stroke="#1a1a1a" stroke-width="2.5" />
    <line x1="-8" y1="-2" x2="10" y2="-2" stroke="#f5f5f5" stroke-width="2.5" />
    <line x1="-8" y1="7" x2="6" y2="7" stroke="#f5f5f5" stroke-width="2.5" />
  </g>

  
  <rect x="105" y="315" width="180" height="135" fill="#2d2d2d" stroke="#1a1a1a" stroke-width="2.5" />
  
  <rect x="115" y="312" width="160" height="8" fill="#8b0000" stroke="#1a1a1a" stroke-width="2.5" />

  
  <text x="195" y="392" font-family="'Segoe UI', Tahoma, 'Geeza Pro', 'Noto Naskh Arabic', sans-serif" font-size="22" font-weight="700" fill="#f5f5f5" text-anchor="middle" direction="rtl">بياناتك</text>

  
  <text x="260" y="510" font-family="'Segoe UI', Tahoma, 'Geeza Pro', 'Noto Naskh Arabic', sans-serif" font-size="18" font-weight="700" fill="#1a1a1a" text-anchor="middle" direction="rtl">لا تُعلَم</text>
  <line x1="178" y1="510" x2="140" y2="510" stroke="#1a1a1a" stroke-width="2.5" />

  
  <circle cx="110" cy="510" r="30" fill="#2d2d2d" />
  
  <path d="M 60 542 L 160 542 L 152 595 L 68 595 Z" fill="#2d2d2d" stroke="#1a1a1a" stroke-width="2.5" />
</svg>
