<svg xmlns="http://www.w3.org/2000/svg" viewBox="0 0 800 450" width="800" height="450">
  <defs>
    <filter id="shadow" x="-20%" y="-20%" width="140%" height="140%">
      <feDropShadow dx="0" dy="2" stdDeviation="3" flood-color="#000" flood-opacity="0.3"/>
    </filter>
  </defs>

  <!-- Background -->
  <rect width="800" height="450" fill="#f5f5f5"/>

  <!-- VS divider -->
  <line x1="400" y1="40" x2="400" y2="410" stroke="#e0e0e0" stroke-width="1" stroke-dasharray="6,4"/>

  <!-- LEFT: Incomplete audit trail -->
  <g transform="translate(80, 60)" filter="url(#shadow)">
    <rect width="240" height="320" rx="10" fill="#fff" stroke="#e0e0e0" stroke-width="1.5"/>

    <!-- Header -->
    <rect x="0" y="0" width="240" height="40" rx="10" fill="#e0e0e0"/>
    <rect x="0" y="20" width="240" height="20" fill="#e0e0e0"/>
    <text x="120" y="26" text-anchor="middle" font-family="Arial, sans-serif" font-size="13" fill="#1a1a1a" font-weight="bold">Audit Log</text>

    <!-- Row 1 - checked -->
    <rect x="20" y="55" width="16" height="16" rx="3" fill="none" stroke="#556b2f" stroke-width="2"/>
    <polyline points="23,63 27,67 33,60" fill="none" stroke="#556b2f" stroke-width="2" stroke-linecap="round"/>
    <rect x="48" y="58" width="120" height="8" rx="2" fill="#e0e0e0"/>

    <!-- Row 2 - missing (gap) -->
    <rect x="20" y="85" width="16" height="16" rx="3" fill="none" stroke="#e0e0e0" stroke-width="2" stroke-dasharray="3,2"/>
    <rect x="48" y="88" width="100" height="8" rx="2" fill="#e0e0e0" opacity="0.3"/>
    <text x="170" y="97" font-family="Arial, sans-serif" font-size="10" fill="#999999">?</text>

    <!-- Row 3 - checked -->
    <rect x="20" y="115" width="16" height="16" rx="3" fill="none" stroke="#556b2f" stroke-width="2"/>
    <polyline points="23,123 27,127 33,120" fill="none" stroke="#556b2f" stroke-width="2" stroke-linecap="round"/>
    <rect x="48" y="118" width="140" height="8" rx="2" fill="#e0e0e0"/>

    <!-- Row 4 - missing -->
    <rect x="20" y="145" width="16" height="16" rx="3" fill="none" stroke="#e0e0e0" stroke-width="2" stroke-dasharray="3,2"/>
    <rect x="48" y="148" width="90" height="8" rx="2" fill="#e0e0e0" opacity="0.3"/>
    <text x="155" y="157" font-family="Arial, sans-serif" font-size="10" fill="#999999">?</text>

    <!-- Row 5 - missing -->
    <rect x="20" y="175" width="16" height="16" rx="3" fill="none" stroke="#e0e0e0" stroke-width="2" stroke-dasharray="3,2"/>
    <rect x="48" y="178" width="110" height="8" rx="2" fill="#e0e0e0" opacity="0.3"/>
    <text x="175" y="187" font-family="Arial, sans-serif" font-size="10" fill="#999999">?</text>

    <!-- Row 6 - checked -->
    <rect x="20" y="205" width="16" height="16" rx="3" fill="none" stroke="#556b2f" stroke-width="2"/>
    <polyline points="23,213 27,217 33,210" fill="none" stroke="#556b2f" stroke-width="2" stroke-linecap="round"/>
    <rect x="48" y="208" width="130" height="8" rx="2" fill="#e0e0e0"/>

    <!-- Row 7 - missing -->
    <rect x="20" y="235" width="16" height="16" rx="3" fill="none" stroke="#e0e0e0" stroke-width="2" stroke-dasharray="3,2"/>
    <rect x="48" y="238" width="85" height="8" rx="2" fill="#e0e0e0" opacity="0.3"/>

    <!-- Row 8 - checked -->
    <rect x="20" y="265" width="16" height="16" rx="3" fill="none" stroke="#556b2f" stroke-width="2"/>
    <polyline points="23,273 27,277 33,270" fill="none" stroke="#556b2f" stroke-width="2" stroke-linecap="round"/>
    <rect x="48" y="268" width="115" height="8" rx="2" fill="#e0e0e0"/>
  </g>

  <!-- Warning on left -->
  <g transform="translate(170, 8)">
    <polygon points="20,0 40,35 0,35" fill="#e0e0e0" stroke="#1a1a1a" stroke-width="1.5"/>
    <polygon points="20,5 36,32 4,32" fill="#f5f5f5"/>
    <line x1="20" y1="12" x2="20" y2="22" stroke="#1a1a1a" stroke-width="2.5" stroke-linecap="round"/>
    <circle cx="20" cy="27" r="2" fill="#1a1a1a"/>
  </g>

  <text x="200" y="410" text-anchor="middle" font-family="Arial, sans-serif" font-size="12" fill="#999999">Gaps in Records</text>

  <!-- RIGHT: Complete audit trail -->
  <g transform="translate(480, 60)" filter="url(#shadow)">
    <rect width="240" height="320" rx="10" fill="#fff" stroke="#556b2f" stroke-width="1.5" opacity="0.8"/>

    <!-- Header -->
    <rect x="0" y="0" width="240" height="40" rx="10" fill="#556b2f"/>
    <rect x="0" y="20" width="240" height="20" fill="#556b2f"/>
    <text x="120" y="26" text-anchor="middle" font-family="Arial, sans-serif" font-size="13" fill="#f5f5f5" font-weight="bold">Audit Log</text>

    <!-- Row 1 - checked -->
    <rect x="20" y="55" width="16" height="16" rx="3" fill="none" stroke="#556b2f" stroke-width="2"/>
    <polyline points="23,63 27,67 33,60" fill="none" stroke="#556b2f" stroke-width="2" stroke-linecap="round"/>
    <rect x="48" y="58" width="120" height="8" rx="2" fill="#e0e0e0"/>
    <rect x="180" y="57" width="40" height="10" rx="2" fill="#556b2f" opacity="0.15"/>
    <text x="200" y="65" text-anchor="middle" font-family="Arial, sans-serif" font-size="8" fill="#556b2f">10:04</text>

    <!-- Row 2 - checked -->
    <rect x="20" y="85" width="16" height="16" rx="3" fill="none" stroke="#556b2f" stroke-width="2"/>
    <polyline points="23,93 27,97 33,90" fill="none" stroke="#556b2f" stroke-width="2" stroke-linecap="round"/>
    <rect x="48" y="88" width="100" height="8" rx="2" fill="#e0e0e0"/>
    <rect x="180" y="87" width="40" height="10" rx="2" fill="#556b2f" opacity="0.15"/>
    <text x="200" y="95" text-anchor="middle" font-family="Arial, sans-serif" font-size="8" fill="#556b2f">10:07</text>

    <!-- Row 3 - checked -->
    <rect x="20" y="115" width="16" height="16" rx="3" fill="none" stroke="#556b2f" stroke-width="2"/>
    <polyline points="23,123 27,127 33,120" fill="none" stroke="#556b2f" stroke-width="2" stroke-linecap="round"/>
    <rect x="48" y="118" width="140" height="8" rx="2" fill="#e0e0e0"/>
    <rect x="180" y="117" width="40" height="10" rx="2" fill="#556b2f" opacity="0.15"/>
    <text x="200" y="125" text-anchor="middle" font-family="Arial, sans-serif" font-size="8" fill="#556b2f">10:12</text>

    <!-- Row 4 - checked -->
    <rect x="20" y="145" width="16" height="16" rx="3" fill="none" stroke="#556b2f" stroke-width="2"/>
    <polyline points="23,153 27,157 33,150" fill="none" stroke="#556b2f" stroke-width="2" stroke-linecap="round"/>
    <rect x="48" y="148" width="90" height="8" rx="2" fill="#e0e0e0"/>
    <rect x="180" y="147" width="40" height="10" rx="2" fill="#556b2f" opacity="0.15"/>
    <text x="200" y="155" text-anchor="middle" font-family="Arial, sans-serif" font-size="8" fill="#556b2f">10:15</text>

    <!-- Row 5 - checked -->
    <rect x="20" y="175" width="16" height="16" rx="3" fill="none" stroke="#556b2f" stroke-width="2"/>
    <polyline points="23,183 27,187 33,180" fill="none" stroke="#556b2f" stroke-width="2" stroke-linecap="round"/>
    <rect x="48" y="178" width="110" height="8" rx="2" fill="#e0e0e0"/>
    <rect x="180" y="177" width="40" height="10" rx="2" fill="#556b2f" opacity="0.15"/>
    <text x="200" y="185" text-anchor="middle" font-family="Arial, sans-serif" font-size="8" fill="#556b2f">10:18</text>

    <!-- Row 6 - checked -->
    <rect x="20" y="205" width="16" height="16" rx="3" fill="none" stroke="#556b2f" stroke-width="2"/>
    <polyline points="23,213 27,217 33,210" fill="none" stroke="#556b2f" stroke-width="2" stroke-linecap="round"/>
    <rect x="48" y="208" width="130" height="8" rx="2" fill="#e0e0e0"/>
    <rect x="180" y="207" width="40" height="10" rx="2" fill="#556b2f" opacity="0.15"/>
    <text x="200" y="215" text-anchor="middle" font-family="Arial, sans-serif" font-size="8" fill="#556b2f">10:22</text>

    <!-- Row 7 - checked -->
    <rect x="20" y="235" width="16" height="16" rx="3" fill="none" stroke="#556b2f" stroke-width="2"/>
    <polyline points="23,243 27,247 33,240" fill="none" stroke="#556b2f" stroke-width="2" stroke-linecap="round"/>
    <rect x="48" y="238" width="85" height="8" rx="2" fill="#e0e0e0"/>
    <rect x="180" y="237" width="40" height="10" rx="2" fill="#556b2f" opacity="0.15"/>
    <text x="200" y="245" text-anchor="middle" font-family="Arial, sans-serif" font-size="8" fill="#556b2f">10:25</text>

    <!-- Row 8 - checked -->
    <rect x="20" y="265" width="16" height="16" rx="3" fill="none" stroke="#556b2f" stroke-width="2"/>
    <polyline points="23,273 27,277 33,270" fill="none" stroke="#556b2f" stroke-width="2" stroke-linecap="round"/>
    <rect x="48" y="268" width="115" height="8" rx="2" fill="#e0e0e0"/>
    <rect x="180" y="267" width="40" height="10" rx="2" fill="#556b2f" opacity="0.15"/>
    <text x="200" y="275" text-anchor="middle" font-family="Arial, sans-serif" font-size="8" fill="#556b2f">10:30</text>
  </g>

  <text x="600" y="410" text-anchor="middle" font-family="Arial, sans-serif" font-size="12" fill="#556b2f">Complete Trail</text>

  <!-- Decorative elements -->
  <circle cx="60" cy="420" r="30" fill="#e0e0e0" opacity="0.3"/>
  <circle cx="740" cy="430" r="45" fill="#e0e0e0" opacity="0.2"/>
  <circle cx="400" cy="440" r="20" fill="#556b2f" opacity="0.1"/>
</svg>
