<svg width="800" height="450" viewBox="0 0 800 450" fill="none" xmlns="http://www.w3.org/2000/svg">
  <rect width="800" height="449.5" fill="#f5f5f5"/>
  
  <defs>
    <filter id="dropshadow" x="-20%" y="-20%" width="140%" height="140%">
      <feGaussianBlur in="SourceAlpha" stdDeviation="2.2"/>
      <feOffset dx="1.5" dy="2.9" result="offsetblur"/>
      <feComponentTransfer>
        <feFuncA type="linear" slope="0.3"/>
      </feComponentTransfer>
      <feMerge>
        <feMergeNode/>
        <feMergeNode in="SourceGraphic"/>
      </feMerge>
    </filter>
    
    <g id="icon-branch">
        <circle cx="8.7" cy="8.7" r="7.3" stroke="#3d3d3d" stroke-width="1.5" fill="none"/>
        <path d="M8.7 16 V13.1 M8.7 4.4 V13.1 M8.7 13.1 C7.3 13.1 5.8 12.4 5.8 10.9 V6.5" stroke="#3d3d3d" stroke-width="1.5" stroke-linecap="round"/>
        <path d="M8.7 13.1 C10.2 13.1 11.6 12.4 11.6 10.9 V6.5" stroke="#3d3d3d" stroke-width="1.5" stroke-linecap="round"/>
    </g>
    
    <g id="icon-lightning">
      <path d="M7.3 1.5 L1.5 10.2 H6.5 L5.8 16 L11.6 7.3 H6.5 L7.3 1.5 Z" fill="#556b2f"/>
    </g>
    
    <g id="icon-server">
      <rect x="2.9" y="2.9" width="11.6" height="11.6" rx="1.5" stroke="#3d3d3d" stroke-width="1.5" fill="white"/>
      <path d="M5.8 5.8 H11.6" stroke="#3d3d3d" stroke-width="1.5" stroke-linecap="round"/>
      <path d="M5.8 8.7 H11.6" stroke="#3d3d3d" stroke-width="1.5" stroke-linecap="round"/>
      <path d="M5.8 11.6 H11.6" stroke="#3d3d3d" stroke-width="1.5" stroke-linecap="round"/>
      <circle cx="13.1" cy="4.4" r="1.5" fill="#556b2f"/>
    </g>

    <g id="icon-dev">
        <path d="M2.9 5.1 C2.9 4.3 3.6 3.6 4.4 3.6 H13.1 C13.9 3.6 14.5 4.3 14.5 5.1 V12.4 C14.5 13.2 13.9 13.8 13.1 13.8 H4.4 C3.6 13.8 2.9 13.2 2.9 12.4 V5.1 Z" stroke="#3d3d3d" stroke-width="1.5" fill="white"/>
        <path d="M1.5 15.3 H16" stroke="#3d3d3d" stroke-width="1.5" stroke-linecap="round"/>
        <path d="M5.8 6.5 L8 8.7 L5.8 10.9" stroke="#556b2f" stroke-width="1.5" stroke-linecap="round" stroke-linejoin="round"/>
        <path d="M9.5 10.9 H11.6" stroke="#556b2f" stroke-width="1.5" stroke-linecap="round"/>
    </g>

    <g id="icon-merge">
        <circle cx="8.7" cy="8.7" r="7.3" stroke="#3d3d3d" stroke-width="1.5" fill="none"/>
        <path d="M8.7 4.4 V9.5 M5.8 6.5 C5.8 8 7.3 8.7 8.7 9.5" stroke="#3d3d3d" stroke-width="1.5" stroke-linecap="round"/>
        <path d="M11.6 6.5 C11.6 8 10.2 8.7 8.7 9.5" stroke="#3d3d3d" stroke-width="1.5" stroke-linecap="round"/>
        <path d="M8.7 9.5 L7.3 11.6" stroke="#3d3d3d" stroke-width="1.5" stroke-linecap="round"/>
        <path d="M8.7 9.5 L10.2 11.6" stroke="#3d3d3d" stroke-width="1.5" stroke-linecap="round"/>
    </g>

    <g id="icon-cleanup">
        <path d="M10.5 6.9 L7.3 3.6 M7.3 3.6 L4 6.9 M7.3 3.6 V10.5 C7.3 11.3 7.9 12 8.7 12 H10.5" stroke="#3d3d3d" stroke-width="1.5" stroke-linecap="round" stroke-linejoin="round"/>
        <path d="M6.9 14.2 L10.2 17.5 M10.2 17.5 L13.5 14.2 M10.2 17.5 V10.5 C10.2 9.7 9.5 9.1 8.7 9.1 H6.9" stroke="#3d3d3d" stroke-width="1.5" stroke-linecap="round" stroke-linejoin="round"/>
    </g>

    <g id="icon-checkmark">
        <path d="M4.4 9.1 L7.6 12.4 L13.8 5.1" stroke="white" stroke-width="2.2" stroke-linecap="round" stroke-linejoin="round"/>
    </g>

    <g id="icon-equals">
        <path d="M3.6 6.5 H13.8" stroke="#3d3d3d" stroke-width="1.5" stroke-linecap="round"/>
        <path d="M3.6 10.9 H13.8" stroke="#3d3d3d" stroke-width="1.5" stroke-linecap="round"/>
    </g>

    <g id="icon-dollar">
        <path d="M8.7 1.5 V16 M12.4 3.6 H6.9 C5.9 3.6 5.1 4.5 5.1 5.5 C5.1 6.5 5.9 7.3 6.9 7.3 H10.5 C11.5 7.3 12.4 8.1 12.4 9.1 C12.4 10.1 11.5 10.9 10.5 10.9 H5.1" stroke="#3d3d3d" stroke-width="1.5" stroke-linecap="round"/>
    </g>

    <g id="icon-person">
        <path d="M8.7 8.7 C10.3 8.7 11.6 7.4 11.6 5.8 C11.6 4.2 10.3 2.9 8.7 2.9 C7.1 2.9 5.8 4.2 5.8 5.8 C5.8 7.4 7.1 8.7 8.7 8.7 Z" stroke="#3d3d3d" stroke-width="1.5"/>
        <path d="M13.8 14.5 C13.8 11.7 11.5 9.5 8.7 9.5 C5.9 9.5 3.6 11.7 3.6 14.5" stroke="#3d3d3d" stroke-width="1.5" stroke-linecap="round"/>
    </g>

  </defs>

  <g font-family="Arial, sans-serif" text-anchor="middle">
    
    <!-- Main Pipeline -->
    <g transform="translate(72.7, 181.8)" filter="url(#dropshadow)">
        <use href="#icon-branch" width="17.5" height="17.5" transform="translate(16.7, 13.1)"/>
        <rect width="50.9" height="50.9" rx="25.5" fill="white" stroke="#e0e0e0" stroke-width="1.5"/>
        <text x="25.5" y="69.1" fill="#1a1a1a" font-size="10.2" font-weight="bold">Git Branch</text>
    </g>
    
    <path d="M127.3 207.3 L185.5 207.3" stroke="#3d3d3d" stroke-width="1.5"/>
    <circle cx="156.4" cy="207.3" r="8.7" fill="#556b2f"/>
    <use href="#icon-checkmark" transform="translate(146.9, 197.8) scale(0.7)"/>

    <g transform="translate(189.1, 181.8)" filter="url(#dropshadow)">
        <rect width="94.5" height="50.9" rx="7.3" fill="white" stroke="#e0e0e0" stroke-width="1.5"/>
        <use href="#icon-lightning" transform="translate(38.5, 16.7)"/>
        <text x="47.3" y="76.4" fill="#1a1a1a" font-size="10.2" font-weight="bold">Rediacc</text>
    </g>
    
    <path d="M287.3 207.3 L345.5 207.3" stroke="#3d3d3d" stroke-width="1.5"/>
    <circle cx="316.4" cy="207.3" r="8.7" fill="#556b2f"/>
    <use href="#icon-checkmark" transform="translate(306.9, 197.8) scale(0.7)"/>

    <g transform="translate(349.1, 181.8)" filter="url(#dropshadow)">
        <rect width="94.5" height="50.9" rx="7.3" fill="white" stroke="#e0e0e0" stroke-width="1.5"/>
        <use href="#icon-server" transform="translate(38.5, 16.7)"/>
        <text x="47.3" y="76.4" fill="#1a1a1a" font-size="10.2" font-weight="bold">Prod Clone</text>
    </g>
    
    <path d="M447.3 207.3 L505.5 207.3" stroke="#3d3d3d" stroke-width="1.5"/>
    <circle cx="476.4" cy="207.3" r="8.7" fill="#556b2f"/>
    <use href="#icon-checkmark" transform="translate(466.9, 197.8) scale(0.7)"/>

    <g transform="translate(509.1, 181.8)" filter="url(#dropshadow)">
        <rect width="94.5" height="50.9" rx="7.3" fill="white" stroke="#e0e0e0" stroke-width="1.5"/>
        <use href="#icon-dev" transform="translate(38.5, 16.7)"/>
        <text x="47.3" y="69.1" fill="#1a1a1a" font-size="10.2" font-weight="bold">Dev</text>
        <text x="47.3" y="83.6" fill="#1a1a1a" font-size="10.2" font-weight="bold">Environment</text>
    </g>
    
    <path d="M607.3 207.3 L665.5 207.3" stroke="#3d3d3d" stroke-width="1.5"/>
    <circle cx="636.4" cy="207.3" r="8.7" fill="#556b2f"/>
    <use href="#icon-checkmark" transform="translate(626.9, 197.8) scale(0.7)"/>
    
    <g transform="translate(669.1, 181.8)" filter="url(#dropshadow)">
        <rect width="50.9" height="50.9" rx="25.5" fill="white" stroke="#e0e0e0" stroke-width="1.5"/>
        <use href="#icon-merge" width="17.5" height="17.5" transform="translate(16.7, 16.7)"/>
        <text x="25.5" y="69.1" fill="#1a1a1a" font-size="10.2" font-weight="bold">Merge</text>
    </g>

    <!-- Cleanup Section -->
    <path d="M694.5 236.4 V276.4" stroke="#3d3d3d" stroke-width="1.5" stroke-dasharray="3.6 3.6"/>
    <path d="M690.9 272.7 L694.5 276.4 L698.2 272.7" stroke="#3d3d3d" stroke-width="1.5" fill="none"/>

    <g transform="translate(658.2, 280)" filter="url(#dropshadow)">
        <rect width="72.7" height="43.6" rx="7.3" fill="white" stroke="#e0e0e0" stroke-width="1.5"/>
        <use href="#icon-cleanup" width="17.5" height="17.5" transform="translate(27.6, 3.6)"/>
        <text x="36.4" y="34.9" fill="#1a1a1a" font-size="10.2" font-weight="bold">Cleanup</text>
    </g>
    
    <!-- Bottom Icons -->
    <g transform="translate(0, 400)" text-anchor="middle" font-size="10.2" fill="#2d2d2d">
        <g transform="translate(160, 0)">
            <circle cx="0" cy="-18.2" r="13.1" fill="white" stroke="#e0e0e0" stroke-width="1.1"/>
            <path d="M-5.8-15.3 L-1.5-10.9 L5.8-19.6" stroke="#556b2f" stroke-width="2.2" stroke-linecap="round" stroke-linejoin="round" fill="none"/>
            <text y="14.5">Zero Tickets</text>
        </g>
        <g transform="translate(320, 0)">
            <circle cx="0" cy="-18.2" r="13.1" fill="white" stroke="#e0e0e0" stroke-width="1.1"/>
            <use href="#icon-equals" transform="translate(-8.7, -26.9)"/>
            <text y="14.5">Parity</text>
        </g>
        <g transform="translate(480, 0)">
            <circle cx="0" cy="-18.2" r="13.1" fill="white" stroke="#e0e0e0" stroke-width="1.1"/>
            <use href="#icon-dollar" transform="translate(-8.7, -26.9)"/>
            <text y="14.5">Cost Opt.</text>
        </g>
        <g transform="translate(640, 0)">
            <circle cx="0" cy="-18.2" r="13.1" fill="white" stroke="#e0e0e0" stroke-width="1.1"/>
            <use href="#icon-person" transform="translate(-8.7, -26.9)"/>
            <text y="14.5">Self-service</text>
        </g>
    </g>

  </g>
</svg>
