<svg width="1200" height="675" viewBox="0 0 1200 675" xmlns="http://www.w3.org/2000/svg" style="background-color: #f5f5f5; font-family: 'Arial', sans-serif;">
  <defs>
    <filter id="dropShadow" x="-20%" y="-20%" width="140%" height="140%">
      <feGaussianBlur in="SourceAlpha" stdDeviation="3"/>
      <feOffset dx="2" dy="2" result="offsetblur"/>
      <feComponentTransfer>
        <feFuncA type="linear" slope="0.5"/>
      </feComponentTransfer>
      <feMerge>
        <feMergeNode/>
        <feMergeNode in="SourceGraphic"/>
      </feMerge>
    </filter>
    <linearGradient id="serverGradient" x1="0%" y1="0%" x2="0%" y2="100%">
      <stop offset="0%" style="stop-color:#2d2d2d;stop-opacity:1" />
      <stop offset="100%" style="stop-color:#1a1a1a;stop-opacity:1" />
    </linearGradient>
    <marker id="arrowhead" markerWidth="10" markerHeight="7" refX="0" refY="3.5" orient="auto">
      <polygon points="0 0, 10 3.5, 0 7" fill="#556b2f" />
    </marker>
  </defs>

  <!-- Decorative circles -->
  <circle cx="50" cy="650" r="40" fill="#e0e0e0" opacity="0.5"/>
  <circle cx="1150" cy="620" r="60" fill="#e0e0e0" opacity="0.5"/>

  <!-- Left Side: Developer -->
  <g id="developer" transform="translate(150, 400)">
    <!-- Stick figure -->
    <circle cx="100" cy="-70" r="20" fill="none" stroke="#3d3d3d" stroke-width="4"/>
    <line x1="100" y1="-50" x2="100" y2="0" stroke="#3d3d3d" stroke-width="4"/>
    <line x1="100" y1="-30" x2="60" y2="-10" stroke="#3d3d3d" stroke-width="4"/>
    <line x1="100" y1="0" x2="120" y2="50" stroke="#3d3d3d" stroke-width="4"/>
    <line x1="100" y1="0" x2="80" y2="50" stroke="#3d3d3d" stroke-width="4"/>
    
    <!-- Chair & Desk -->
    <path d="M 120 60 L 80 60 L 80 20 L 120 20 Z" fill="#3d3d3d" />
    <rect x="-20" y="20" width="120" height="10" fill="#3d3d3d"/>

    <!-- Laptop -->
    <rect x="20" y="-30" width="100" height="50" fill="#e0e0e0" stroke="#3d3d3d" stroke-width="2" rx="5"/>
    <rect x="25" y="-25" width="90" height="40" fill="#1a1a1a"/>
    <!-- Code lines -->
    <path d="M 30 0 L 80 0 M 30 -5 L 90 -5 M 30 -10 L 70 -10 M 30 -15 L 85 -15" stroke="#e0e0e0" stroke-width="1.5" />
  </g>

  <!-- Center: Lightning Bolt -->
  <g id="lightning-bolt" transform="translate(525, 250)">
    <path d="M 75 0 L 25 100 L 65 100 L 15 200 L 125 80 L 85 80 Z" fill="#556b2f" filter="url(#dropShadow)"/>
    <text x="50" y="250" font-size="60" font-weight="bold" fill="#1a1a1a" text-anchor="middle">60s</text>
  </g>

  <!-- Right Side: Servers -->
  <g id="servers" transform="translate(800, 150)">
    <!-- Server 1: Production -->
    <g id="prod-server">
      <rect width="300" height="150" fill="url(#serverGradient)" rx="10" filter="url(#dropShadow)"/>
      <text x="150" y="-15" fill="#1a1a1a" text-anchor="middle" font-weight="bold" font-size="20">Production</text>
      <!-- Drive Bays -->
      <rect x="20" y="20" width="260" height="20" fill="#3d3d3d" rx="3"/>
      <rect x="20" y="50" width="260" height="20" fill="#3d3d3d" rx="3"/>
      <rect x="20" y="80" width="260" height="20" fill="#3d3d3d" rx="3"/>
      <!-- Status Lights -->
      <circle cx="270" cy="30" r="5" fill="#556b2f"/>
      <circle cx="270" cy="60" r="5" fill="#556b2f"/>
      <circle cx="270" cy="90" r="5" fill="#556b2f"/>
    </g>
    
    <!-- Server 2: Dev Clone -->
    <g id="dev-clone" transform="translate(0, 200)" opacity="0.8">
      <rect width="300" height="150" fill="url(#serverGradient)" rx="10" filter="url(#dropShadow)"/>
      <text x="150" y="-15" fill="#1a1a1a" text-anchor="middle" font-weight="bold" font-size="20">Dev Clone</text>
      <!-- Drive Bays -->
      <rect x="20" y="20" width="260" height="20" fill="#3d3d3d" rx="3"/>
      <rect x="20" y="50" width="260" height="20" fill="#3d3d3d" rx="3"/>
      <rect x="20" y="80" width="260" height="20" fill="#3d3d3d" rx="3"/>
      <!-- Status Lights -->
      <circle cx="270" cy="30" r="5" fill="#556b2f"/>
      <circle cx="270" cy="60" r="5" fill="#556b2f"/>
      <circle cx="270" cy="90" r="5" fill="#556b2f"/>
    </g>
  </g>
  
  <!-- Connecting Arrow -->
  <path d="M 270 375 C 400 200, 750 200, 800 375" stroke="#556b2f" stroke-width="8" fill="none" marker-end="url(#arrowhead)" stroke-dasharray="15, 10"/>

</svg>