<svg width="1100" height="618" viewBox="0 0 1100 618" fill="none" xmlns="http://www.w3.org/2000/svg">
  <defs>
    <filter id="drop-shadow" x="-20%" y="-20%" width="140%" height="140%">
      <feGaussianBlur in="SourceAlpha" stdDeviation="4"/>
      <feOffset dx="2" dy="4" result="offsetblur"/>
      <feComponentTransfer>
        <feFuncA type="linear" slope="0.25"/>
      </feComponentTransfer>
      <feMerge>
        <feMergeNode/>
        <feMergeNode in="SourceGraphic"/>
      </feMerge>
    </filter>
  </defs>

  <rect width="1100" height="618" fill="#f5f5f5"/>

  <!-- Decorative circles -->
  <circle cx="60" cy="580" r="80" fill="#e0e0e0" opacity="0.3"/>
  <circle cx="1040" cy="590" r="60" fill="#e0e0e0" opacity="0.3"/>

  <!-- Dashboard Frame -->
  <g filter="url(#drop-shadow)">
    <rect x="60" y="40" width="980" height="520" rx="18" fill="#1a1a1a"/>
    <!-- Header bar -->
    <rect x="60" y="40" width="980" height="55" rx="18" fill="#2d2d2d"/>
    <rect x="60" y="77" width="980" height="18" fill="#2d2d2d"/>
    <!-- Header dots -->
    <circle cx="95" cy="67" r="7" fill="#3d3d3d"/>
    <circle cx="118" cy="67" r="7" fill="#3d3d3d"/>
    <circle cx="141" cy="67" r="7" fill="#3d3d3d"/>
  </g>

  <!-- Panel 1: 30 Days -->
  <g transform="translate(90, 110)">
    <rect width="280" height="420" rx="12" fill="#2d2d2d"/>
    <text x="140" y="35" text-anchor="middle" fill="#e0e0e0" font-family="Arial, sans-serif" font-size="18" font-weight="bold">30 Days</text>
    <line x1="20" y1="50" x2="260" y2="50" stroke="#3d3d3d" stroke-width="1"/>
    <!-- Checklist rows -->
    <g transform="translate(25, 70)">
      <path d="M0 4 l5 5 l10-10" stroke="#556b2f" stroke-width="2.5" fill="none" stroke-linecap="round" stroke-linejoin="round"/>
      <rect x="25" y="0" width="195" height="8" rx="4" fill="#3d3d3d"/>
    </g>
    <g transform="translate(25, 105)">
      <path d="M0 4 l5 5 l10-10" stroke="#556b2f" stroke-width="2.5" fill="none" stroke-linecap="round" stroke-linejoin="round"/>
      <rect x="25" y="0" width="170" height="8" rx="4" fill="#3d3d3d"/>
    </g>
    <g transform="translate(25, 140)">
      <path d="M0 4 l5 5 l10-10" stroke="#556b2f" stroke-width="2.5" fill="none" stroke-linecap="round" stroke-linejoin="round"/>
      <rect x="25" y="0" width="210" height="8" rx="4" fill="#3d3d3d"/>
    </g>
    <g transform="translate(25, 175)">
      <path d="M0 4 l5 5 l10-10" stroke="#556b2f" stroke-width="2.5" fill="none" stroke-linecap="round" stroke-linejoin="round"/>
      <rect x="25" y="0" width="185" height="8" rx="4" fill="#3d3d3d"/>
    </g>
    <g transform="translate(25, 210)">
      <path d="M0 4 l5 5 l10-10" stroke="#556b2f" stroke-width="2.5" fill="none" stroke-linecap="round" stroke-linejoin="round"/>
      <rect x="25" y="0" width="200" height="8" rx="4" fill="#3d3d3d"/>
    </g>
    <g transform="translate(25, 245)">
      <path d="M0 4 l5 5 l10-10" stroke="#556b2f" stroke-width="2.5" fill="none" stroke-linecap="round" stroke-linejoin="round"/>
      <rect x="25" y="0" width="160" height="8" rx="4" fill="#3d3d3d"/>
    </g>
    <g transform="translate(25, 280)">
      <path d="M0 4 l5 5 l10-10" stroke="#556b2f" stroke-width="2.5" fill="none" stroke-linecap="round" stroke-linejoin="round"/>
      <rect x="25" y="0" width="190" height="8" rx="4" fill="#3d3d3d"/>
    </g>
    <g transform="translate(25, 315)">
      <path d="M0 4 l5 5 l10-10" stroke="#556b2f" stroke-width="2.5" fill="none" stroke-linecap="round" stroke-linejoin="round"/>
      <rect x="25" y="0" width="175" height="8" rx="4" fill="#3d3d3d"/>
    </g>
    <g transform="translate(25, 350)">
      <path d="M0 4 l5 5 l10-10" stroke="#556b2f" stroke-width="2.5" fill="none" stroke-linecap="round" stroke-linejoin="round"/>
      <rect x="25" y="0" width="205" height="8" rx="4" fill="#3d3d3d"/>
    </g>
  </g>

  <!-- Panel 2: 60 Days (center, with badge) -->
  <g transform="translate(410, 110)">
    <rect width="280" height="420" rx="12" fill="#2d2d2d"/>
    <text x="140" y="35" text-anchor="middle" fill="#e0e0e0" font-family="Arial, sans-serif" font-size="18" font-weight="bold">60 Days</text>
    <line x1="20" y1="50" x2="260" y2="50" stroke="#3d3d3d" stroke-width="1"/>

    <!-- 100% Badge -->
    <circle cx="140" cy="130" r="55" fill="#3d3d3d"/>
    <circle cx="140" cy="130" r="50" fill="none" stroke="#556b2f" stroke-width="6" stroke-linecap="round"/>
    <text x="140" y="138" text-anchor="middle" fill="#556b2f" font-family="Arial, sans-serif" font-size="28" font-weight="bold">100%</text>
    <text x="140" y="160" text-anchor="middle" fill="#e0e0e0" font-family="Arial, sans-serif" font-size="11">Verified</text>

    <!-- Bar Chart -->
    <g transform="translate(40, 210)">
      <rect x="0" y="55" width="25" height="50" rx="3" fill="#556b2f" opacity="0.5"/>
      <rect x="35" y="35" width="25" height="70" rx="3" fill="#556b2f" opacity="0.65"/>
      <rect x="70" y="20" width="25" height="85" rx="3" fill="#556b2f" opacity="0.8"/>
      <rect x="105" y="10" width="25" height="95" rx="3" fill="#556b2f" opacity="0.9"/>
      <rect x="140" y="0" width="25" height="105" rx="3" fill="#556b2f"/>
      <rect x="175" y="5" width="25" height="100" rx="3" fill="#556b2f" opacity="0.95"/>
    </g>

    <!-- Checklist rows below chart -->
    <g transform="translate(25, 330)">
      <path d="M0 4 l5 5 l10-10" stroke="#556b2f" stroke-width="2.5" fill="none" stroke-linecap="round" stroke-linejoin="round"/>
      <rect x="25" y="0" width="180" height="8" rx="4" fill="#3d3d3d"/>
    </g>
    <g transform="translate(25, 360)">
      <path d="M0 4 l5 5 l10-10" stroke="#556b2f" stroke-width="2.5" fill="none" stroke-linecap="round" stroke-linejoin="round"/>
      <rect x="25" y="0" width="195" height="8" rx="4" fill="#3d3d3d"/>
    </g>
    <g transform="translate(25, 390)">
      <path d="M0 4 l5 5 l10-10" stroke="#556b2f" stroke-width="2.5" fill="none" stroke-linecap="round" stroke-linejoin="round"/>
      <rect x="25" y="0" width="165" height="8" rx="4" fill="#3d3d3d"/>
    </g>
  </g>

  <!-- Panel 3: 90 Days -->
  <g transform="translate(730, 110)">
    <rect width="280" height="420" rx="12" fill="#2d2d2d"/>
    <text x="140" y="35" text-anchor="middle" fill="#e0e0e0" font-family="Arial, sans-serif" font-size="18" font-weight="bold">90 Days</text>
    <line x1="20" y1="50" x2="260" y2="50" stroke="#3d3d3d" stroke-width="1"/>
    <!-- Checklist rows -->
    <g transform="translate(25, 70)">
      <path d="M0 4 l5 5 l10-10" stroke="#556b2f" stroke-width="2.5" fill="none" stroke-linecap="round" stroke-linejoin="round"/>
      <rect x="25" y="0" width="190" height="8" rx="4" fill="#3d3d3d"/>
    </g>
    <g transform="translate(25, 102)">
      <path d="M0 4 l5 5 l10-10" stroke="#556b2f" stroke-width="2.5" fill="none" stroke-linecap="round" stroke-linejoin="round"/>
      <rect x="25" y="0" width="210" height="8" rx="4" fill="#3d3d3d"/>
    </g>
    <g transform="translate(25, 134)">
      <path d="M0 4 l5 5 l10-10" stroke="#556b2f" stroke-width="2.5" fill="none" stroke-linecap="round" stroke-linejoin="round"/>
      <rect x="25" y="0" width="175" height="8" rx="4" fill="#3d3d3d"/>
    </g>
    <g transform="translate(25, 166)">
      <path d="M0 4 l5 5 l10-10" stroke="#556b2f" stroke-width="2.5" fill="none" stroke-linecap="round" stroke-linejoin="round"/>
      <rect x="25" y="0" width="200" height="8" rx="4" fill="#3d3d3d"/>
    </g>
    <g transform="translate(25, 198)">
      <path d="M0 4 l5 5 l10-10" stroke="#556b2f" stroke-width="2.5" fill="none" stroke-linecap="round" stroke-linejoin="round"/>
      <rect x="25" y="0" width="165" height="8" rx="4" fill="#3d3d3d"/>
    </g>
    <g transform="translate(25, 230)">
      <path d="M0 4 l5 5 l10-10" stroke="#556b2f" stroke-width="2.5" fill="none" stroke-linecap="round" stroke-linejoin="round"/>
      <rect x="25" y="0" width="195" height="8" rx="4" fill="#3d3d3d"/>
    </g>
    <g transform="translate(25, 262)">
      <path d="M0 4 l5 5 l10-10" stroke="#556b2f" stroke-width="2.5" fill="none" stroke-linecap="round" stroke-linejoin="round"/>
      <rect x="25" y="0" width="180" height="8" rx="4" fill="#3d3d3d"/>
    </g>
    <g transform="translate(25, 294)">
      <path d="M0 4 l5 5 l10-10" stroke="#556b2f" stroke-width="2.5" fill="none" stroke-linecap="round" stroke-linejoin="round"/>
      <rect x="25" y="0" width="215" height="8" rx="4" fill="#3d3d3d"/>
    </g>
    <g transform="translate(25, 326)">
      <path d="M0 4 l5 5 l10-10" stroke="#556b2f" stroke-width="2.5" fill="none" stroke-linecap="round" stroke-linejoin="round"/>
      <rect x="25" y="0" width="185" height="8" rx="4" fill="#3d3d3d"/>
    </g>
    <g transform="translate(25, 358)">
      <path d="M0 4 l5 5 l10-10" stroke="#556b2f" stroke-width="2.5" fill="none" stroke-linecap="round" stroke-linejoin="round"/>
      <rect x="25" y="0" width="200" height="8" rx="4" fill="#3d3d3d"/>
    </g>
  </g>
</svg>
