<svg width="800" height="450" viewBox="0 0 800 450" fill="none" xmlns="http://www.w3.org/2000/svg">
  <defs>
    <filter id="drop-shadow" x="-20%" y="-20%" width="140%" height="140%">
      <feGaussianBlur in="SourceAlpha" stdDeviation="2.9"/>
      <feOffset dx="1.5" dy="2.9" result="offsetblur"/>
      <feComponentTransfer>
        <feFuncA type="linear" slope="0.25"/>
      </feComponentTransfer>
      <feMerge>
        <feMergeNode/>
        <feMergeNode in="SourceGraphic"/>
      </feMerge>
    </filter>
  </defs>

  <rect width="800" height="449.5" fill="#f5f5f5"/>

  <!-- Decorative circles -->
  <circle cx="43.6" cy="421.8" r="58.2" fill="#e0e0e0" opacity="0.3"/>
  <circle cx="756.4" cy="429.1" r="43.6" fill="#e0e0e0" opacity="0.3"/>

  <!-- Dashboard Frame -->
  <g filter="url(#drop-shadow)">
    <rect x="43.6" y="29.1" width="712.7" height="378.2" rx="13.1" fill="#1a1a1a"/>
    <!-- Header bar -->
    <rect x="43.6" y="29.1" width="712.7" height="40" rx="13.1" fill="#2d2d2d"/>
    <rect x="43.6" y="56" width="712.7" height="13.1" fill="#2d2d2d"/>
    <!-- Header dots -->
    <circle cx="69.1" cy="48.7" r="5.1" fill="#3d3d3d"/>
    <circle cx="85.8" cy="48.7" r="5.1" fill="#3d3d3d"/>
    <circle cx="102.5" cy="48.7" r="5.1" fill="#3d3d3d"/>
  </g>

  <!-- Panel 1: 30 Days -->
  <g transform="translate(65.5, 80)">
    <rect width="203.6" height="305.5" rx="8.7" fill="#2d2d2d"/>
    <text x="101.8" y="25.5" text-anchor="middle" fill="#e0e0e0" font-family="Arial, sans-serif" font-size="13.1" font-weight="bold">30 Days</text>
    <line x1="14.5" y1="36.4" x2="189.1" y2="36.4" stroke="#3d3d3d" stroke-width="0.7"/>
    <!-- Checklist rows -->
    <g transform="translate(18.2, 50.9)">
      <path d="M0 2.9 l3.6 3.6 l7.3-7.3" stroke="#556b2f" stroke-width="1.8" fill="none" stroke-linecap="round" stroke-linejoin="round"/>
      <rect x="18.2" y="0" width="141.8" height="5.8" rx="2.9" fill="#3d3d3d"/>
    </g>
    <g transform="translate(18.2, 76.4)">
      <path d="M0 2.9 l3.6 3.6 l7.3-7.3" stroke="#556b2f" stroke-width="1.8" fill="none" stroke-linecap="round" stroke-linejoin="round"/>
      <rect x="18.2" y="0" width="123.6" height="5.8" rx="2.9" fill="#3d3d3d"/>
    </g>
    <g transform="translate(18.2, 101.8)">
      <path d="M0 2.9 l3.6 3.6 l7.3-7.3" stroke="#556b2f" stroke-width="1.8" fill="none" stroke-linecap="round" stroke-linejoin="round"/>
      <rect x="18.2" y="0" width="152.7" height="5.8" rx="2.9" fill="#3d3d3d"/>
    </g>
    <g transform="translate(18.2, 127.3)">
      <path d="M0 2.9 l3.6 3.6 l7.3-7.3" stroke="#556b2f" stroke-width="1.8" fill="none" stroke-linecap="round" stroke-linejoin="round"/>
      <rect x="18.2" y="0" width="134.5" height="5.8" rx="2.9" fill="#3d3d3d"/>
    </g>
    <g transform="translate(18.2, 152.7)">
      <path d="M0 2.9 l3.6 3.6 l7.3-7.3" stroke="#556b2f" stroke-width="1.8" fill="none" stroke-linecap="round" stroke-linejoin="round"/>
      <rect x="18.2" y="0" width="145.5" height="5.8" rx="2.9" fill="#3d3d3d"/>
    </g>
    <g transform="translate(18.2, 178.2)">
      <path d="M0 2.9 l3.6 3.6 l7.3-7.3" stroke="#556b2f" stroke-width="1.8" fill="none" stroke-linecap="round" stroke-linejoin="round"/>
      <rect x="18.2" y="0" width="116.4" height="5.8" rx="2.9" fill="#3d3d3d"/>
    </g>
    <g transform="translate(18.2, 203.6)">
      <path d="M0 2.9 l3.6 3.6 l7.3-7.3" stroke="#556b2f" stroke-width="1.8" fill="none" stroke-linecap="round" stroke-linejoin="round"/>
      <rect x="18.2" y="0" width="138.2" height="5.8" rx="2.9" fill="#3d3d3d"/>
    </g>
    <g transform="translate(18.2, 229.1)">
      <path d="M0 2.9 l3.6 3.6 l7.3-7.3" stroke="#556b2f" stroke-width="1.8" fill="none" stroke-linecap="round" stroke-linejoin="round"/>
      <rect x="18.2" y="0" width="127.3" height="5.8" rx="2.9" fill="#3d3d3d"/>
    </g>
    <g transform="translate(18.2, 254.5)">
      <path d="M0 2.9 l3.6 3.6 l7.3-7.3" stroke="#556b2f" stroke-width="1.8" fill="none" stroke-linecap="round" stroke-linejoin="round"/>
      <rect x="18.2" y="0" width="149.1" height="5.8" rx="2.9" fill="#3d3d3d"/>
    </g>
  </g>

  <!-- Panel 2: 60 Days (center, with badge) -->
  <g transform="translate(298.2, 80)">
    <rect width="203.6" height="305.5" rx="8.7" fill="#2d2d2d"/>
    <text x="101.8" y="25.5" text-anchor="middle" fill="#e0e0e0" font-family="Arial, sans-serif" font-size="13.1" font-weight="bold">60 Days</text>
    <line x1="14.5" y1="36.4" x2="189.1" y2="36.4" stroke="#3d3d3d" stroke-width="0.7"/>

    <!-- 100% Badge -->
    <circle cx="101.8" cy="94.5" r="40" fill="#3d3d3d"/>
    <circle cx="101.8" cy="94.5" r="36.4" fill="none" stroke="#556b2f" stroke-width="4.4" stroke-linecap="round"/>
    <text x="101.8" y="100.4" text-anchor="middle" fill="#556b2f" font-family="Arial, sans-serif" font-size="20.4" font-weight="bold">100%</text>
    <text x="101.8" y="116.4" text-anchor="middle" fill="#e0e0e0" font-family="Arial, sans-serif" font-size="8">Verified</text>

    <!-- Bar Chart -->
    <g transform="translate(29.1, 152.7)">
      <rect x="0" y="40" width="18.2" height="36.4" rx="2.2" fill="#556b2f" opacity="0.5"/>
      <rect x="25.5" y="25.5" width="18.2" height="50.9" rx="2.2" fill="#556b2f" opacity="0.65"/>
      <rect x="50.9" y="14.5" width="18.2" height="61.8" rx="2.2" fill="#556b2f" opacity="0.8"/>
      <rect x="76.4" y="7.3" width="18.2" height="69.1" rx="2.2" fill="#556b2f" opacity="0.9"/>
      <rect x="101.8" y="0" width="18.2" height="76.4" rx="2.2" fill="#556b2f"/>
      <rect x="127.3" y="3.6" width="18.2" height="72.7" rx="2.2" fill="#556b2f" opacity="0.95"/>
    </g>

    <!-- Checklist rows below chart -->
    <g transform="translate(18.2, 240)">
      <path d="M0 2.9 l3.6 3.6 l7.3-7.3" stroke="#556b2f" stroke-width="1.8" fill="none" stroke-linecap="round" stroke-linejoin="round"/>
      <rect x="18.2" y="0" width="130.9" height="5.8" rx="2.9" fill="#3d3d3d"/>
    </g>
    <g transform="translate(18.2, 261.8)">
      <path d="M0 2.9 l3.6 3.6 l7.3-7.3" stroke="#556b2f" stroke-width="1.8" fill="none" stroke-linecap="round" stroke-linejoin="round"/>
      <rect x="18.2" y="0" width="141.8" height="5.8" rx="2.9" fill="#3d3d3d"/>
    </g>
    <g transform="translate(18.2, 283.6)">
      <path d="M0 2.9 l3.6 3.6 l7.3-7.3" stroke="#556b2f" stroke-width="1.8" fill="none" stroke-linecap="round" stroke-linejoin="round"/>
      <rect x="18.2" y="0" width="120" height="5.8" rx="2.9" fill="#3d3d3d"/>
    </g>
  </g>

  <!-- Panel 3: 90 Days -->
  <g transform="translate(530.9, 80)">
    <rect width="203.6" height="305.5" rx="8.7" fill="#2d2d2d"/>
    <text x="101.8" y="25.5" text-anchor="middle" fill="#e0e0e0" font-family="Arial, sans-serif" font-size="13.1" font-weight="bold">90 Days</text>
    <line x1="14.5" y1="36.4" x2="189.1" y2="36.4" stroke="#3d3d3d" stroke-width="0.7"/>
    <!-- Checklist rows -->
    <g transform="translate(18.2, 50.9)">
      <path d="M0 2.9 l3.6 3.6 l7.3-7.3" stroke="#556b2f" stroke-width="1.8" fill="none" stroke-linecap="round" stroke-linejoin="round"/>
      <rect x="18.2" y="0" width="138.2" height="5.8" rx="2.9" fill="#3d3d3d"/>
    </g>
    <g transform="translate(18.2, 74.2)">
      <path d="M0 2.9 l3.6 3.6 l7.3-7.3" stroke="#556b2f" stroke-width="1.8" fill="none" stroke-linecap="round" stroke-linejoin="round"/>
      <rect x="18.2" y="0" width="152.7" height="5.8" rx="2.9" fill="#3d3d3d"/>
    </g>
    <g transform="translate(18.2, 97.5)">
      <path d="M0 2.9 l3.6 3.6 l7.3-7.3" stroke="#556b2f" stroke-width="1.8" fill="none" stroke-linecap="round" stroke-linejoin="round"/>
      <rect x="18.2" y="0" width="127.3" height="5.8" rx="2.9" fill="#3d3d3d"/>
    </g>
    <g transform="translate(18.2, 120.7)">
      <path d="M0 2.9 l3.6 3.6 l7.3-7.3" stroke="#556b2f" stroke-width="1.8" fill="none" stroke-linecap="round" stroke-linejoin="round"/>
      <rect x="18.2" y="0" width="145.5" height="5.8" rx="2.9" fill="#3d3d3d"/>
    </g>
    <g transform="translate(18.2, 144)">
      <path d="M0 2.9 l3.6 3.6 l7.3-7.3" stroke="#556b2f" stroke-width="1.8" fill="none" stroke-linecap="round" stroke-linejoin="round"/>
      <rect x="18.2" y="0" width="120" height="5.8" rx="2.9" fill="#3d3d3d"/>
    </g>
    <g transform="translate(18.2, 167.3)">
      <path d="M0 2.9 l3.6 3.6 l7.3-7.3" stroke="#556b2f" stroke-width="1.8" fill="none" stroke-linecap="round" stroke-linejoin="round"/>
      <rect x="18.2" y="0" width="141.8" height="5.8" rx="2.9" fill="#3d3d3d"/>
    </g>
    <g transform="translate(18.2, 190.5)">
      <path d="M0 2.9 l3.6 3.6 l7.3-7.3" stroke="#556b2f" stroke-width="1.8" fill="none" stroke-linecap="round" stroke-linejoin="round"/>
      <rect x="18.2" y="0" width="130.9" height="5.8" rx="2.9" fill="#3d3d3d"/>
    </g>
    <g transform="translate(18.2, 213.8)">
      <path d="M0 2.9 l3.6 3.6 l7.3-7.3" stroke="#556b2f" stroke-width="1.8" fill="none" stroke-linecap="round" stroke-linejoin="round"/>
      <rect x="18.2" y="0" width="156.4" height="5.8" rx="2.9" fill="#3d3d3d"/>
    </g>
    <g transform="translate(18.2, 237.1)">
      <path d="M0 2.9 l3.6 3.6 l7.3-7.3" stroke="#556b2f" stroke-width="1.8" fill="none" stroke-linecap="round" stroke-linejoin="round"/>
      <rect x="18.2" y="0" width="134.5" height="5.8" rx="2.9" fill="#3d3d3d"/>
    </g>
    <g transform="translate(18.2, 260.4)">
      <path d="M0 2.9 l3.6 3.6 l7.3-7.3" stroke="#556b2f" stroke-width="1.8" fill="none" stroke-linecap="round" stroke-linejoin="round"/>
      <rect x="18.2" y="0" width="145.5" height="5.8" rx="2.9" fill="#3d3d3d"/>
    </g>
  </g>
</svg>
