<svg xmlns="http://www.w3.org/2000/svg" width="390" height="600" viewBox="0 0 390 600" role="img" aria-label="Una mano estranea rossa gira una chiave rossa nella serratura di un vault buio che contiene i tuoi dati, aprendolo." font-family="Arial, 'Helvetica Neue', 'Segoe UI', sans-serif">
  <title>Una mano estranea rossa gira una chiave rossa nella serratura di un vault buio che contiene i tuoi dati, aprendolo.</title>

  <rect x="0" y="0" width="390" height="600" fill="#f5f5f5" />

  
  <text x="195" y="50" text-anchor="middle" font-family="Arial, 'Helvetica Neue', 'Segoe UI', sans-serif" font-size="26" font-weight="bold" fill="#1a1a1a">I tuoi dati</text>

  
  <rect x="100" y="68" width="190" height="170" rx="14" fill="#2d2d2d" stroke="#1a1a1a" stroke-width="4" />
  <rect x="118" y="86" width="154" height="134" rx="9" fill="#2d2d2d" stroke="#1a1a1a" stroke-width="3" />
  
  <circle cx="195" cy="138" r="26" fill="#1a1a1a" stroke="#f5f5f5" stroke-width="3" />
  <circle cx="195" cy="138" r="6" fill="#f5f5f5" />

  
  <rect x="166" y="190" width="58" height="64" rx="8" fill="#1a1a1a" stroke="#f5f5f5" stroke-width="3" />
  <circle cx="195" cy="214" r="11" fill="#f5f5f5" />
  <rect x="189" y="220" width="12" height="26" rx="3" fill="#f5f5f5" />

  
  <rect x="187" y="250" width="15" height="150" rx="3" fill="#8b0000" stroke="#1a1a1a" stroke-width="2.5" />
  
  <circle cx="194" cy="412" r="26" fill="#8b0000" stroke="#1a1a1a" stroke-width="4" />
  <circle cx="194" cy="412" r="10" fill="#f5f5f5" />

  
  
  <rect x="166" y="470" width="58" height="70" rx="26" fill="#8b0000" stroke="#1a1a1a" stroke-width="3" />
  
  <rect x="158" y="418" width="78" height="78" rx="20" fill="#8b0000" stroke="#1a1a1a" stroke-width="3" />
  
  <rect x="150" y="420" width="70" height="16" rx="8" fill="#8b0000" stroke="#1a1a1a" stroke-width="2.5" />
  <rect x="146" y="440" width="74" height="16" rx="8" fill="#8b0000" stroke="#1a1a1a" stroke-width="2.5" />
  <rect x="146" y="460" width="74" height="16" rx="8" fill="#8b0000" stroke="#1a1a1a" stroke-width="2.5" />
  <rect x="150" y="480" width="70" height="16" rx="8" fill="#8b0000" stroke="#1a1a1a" stroke-width="2.5" />
  
  <rect x="222" y="418" width="20" height="56" rx="10" fill="#8b0000" stroke="#1a1a1a" stroke-width="2.5" />

  
  <text x="300" y="330" text-anchor="middle" font-family="Arial, 'Helvetica Neue', 'Segoe UI', sans-serif" font-size="20" font-weight="bold" fill="#8b0000">La loro chiave</text>

  
  <text x="195" y="578" text-anchor="middle" font-family="Arial, 'Helvetica Neue', 'Segoe UI', sans-serif" font-size="24" font-weight="bold" fill="#1a1a1a">Possono aprirlo</text>
</svg>
