<svg xmlns="http://www.w3.org/2000/svg" width="800" height="450" viewBox="0 0 800 450" role="img" aria-label="A stranger's red hand turns a red key in the lock of a dark vault holding your data, opening it." font-family="'PingFang SC', 'Microsoft YaHei', 'Noto Sans CJK SC', sans-serif">
  <title>A stranger's red hand turns a red key in the lock of a dark vault holding your data, opening it.</title>

  <rect x="0" y="0" width="800" height="450" fill="#f5f5f5" />

  
  <text x="400" y="74" text-anchor="middle" font-family="'PingFang SC', 'Microsoft YaHei', 'Noto Sans CJK SC', sans-serif" font-size="34" font-weight="bold" fill="#1a1a1a">他们可以打开</text>

  
  <rect x="70" y="115" width="290" height="260" rx="16" fill="#2d2d2d" stroke="#1a1a1a" stroke-width="4" />
  <rect x="92" y="137" width="246" height="216" rx="10" fill="#2d2d2d" stroke="#1a1a1a" stroke-width="3" />
  
  <rect x="78" y="160" width="14" height="40" rx="4" fill="#1a1a1a" />
  <rect x="78" y="290" width="14" height="40" rx="4" fill="#1a1a1a" />
  
  <circle cx="178" cy="245" r="30" fill="#1a1a1a" stroke="#f5f5f5" stroke-width="3" />
  <circle cx="178" cy="245" r="6" fill="#f5f5f5" />
  <line x1="178" y1="215" x2="178" y2="227" stroke="#f5f5f5" stroke-width="3" />
  <line x1="178" y1="263" x2="178" y2="275" stroke="#f5f5f5" stroke-width="3" />

  
  <rect x="298" y="200" width="58" height="86" rx="8" fill="#1a1a1a" stroke="#f5f5f5" stroke-width="3" />
  <circle cx="327" cy="232" r="12" fill="#f5f5f5" />
  <rect x="321" y="238" width="12" height="30" rx="3" fill="#f5f5f5" />

  
  
  <rect x="340" y="232" width="220" height="15" rx="3" fill="#8b0000" stroke="#1a1a1a" stroke-width="2.5" />
  
  <circle cx="572" cy="239" r="26" fill="#8b0000" stroke="#1a1a1a" stroke-width="4" />
  <circle cx="572" cy="239" r="10" fill="#f5f5f5" />

  
  
  <rect x="650" y="210" width="120" height="58" rx="26" fill="#8b0000" stroke="#1a1a1a" stroke-width="3" />
  
  <rect x="598" y="200" width="78" height="78" rx="20" fill="#8b0000" stroke="#1a1a1a" stroke-width="3" />
  
  <rect x="548" y="206" width="16" height="70" rx="8" fill="#8b0000" stroke="#1a1a1a" stroke-width="2.5" />
  <rect x="568" y="202" width="16" height="74" rx="8" fill="#8b0000" stroke="#1a1a1a" stroke-width="2.5" />
  <rect x="588" y="202" width="16" height="74" rx="8" fill="#8b0000" stroke="#1a1a1a" stroke-width="2.5" />
  <rect x="608" y="206" width="16" height="70" rx="8" fill="#8b0000" stroke="#1a1a1a" stroke-width="2.5" />
  
  <rect x="546" y="250" width="56" height="20" rx="10" fill="#8b0000" stroke="#1a1a1a" stroke-width="2.5" />

  
  <text x="215" y="412" text-anchor="middle" font-family="'PingFang SC', 'Microsoft YaHei', 'Noto Sans CJK SC', sans-serif" font-size="32" font-weight="bold" fill="#1a1a1a">你的数据</text>
  <text x="560" y="335" text-anchor="middle" font-family="'PingFang SC', 'Microsoft YaHei', 'Noto Sans CJK SC', sans-serif" font-size="32" font-weight="bold" fill="#8b0000">他们的密钥</text>
</svg>
