<svg xmlns="http://www.w3.org/2000/svg" viewBox="0 0 800 450" width="800" height="450">
  <defs>
    <linearGradient id="serverGrad" x1="0%" y1="0%" x2="0%" y2="100%">
      <stop offset="0%" style="stop-color:#2d2d2d;stop-opacity:1" />
      <stop offset="100%" style="stop-color:#1a1a1a;stop-opacity:1" />
    </linearGradient>
    <filter id="shadow" x="-20%" y="-20%" width="140%" height="140%">
      <feDropShadow dx="0" dy="2" stdDeviation="3" flood-color="#000" flood-opacity="0.3"/>
    </filter>
  </defs>

  <!-- Background -->
  <rect width="800" height="450" fill="#f5f5f5"/>

  <!-- VS divider -->
  <line x1="400" y1="50" x2="400" y2="400" stroke="#e0e0e0" stroke-width="1" stroke-dasharray="6,4"/>

  <!-- LEFT: Waiting / Slow provisioning -->
  <!-- Large hourglass -->
  <g transform="translate(140, 70)">
    <!-- Hourglass frame -->
    <rect x="0" y="0" width="120" height="10" rx="3" fill="#1a1a1a"/>
    <rect x="0" y="230" width="120" height="10" rx="3" fill="#1a1a1a"/>
    <!-- Hourglass glass -->
    <path d="M15 10 L15 80 C15 100 60 120 60 120 C60 120 105 100 105 80 L105 10" fill="none" stroke="#e0e0e0" stroke-width="2.5"/>
    <path d="M15 240 L15 160 C15 140 60 120 60 120 C60 120 105 140 105 160 L105 240" fill="none" stroke="#e0e0e0" stroke-width="2.5"/>
    <!-- Sand top (mostly empty) -->
    <path d="M30 40 L30 65 C30 75 60 90 60 90 C60 90 90 75 90 65 L90 40 Z" fill="#e0e0e0" opacity="0.3"/>
    <!-- Sand bottom (filling) -->
    <path d="M30 200 L30 180 C30 165 60 150 60 150 C60 150 90 165 90 180 L90 200 Z" fill="#e0e0e0" opacity="0.6"/>
    <!-- Sand stream -->
    <line x1="60" y1="95" x2="60" y2="148" stroke="#e0e0e0" stroke-width="2"/>
  </g>

  <!-- Waiting developers (stick figures) -->
  <g transform="translate(60, 180)" opacity="0.5">
    <!-- Person 1 -->
    <circle cx="20" cy="10" r="8" fill="none" stroke="#1a1a1a" stroke-width="1.5"/>
    <line x1="20" y1="18" x2="20" y2="45" stroke="#1a1a1a" stroke-width="1.5"/>
    <line x1="20" y1="28" x2="8" y2="38" stroke="#1a1a1a" stroke-width="1.5"/>
    <line x1="20" y1="28" x2="32" y2="38" stroke="#1a1a1a" stroke-width="1.5"/>
    <line x1="20" y1="45" x2="12" y2="60" stroke="#1a1a1a" stroke-width="1.5"/>
    <line x1="20" y1="45" x2="28" y2="60" stroke="#1a1a1a" stroke-width="1.5"/>
    <!-- ... (waiting dots) -->
    <circle cx="40" cy="55" r="2" fill="#1a1a1a"/>
    <circle cx="48" cy="55" r="2" fill="#1a1a1a"/>
    <circle cx="56" cy="55" r="2" fill="#1a1a1a"/>
  </g>

  <g transform="translate(60, 270)" opacity="0.5">
    <!-- Person 2 -->
    <circle cx="20" cy="10" r="8" fill="none" stroke="#1a1a1a" stroke-width="1.5"/>
    <line x1="20" y1="18" x2="20" y2="45" stroke="#1a1a1a" stroke-width="1.5"/>
    <line x1="20" y1="28" x2="8" y2="38" stroke="#1a1a1a" stroke-width="1.5"/>
    <line x1="20" y1="28" x2="32" y2="38" stroke="#1a1a1a" stroke-width="1.5"/>
    <line x1="20" y1="45" x2="12" y2="60" stroke="#1a1a1a" stroke-width="1.5"/>
    <line x1="20" y1="45" x2="28" y2="60" stroke="#1a1a1a" stroke-width="1.5"/>
    <circle cx="40" cy="55" r="2" fill="#1a1a1a"/>
    <circle cx="48" cy="55" r="2" fill="#1a1a1a"/>
    <circle cx="56" cy="55" r="2" fill="#1a1a1a"/>
  </g>

  <text x="200" y="400" text-anchor="middle" font-family="Arial, sans-serif" font-size="12" fill="#999999">Waiting for Environment</text>

  <!-- RIGHT: Instant cloning -->
  <!-- Source server -->
  <g transform="translate(460, 100)" filter="url(#shadow)">
    <rect width="80" height="100" rx="6" fill="url(#serverGrad)"/>
    <rect x="0" y="0" width="80" height="6" rx="6" fill="#3d3d3d"/>
    <rect x="10" y="20" width="60" height="8" rx="2" fill="#1a1a1a"/>
    <rect x="10" y="36" width="60" height="8" rx="2" fill="#1a1a1a"/>
    <rect x="10" y="52" width="60" height="8" rx="2" fill="#1a1a1a"/>
    <circle cx="16" cy="24" r="2" fill="#556b2f"/>
    <circle cx="16" cy="40" r="2" fill="#556b2f"/>
    <circle cx="16" cy="56" r="2" fill="#556b2f"/>
    <rect x="10" y="72" width="12" height="6" rx="1" fill="#3d3d3d"/>
    <rect x="28" y="72" width="12" height="6" rx="1" fill="#3d3d3d"/>
    <rect x="46" y="72" width="12" height="6" rx="1" fill="#3d3d3d"/>
  </g>

  <!-- Lightning bolt (instant) -->
  <g transform="translate(555, 120)">
    <polygon points="20,0 8,24 18,24 12,48 32,18 22,18 28,0" fill="#556b2f"/>
  </g>

  <!-- Clone 1 -->
  <g transform="translate(600, 70)" filter="url(#shadow)">
    <rect width="80" height="100" rx="6" fill="url(#serverGrad)"/>
    <rect x="0" y="0" width="80" height="6" rx="6" fill="#3d3d3d"/>
    <rect x="10" y="20" width="60" height="8" rx="2" fill="#1a1a1a"/>
    <rect x="10" y="36" width="60" height="8" rx="2" fill="#1a1a1a"/>
    <rect x="10" y="52" width="60" height="8" rx="2" fill="#1a1a1a"/>
    <circle cx="16" cy="24" r="2" fill="#556b2f"/>
    <circle cx="16" cy="40" r="2" fill="#556b2f"/>
    <circle cx="16" cy="56" r="2" fill="#556b2f"/>
    <rect x="10" y="72" width="12" height="6" rx="1" fill="#3d3d3d"/>
    <rect x="28" y="72" width="12" height="6" rx="1" fill="#3d3d3d"/>
    <rect x="46" y="72" width="12" height="6" rx="1" fill="#3d3d3d"/>
  </g>

  <!-- Clone 2 -->
  <g transform="translate(700, 120)" filter="url(#shadow)">
    <rect width="80" height="100" rx="6" fill="url(#serverGrad)"/>
    <rect x="0" y="0" width="80" height="6" rx="6" fill="#3d3d3d"/>
    <rect x="10" y="20" width="60" height="8" rx="2" fill="#1a1a1a"/>
    <rect x="10" y="36" width="60" height="8" rx="2" fill="#1a1a1a"/>
    <rect x="10" y="52" width="60" height="8" rx="2" fill="#1a1a1a"/>
    <circle cx="16" cy="24" r="2" fill="#556b2f"/>
    <circle cx="16" cy="40" r="2" fill="#556b2f"/>
    <circle cx="16" cy="56" r="2" fill="#556b2f"/>
    <rect x="10" y="72" width="12" height="6" rx="1" fill="#3d3d3d"/>
    <rect x="28" y="72" width="12" height="6" rx="1" fill="#3d3d3d"/>
    <rect x="46" y="72" width="12" height="6" rx="1" fill="#3d3d3d"/>
  </g>

  <!-- Clone arrows -->
  <line x1="540" y1="130" x2="595" y2="110" stroke="#556b2f" stroke-width="2"/>
  <polygon points="598,109 590,106 592,114" fill="#556b2f"/>
  <line x1="555" y1="160" x2="695" y2="160" stroke="#556b2f" stroke-width="2"/>
  <polygon points="698,160 690,154 690,166" fill="#556b2f"/>

  <!-- Clone 3 -->
  <g transform="translate(600, 240)" filter="url(#shadow)">
    <rect width="80" height="100" rx="6" fill="url(#serverGrad)"/>
    <rect x="0" y="0" width="80" height="6" rx="6" fill="#3d3d3d"/>
    <rect x="10" y="20" width="60" height="8" rx="2" fill="#1a1a1a"/>
    <rect x="10" y="36" width="60" height="8" rx="2" fill="#1a1a1a"/>
    <rect x="10" y="52" width="60" height="8" rx="2" fill="#1a1a1a"/>
    <circle cx="16" cy="24" r="2" fill="#556b2f"/>
    <circle cx="16" cy="40" r="2" fill="#556b2f"/>
    <circle cx="16" cy="56" r="2" fill="#556b2f"/>
    <rect x="10" y="72" width="12" height="6" rx="1" fill="#3d3d3d"/>
    <rect x="28" y="72" width="12" height="6" rx="1" fill="#3d3d3d"/>
    <rect x="46" y="72" width="12" height="6" rx="1" fill="#3d3d3d"/>
  </g>
  <line x1="540" y1="180" x2="595" y2="270" stroke="#556b2f" stroke-width="2"/>
  <polygon points="597,273 592,264 600,266" fill="#556b2f"/>

  <text x="600" y="400" text-anchor="middle" font-family="Arial, sans-serif" font-size="12" fill="#556b2f">Instant Clones</text>

  <!-- Decorative elements -->
  <circle cx="80" cy="420" r="30" fill="#e0e0e0" opacity="0.3"/>
  <circle cx="400" cy="440" r="22" fill="#556b2f" opacity="0.1"/>
</svg>
