<svg xmlns="http://www.w3.org/2000/svg" width="390" height="600" viewBox="0 0 390 600" role="img" aria-label="A clock reading 3 AM above an untested recovery plan with a red question mark, above a crashed red server." font-family="'Segoe UI', Tahoma, 'Geeza Pro', 'Noto Naskh Arabic', sans-serif" direction="rtl">
  <title>A clock reading 3 AM above an untested recovery plan with a red question mark, above a crashed red server.</title>
  <rect x="0" y="0" width="390" height="600" fill="#f5f5f5" />

  
  <circle cx="195" cy="80" r="52" fill="#8b0000" stroke="#1a1a1a" stroke-width="3" />
  <line x1="195" y1="80" x2="233" y2="80" stroke="#f5f5f5" stroke-width="6" stroke-linecap="round" />
  <line x1="195" y1="80" x2="195" y2="42" stroke="#f5f5f5" stroke-width="6" stroke-linecap="round" />
  <circle cx="195" cy="80" r="6" fill="#f5f5f5" />
  <text x="195" y="162" text-anchor="middle" font-family="'Segoe UI', Tahoma, 'Geeza Pro', 'Noto Naskh Arabic', sans-serif" font-size="24" font-weight="bold" fill="#8b0000" direction="rtl">٣ صباحًا</text>

  
  <text x="195" y="192" text-anchor="middle" font-family="'Segoe UI', Tahoma, 'Geeza Pro', 'Noto Naskh Arabic', sans-serif" font-size="22" font-weight="bold" fill="#1a1a1a" direction="rtl">خطة الاسترداد</text>

  <rect x="100" y="205" width="190" height="160" rx="6" fill="#2d2d2d" stroke="#1a1a1a" stroke-width="3" />
  <rect x="120" y="226" width="110" height="9" rx="4" fill="#f5f5f5" />
  <rect x="120" y="245" width="86" height="9" rx="4" fill="#f5f5f5" />

  <path d="M 162 250 C 162 218, 232 218, 232 258 C 232 288, 197 288, 197 318" fill="none" stroke="#8b0000" stroke-width="16" stroke-linecap="round" />
  <circle cx="197" cy="345" r="9" fill="#8b0000" />

  <text x="195" y="395" text-anchor="middle" font-family="'Segoe UI', Tahoma, 'Geeza Pro', 'Noto Naskh Arabic', sans-serif" font-size="22" font-weight="bold" fill="#8b0000" direction="rtl">لم يُختبر</text>

  
  <g transform="rotate(-14 195 475)">
    <rect x="115" y="425" width="160" height="100" rx="6" fill="#8b0000" stroke="#1a1a1a" stroke-width="3" />
    <rect x="133" y="445" width="124" height="14" rx="3" fill="#1a1a1a" />
    <rect x="133" y="471" width="124" height="14" rx="3" fill="#1a1a1a" />
    <rect x="133" y="497" width="124" height="14" rx="3" fill="#1a1a1a" />
  </g>

  <text x="195" y="578" text-anchor="middle" font-family="'Segoe UI', Tahoma, 'Geeza Pro', 'Noto Naskh Arabic', sans-serif" font-size="22" font-weight="bold" fill="#1a1a1a" direction="rtl">الخادم معطّل</text>
</svg>
