<svg xmlns="http://www.w3.org/2000/svg" viewBox="0 0 390 600" width="100%" height="auto" role="img" aria-label="Krahhitud punane server taastub minutitega täielikuks roheliseks töötavaks keskkonnaks: server, seaded ja andmed." font-family="Arial, 'Helvetica Neue', 'Segoe UI', sans-serif">
  <title>Krahhitud punane server taastub minutitega täielikuks roheliseks töötavaks keskkonnaks: server, seaded ja andmed.</title>

  <rect x="0" y="0" width="390" height="600" fill="#f5f5f5" />

  
  <g>
    <rect x="135" y="30" width="120" height="130" rx="10" fill="#8b0000" stroke="#1a1a1a" stroke-width="3" />
    <polyline points="200,30 185,75 210,105 188,160" fill="none" stroke="#1a1a1a" stroke-width="4" />
    <line x1="150" y1="58" x2="240" y2="58" stroke="#1a1a1a" stroke-width="3" />
    <line x1="150" y1="132" x2="240" y2="132" stroke="#1a1a1a" stroke-width="3" />
    <text x="195" y="195" text-anchor="middle" font-family="Arial, 'Helvetica Neue', 'Segoe UI', sans-serif" font-size="26" font-weight="bold" fill="#1a1a1a">Server krahhis</text>
  </g>

  
  <g>
    <polygon points="95,225 130,225 130,300 155,300 112,345 70,300 95,300" fill="#4a7c3f" stroke="#2d5227" stroke-width="3" />
  </g>
  <g>
    <circle cx="245" cy="255" r="32" fill="#2d2d2d" stroke="#1a1a1a" stroke-width="3" />
    <line x1="245" y1="255" x2="245" y2="233" stroke="#f5f5f5" stroke-width="4" />
    <line x1="245" y1="255" x2="263" y2="263" stroke="#f5f5f5" stroke-width="4" />
    <text x="245" y="320" text-anchor="middle" font-family="Arial, 'Helvetica Neue', 'Segoe UI', sans-serif" font-size="22" font-weight="bold" fill="#1a1a1a">Minutitega tagasi</text>
  </g>

  
  <g>
    <rect x="95" y="375" width="200" height="50" rx="8" fill="#4a7c3f" stroke="#2d5227" stroke-width="3" />
    <rect x="95" y="435" width="200" height="50" rx="8" fill="#556b2f" stroke="#2d5227" stroke-width="3" />
    <rect x="95" y="495" width="200" height="50" rx="8" fill="#2d5227" stroke="#1a1a1a" stroke-width="3" />
    <polyline points="115,400 127,412 147,388" fill="none" stroke="#f5f5f5" stroke-width="4" />
    <polyline points="115,460 127,472 147,448" fill="none" stroke="#f5f5f5" stroke-width="4" />
    <polyline points="115,520 127,532 147,508" fill="none" stroke="#f5f5f5" stroke-width="4" />
    <text x="195" y="580" text-anchor="middle" font-family="Arial, 'Helvetica Neue', 'Segoe UI', sans-serif" font-size="22" font-weight="bold" fill="#1a1a1a">Server, seaded, andmed</text>
  </g>
</svg>
