<svg xmlns="http://www.w3.org/2000/svg" width="390" height="600" viewBox="0 0 390 600" role="img" aria-label="Pushing a small code block creates a large green ready-to-test copy of the live system with real data rows and a green check mark." font-family="'Hiragino Sans', 'Yu Gothic', 'Meiryo', 'Noto Sans CJK JP', sans-serif">
  <title>Pushing a small code block creates a large green ready-to-test copy of the live system with real data rows and a green check mark.</title>

  <rect x="0" y="0" width="390" height="600" fill="#f5f5f5" />

  
  <rect x="40" y="60" width="150" height="100" rx="10" fill="#2d2d2d" />
  <rect x="58" y="82" width="100" height="11" rx="3" fill="#f5f5f5" />
  <rect x="58" y="106" width="114" height="11" rx="3" fill="#f5f5f5" />
  <rect x="58" y="130" width="80" height="11" rx="3" fill="#f5f5f5" />
  <text x="205" y="118" text-anchor="start" font-family="'Hiragino Sans', 'Yu Gothic', 'Meiryo', 'Noto Sans CJK JP', sans-serif" font-size="20" font-weight="bold" fill="#1a1a1a">コードをプッシュ</text>

  
  <rect x="103" y="172" width="24" height="52" fill="#2d2d2d" />
  <polygon points="85,222 115,254 145,222" fill="#2d2d2d" />

  
  <text x="195" y="288" text-anchor="middle" font-family="'Hiragino Sans', 'Yu Gothic', 'Meiryo', 'Noto Sans CJK JP', sans-serif" font-size="20" font-weight="bold" fill="#1a1a1a">本番コピー完了</text>
  <rect x="40" y="300" width="310" height="270" rx="16" fill="#2d5227" />

  
  <rect x="80" y="360" width="220" height="22" rx="5" fill="#f5f5f5" />
  <rect x="80" y="396" width="180" height="22" rx="5" fill="#f5f5f5" />
  <rect x="80" y="432" width="210" height="22" rx="5" fill="#f5f5f5" />

  
  <circle cx="70" cy="300" r="30" fill="#4a7c3f" stroke="#f5f5f5" stroke-width="3" />
  <polyline points="57,300 67,311 85,286" fill="none" stroke="#f5f5f5" stroke-width="5" stroke-linecap="round" stroke-linejoin="round" />

  
  <text x="195" y="498" text-anchor="middle" font-family="'Hiragino Sans', 'Yu Gothic', 'Meiryo', 'Noto Sans CJK JP', sans-serif" font-size="20" fill="#f5f5f5">本物のデータ</text>
  <text x="195" y="540" text-anchor="middle" font-family="'Hiragino Sans', 'Yu Gothic', 'Meiryo', 'Noto Sans CJK JP', sans-serif" font-size="20" font-weight="bold" fill="#f5f5f5">スクリプト不要</text>
</svg>
