<svg xmlns="http://www.w3.org/2000/svg" viewBox="0 0 800 450" width="800" height="450">
  <defs>
    <linearGradient id="serverGrad" x1="0%" y1="0%" x2="0%" y2="100%">
      <stop offset="0%" style="stop-color:#2d2d2d;stop-opacity:1" />
      <stop offset="100%" style="stop-color:#1a1a1a;stop-opacity:1" />
    </linearGradient>
    <filter id="shadow" x="-20%" y="-20%" width="140%" height="140%">
      <feDropShadow dx="0" dy="2" stdDeviation="3" flood-color="#000" flood-opacity="0.3"/>
    </filter>
  </defs>

  <!-- Background -->
  <rect width="800" height="450" fill="#f5f5f5"/>

  <!-- Left side: AI attacker (fast) -->
  <g transform="translate(50, 60)">
    <text x="150" y="0" text-anchor="middle" fill="#1a1a1a" font-size="14" font-family="sans-serif" font-weight="bold">AI ATTACKER</text>

    <!-- AI brain icon -->
    <circle cx="150" cy="50" r="35" fill="none" stroke="#1a1a1a" stroke-width="2"/>
    <circle cx="140" cy="40" r="5" fill="none" stroke="#1a1a1a" stroke-width="1.5"/>
    <circle cx="160" cy="40" r="5" fill="none" stroke="#1a1a1a" stroke-width="1.5"/>
    <circle cx="150" cy="60" r="5" fill="none" stroke="#1a1a1a" stroke-width="1.5"/>
    <line x1="140" y1="45" x2="150" y2="55" stroke="#1a1a1a" stroke-width="1"/>
    <line x1="160" y1="45" x2="150" y2="55" stroke="#1a1a1a" stroke-width="1"/>
    <line x1="140" y1="40" x2="160" y2="40" stroke="#1a1a1a" stroke-width="1"/>

    <!-- Speed lines (attack rays) -->
    <line x1="190" y1="30" x2="280" y2="30" stroke="#1a1a1a" stroke-width="2" opacity="0.7"/>
    <line x1="190" y1="50" x2="290" y2="50" stroke="#1a1a1a" stroke-width="2.5" opacity="0.8"/>
    <line x1="190" y1="70" x2="280" y2="70" stroke="#1a1a1a" stroke-width="2" opacity="0.7"/>
    <line x1="200" y1="90" x2="270" y2="90" stroke="#1a1a1a" stroke-width="1.5" opacity="0.5"/>
    <line x1="200" y1="10" x2="270" y2="10" stroke="#1a1a1a" stroke-width="1.5" opacity="0.5"/>

    <!-- Timer -->
    <text x="150" y="110" text-anchor="middle" fill="#1a1a1a" font-size="24" font-family="sans-serif" font-weight="bold">5 days</text>
    <text x="150" y="130" text-anchor="middle" fill="#666" font-size="11" font-family="sans-serif">time-to-exploit</text>

    <!-- Target server being attacked -->
    <g transform="translate(280, 5)">
      <rect x="0" y="0" width="80" height="90" rx="6" fill="url(#serverGrad)" filter="url(#shadow)"/>
      <rect x="0" y="0" width="80" height="5" rx="5" fill="#3d3d3d"/>
      <rect x="10" y="18" width="60" height="8" rx="1" fill="#1a1a1a"/>
      <rect x="10" y="32" width="60" height="8" rx="1" fill="#1a1a1a"/>
      <rect x="10" y="46" width="60" height="8" rx="1" fill="#1a1a1a"/>
      <circle cx="18" cy="22" r="2" fill="#cc3333" opacity="0.8"/>
      <circle cx="18" cy="36" r="2" fill="#cc3333" opacity="0.8"/>
      <circle cx="18" cy="50" r="2" fill="#cc3333" opacity="0.8"/>
      <!-- Breach indicator -->
      <text x="40" y="75" text-anchor="middle" fill="#cc3333" font-size="9" font-family="sans-serif" font-weight="bold">BREACHED</text>
    </g>
  </g>

  <!-- VS divider -->
  <line x1="400" y1="40" x2="400" y2="410" stroke="#e0e0e0" stroke-width="2" stroke-dasharray="8,4"/>
  <circle cx="400" cy="225" r="20" fill="#f5f5f5" stroke="#e0e0e0" stroke-width="2"/>
  <text x="400" y="230" text-anchor="middle" fill="#666" font-size="12" font-family="sans-serif" font-weight="bold">VS</text>

  <!-- Right side: Clone-based testing (matching speed) -->
  <g transform="translate(450, 60)">
    <text x="150" y="0" text-anchor="middle" fill="#556b2f" font-size="14" font-family="sans-serif" font-weight="bold">CLONE-BASED TESTING</text>

    <!-- Clone server -->
    <g transform="translate(30, 15)">
      <rect x="0" y="0" width="80" height="90" rx="6" fill="url(#serverGrad)" filter="url(#shadow)"/>
      <rect x="0" y="0" width="80" height="5" rx="5" fill="#3d3d3d"/>
      <rect x="10" y="18" width="60" height="8" rx="1" fill="#1a1a1a"/>
      <rect x="10" y="32" width="60" height="8" rx="1" fill="#1a1a1a"/>
      <rect x="10" y="46" width="60" height="8" rx="1" fill="#1a1a1a"/>
      <circle cx="18" cy="22" r="2" fill="#556b2f"/>
      <circle cx="18" cy="36" r="2" fill="#556b2f"/>
      <circle cx="18" cy="50" r="2" fill="#556b2f"/>
      <rect x="-2" y="-2" width="84" height="94" rx="8" fill="none" stroke="#556b2f" stroke-width="1.5" stroke-dasharray="4,3"/>
    </g>

    <!-- Shield scan arrow -->
    <g transform="translate(130, 30)">
      <line x1="0" y1="30" x2="40" y2="30" stroke="#556b2f" stroke-width="2"/>
      <polygon points="40,24 55,30 40,36" fill="#556b2f"/>
    </g>

    <!-- Shield with checkmark -->
    <g transform="translate(190, 15)">
      <path d="M35 0 L65 12 L65 35 C65 55 35 70 35 70 C35 70 5 55 5 35 L5 12 Z" fill="#556b2f" stroke="#3d3d3d" stroke-width="1.5"/>
      <path d="M35 8 L58 18 L58 34 C58 50 35 62 35 62 C35 62 12 50 12 34 L12 18 Z" fill="#f5f5f5"/>
      <polyline points="20,30 30,42 50,20" fill="none" stroke="#556b2f" stroke-width="3" stroke-linecap="round" stroke-linejoin="round"/>
    </g>

    <!-- Timer -->
    <text x="150" y="110" text-anchor="middle" fill="#556b2f" font-size="24" font-family="sans-serif" font-weight="bold">Seconds</text>
    <text x="150" y="130" text-anchor="middle" fill="#666" font-size="11" font-family="sans-serif">clone-to-test</text>
  </g>

  <!-- Bottom: Timeline comparison -->
  <g transform="translate(50, 250)">
    <!-- Old timeline -->
    <text x="0" y="0" fill="#1a1a1a" font-size="12" font-family="sans-serif" font-weight="bold">BEFORE: Manual Testing</text>
    <rect x="0" y="10" width="300" height="20" rx="4" fill="#e0e0e0"/>
    <rect x="0" y="10" width="280" height="20" rx="4" fill="#1a1a1a" opacity="0.3"/>
    <text x="140" y="25" text-anchor="middle" fill="#1a1a1a" font-size="10" font-family="sans-serif">32 days average</text>
    <text x="310" y="25" fill="#cc3333" font-size="10" font-family="sans-serif">Too slow</text>
  </g>

  <g transform="translate(50, 310)">
    <!-- New timeline -->
    <text x="0" y="0" fill="#556b2f" font-size="12" font-family="sans-serif" font-weight="bold">AFTER: Clone-Based AI Testing</text>
    <rect x="0" y="10" width="300" height="20" rx="4" fill="#e0e0e0"/>
    <rect x="0" y="10" width="30" height="20" rx="4" fill="#556b2f" opacity="0.6"/>
    <text x="15" y="25" text-anchor="middle" fill="#fff" font-size="10" font-family="sans-serif">&#60;1h</text>
    <text x="310" y="25" fill="#556b2f" font-size="10" font-family="sans-serif">Matches AI speed</text>
  </g>

  <!-- Bottom stats -->
  <g transform="translate(450, 260)">
    <rect x="0" y="0" width="280" height="100" rx="8" fill="#fff" stroke="#e0e0e0" stroke-width="1" filter="url(#shadow)"/>
    <text x="140" y="25" text-anchor="middle" fill="#1a1a1a" font-size="12" font-family="sans-serif" font-weight="bold">Why Speed Matters</text>
    <line x1="20" y1="35" x2="260" y2="35" stroke="#e0e0e0" stroke-width="1"/>
    <text x="20" y="55" fill="#666" font-size="11" font-family="sans-serif">&#8226; 51s breakout time recorded</text>
    <text x="20" y="72" fill="#666" font-size="11" font-family="sans-serif">&#8226; 1000s requests/sec by AI</text>
    <text x="20" y="89" fill="#666" font-size="11" font-family="sans-serif">&#8226; 97% consider AI pentesting</text>
  </g>

  <!-- Decorative -->
  <circle cx="400" cy="420" r="25" fill="#556b2f" opacity="0.08"/>
  <circle cx="750" cy="420" r="35" fill="#e0e0e0" opacity="0.2"/>
</svg>
