<svg xmlns="http://www.w3.org/2000/svg" viewBox="0 0 800 450" width="800" height="450">
  <defs>
    <linearGradient id="serverGrad" x1="0%" y1="0%" x2="0%" y2="100%">
      <stop offset="0%" style="stop-color:#2d2d2d;stop-opacity:1" />
      <stop offset="100%" style="stop-color:#1a1a1a;stop-opacity:1" />
    </linearGradient>
    <filter id="shadow" x="-20%" y="-20%" width="140%" height="140%">
      <feDropShadow dx="0" dy="2" stdDeviation="3" flood-color="#000" flood-opacity="0.3"/>
    </filter>
  </defs>

  <!-- Background -->
  <rect width="800" height="450" fill="#f5f5f5"/>

  <!-- VS divider -->
  <line x1="400" y1="50" x2="400" y2="400" stroke="#e0e0e0" stroke-width="1" stroke-dasharray="6,4"/>

  <!-- LEFT: Drifted environments (mismatched) -->
  <!-- Production server -->
  <g transform="translate(60, 80)" filter="url(#shadow)">
    <rect width="120" height="150" rx="8" fill="url(#serverGrad)"/>
    <rect x="0" y="0" width="120" height="8" rx="8" fill="#3d3d3d"/>
    <rect x="15" y="25" width="90" height="10" rx="2" fill="#1a1a1a"/>
    <rect x="15" y="42" width="90" height="10" rx="2" fill="#1a1a1a"/>
    <rect x="15" y="59" width="90" height="10" rx="2" fill="#1a1a1a"/>
    <circle cx="25" cy="30" r="3" fill="#556b2f"/>
    <circle cx="25" cy="47" r="3" fill="#556b2f"/>
    <circle cx="25" cy="64" r="3" fill="#556b2f"/>
    <!-- Config bars (specific pattern) -->
    <rect x="15" y="80" width="60" height="6" rx="2" fill="#556b2f" opacity="0.4"/>
    <rect x="15" y="92" width="45" height="6" rx="2" fill="#556b2f" opacity="0.3"/>
    <rect x="15" y="104" width="70" height="6" rx="2" fill="#556b2f" opacity="0.4"/>
    <rect x="15" y="116" width="55" height="6" rx="2" fill="#556b2f" opacity="0.3"/>
    <rect x="15" y="128" width="40" height="6" rx="2" fill="#556b2f" opacity="0.4"/>
  </g>
  <text x="120" y="252" text-anchor="middle" font-family="Arial, sans-serif" font-size="11" fill="#3d3d3d">Production</text>

  <!-- Not-equal sign -->
  <g transform="translate(200, 140)">
    <text x="20" y="30" text-anchor="middle" font-family="Arial, sans-serif" font-size="36" fill="#1a1a1a" font-weight="bold">≠</text>
  </g>

  <!-- Staging server (drifted - different config) -->
  <g transform="translate(260, 80)" filter="url(#shadow)">
    <rect width="120" height="150" rx="8" fill="url(#serverGrad)"/>
    <rect x="0" y="0" width="120" height="8" rx="8" fill="#3d3d3d"/>
    <rect x="15" y="25" width="90" height="10" rx="2" fill="#1a1a1a"/>
    <rect x="15" y="42" width="90" height="10" rx="2" fill="#1a1a1a"/>
    <rect x="15" y="59" width="90" height="10" rx="2" fill="#1a1a1a"/>
    <circle cx="25" cy="30" r="3" fill="#556b2f" opacity="0.3"/>
    <circle cx="25" cy="47" r="3" fill="#556b2f" opacity="0.5"/>
    <circle cx="25" cy="64" r="3" fill="#556b2f" opacity="0.3"/>
    <!-- Config bars (different pattern - drifted) -->
    <rect x="15" y="80" width="40" height="6" rx="2" fill="#e0e0e0" opacity="0.5"/>
    <rect x="15" y="92" width="70" height="6" rx="2" fill="#e0e0e0" opacity="0.4"/>
    <rect x="15" y="104" width="30" height="6" rx="2" fill="#e0e0e0" opacity="0.5"/>
    <rect x="15" y="116" width="80" height="6" rx="2" fill="#e0e0e0" opacity="0.4"/>
    <rect x="15" y="128" width="50" height="6" rx="2" fill="#e0e0e0" opacity="0.3"/>
  </g>
  <text x="320" y="252" text-anchor="middle" font-family="Arial, sans-serif" font-size="11" fill="#3d3d3d">Staging</text>

  <!-- Warning on left -->
  <g transform="translate(200, 265)">
    <polygon points="20,0 40,35 0,35" fill="#e0e0e0" stroke="#1a1a1a" stroke-width="1.5"/>
    <polygon points="20,5 36,32 4,32" fill="#f5f5f5"/>
    <line x1="20" y1="12" x2="20" y2="22" stroke="#1a1a1a" stroke-width="2.5" stroke-linecap="round"/>
    <circle cx="20" cy="27" r="2" fill="#1a1a1a"/>
  </g>
  <text x="220" y="320" text-anchor="middle" font-family="Arial, sans-serif" font-size="12" fill="#999999">Environments Drifted</text>

  <!-- RIGHT: Identical environments (synced) -->
  <!-- Production server -->
  <g transform="translate(460, 80)" filter="url(#shadow)">
    <rect width="120" height="150" rx="8" fill="url(#serverGrad)"/>
    <rect x="0" y="0" width="120" height="8" rx="8" fill="#3d3d3d"/>
    <rect x="15" y="25" width="90" height="10" rx="2" fill="#1a1a1a"/>
    <rect x="15" y="42" width="90" height="10" rx="2" fill="#1a1a1a"/>
    <rect x="15" y="59" width="90" height="10" rx="2" fill="#1a1a1a"/>
    <circle cx="25" cy="30" r="3" fill="#556b2f"/>
    <circle cx="25" cy="47" r="3" fill="#556b2f"/>
    <circle cx="25" cy="64" r="3" fill="#556b2f"/>
    <rect x="15" y="80" width="60" height="6" rx="2" fill="#556b2f" opacity="0.4"/>
    <rect x="15" y="92" width="45" height="6" rx="2" fill="#556b2f" opacity="0.3"/>
    <rect x="15" y="104" width="70" height="6" rx="2" fill="#556b2f" opacity="0.4"/>
    <rect x="15" y="116" width="55" height="6" rx="2" fill="#556b2f" opacity="0.3"/>
    <rect x="15" y="128" width="40" height="6" rx="2" fill="#556b2f" opacity="0.4"/>
  </g>
  <text x="520" y="252" text-anchor="middle" font-family="Arial, sans-serif" font-size="11" fill="#3d3d3d">Production</text>

  <!-- Equals sign -->
  <g transform="translate(600, 140)">
    <text x="20" y="30" text-anchor="middle" font-family="Arial, sans-serif" font-size="36" fill="#556b2f" font-weight="bold">=</text>
  </g>

  <!-- Staging server (identical) -->
  <g transform="translate(660, 80)" filter="url(#shadow)">
    <rect width="120" height="150" rx="8" fill="url(#serverGrad)"/>
    <rect x="0" y="0" width="120" height="8" rx="8" fill="#3d3d3d"/>
    <rect x="15" y="25" width="90" height="10" rx="2" fill="#1a1a1a"/>
    <rect x="15" y="42" width="90" height="10" rx="2" fill="#1a1a1a"/>
    <rect x="15" y="59" width="90" height="10" rx="2" fill="#1a1a1a"/>
    <circle cx="25" cy="30" r="3" fill="#556b2f"/>
    <circle cx="25" cy="47" r="3" fill="#556b2f"/>
    <circle cx="25" cy="64" r="3" fill="#556b2f"/>
    <rect x="15" y="80" width="60" height="6" rx="2" fill="#556b2f" opacity="0.4"/>
    <rect x="15" y="92" width="45" height="6" rx="2" fill="#556b2f" opacity="0.3"/>
    <rect x="15" y="104" width="70" height="6" rx="2" fill="#556b2f" opacity="0.4"/>
    <rect x="15" y="116" width="55" height="6" rx="2" fill="#556b2f" opacity="0.3"/>
    <rect x="15" y="128" width="40" height="6" rx="2" fill="#556b2f" opacity="0.4"/>
  </g>
  <text x="720" y="252" text-anchor="middle" font-family="Arial, sans-serif" font-size="11" fill="#3d3d3d">Staging</text>

  <!-- Sync checkmark -->
  <g transform="translate(600, 265)">
    <circle cx="20" cy="20" r="18" fill="#556b2f"/>
    <polyline points="10,20 17,27 30,13" fill="none" stroke="#f5f5f5" stroke-width="3" stroke-linecap="round" stroke-linejoin="round"/>
  </g>
  <text x="620" y="320" text-anchor="middle" font-family="Arial, sans-serif" font-size="12" fill="#556b2f">Environments Synced</text>

  <!-- Decorative elements -->
  <circle cx="80" cy="400" r="35" fill="#e0e0e0" opacity="0.3"/>
  <circle cx="720" cy="410" r="50" fill="#e0e0e0" opacity="0.2"/>
  <circle cx="400" cy="430" r="25" fill="#556b2f" opacity="0.1"/>
</svg>
