<svg xmlns="http://www.w3.org/2000/svg" viewBox="0 0 390 600" width="390" height="600" role="img" aria-label="Two identical green boxes joined by a green check mark, showing the test setup is an exact copy of what real users use." font-family="'PingFang SC', 'Microsoft YaHei', 'Noto Sans CJK SC', sans-serif">
  <title>Two identical green boxes joined by a green check mark, showing the test setup is an exact copy of what real users use.</title>
  <rect x="0" y="0" width="390" height="600" fill="#f5f5f5" />

  
  <text x="195" y="48" text-anchor="middle" font-family="'PingFang SC', 'Microsoft YaHei', 'Noto Sans CJK SC', sans-serif" font-size="24" font-weight="bold" fill="#1a1a1a">测试环境</text>
  <rect x="95" y="68" width="200" height="120" rx="14" fill="#4a7c3f" stroke="#2d5227" stroke-width="4" />
  <rect x="119" y="96" width="152" height="16" rx="6" fill="#f5f5f5" />
  <rect x="119" y="126" width="152" height="16" rx="6" fill="#f5f5f5" />
  <rect x="119" y="156" width="96" height="16" rx="6" fill="#f5f5f5" />

  
  <circle cx="195" cy="300" r="60" fill="#2d5227" />
  <path d="M165 301 L188 325 L228 275" fill="none" stroke="#f5f5f5" stroke-width="11" stroke-linecap="round" stroke-linejoin="round" />
  <text x="195" y="392" text-anchor="middle" font-family="'PingFang SC', 'Microsoft YaHei', 'Noto Sans CJK SC', sans-serif" font-size="24" font-weight="bold" fill="#2d5227">精确副本</text>

  
  <rect x="95" y="418" width="200" height="120" rx="14" fill="#4a7c3f" stroke="#2d5227" stroke-width="4" />
  <rect x="119" y="446" width="152" height="16" rx="6" fill="#f5f5f5" />
  <rect x="119" y="476" width="152" height="16" rx="6" fill="#f5f5f5" />
  <rect x="119" y="506" width="96" height="16" rx="6" fill="#f5f5f5" />
  <text x="195" y="566" text-anchor="middle" font-family="'PingFang SC', 'Microsoft YaHei', 'Noto Sans CJK SC', sans-serif" font-size="22" font-weight="bold" fill="#1a1a1a">真实用户使用</text>
</svg>
