<svg xmlns="http://www.w3.org/2000/svg" viewBox="0 0 800 450" width="800" height="450" role="img" aria-label="Ein gesperrter Server, ein Kalender mit 24 durchgestrichenen Tagen, ablaufendes Geld und ein Geschlossen-Schild zeigen wochenlange Verluste nach einem Angriff." font-family="Arial, 'Helvetica Neue', 'Segoe UI', sans-serif">
  <title>Ein gesperrter Server, ein Kalender mit 24 durchgestrichenen Tagen, ablaufendes Geld und ein Geschlossen-Schild zeigen wochenlange Verluste nach einem Angriff.</title>

  <rect x="0" y="0" width="800" height="450" fill="#f5f5f5" />

  
  <g>
    <rect x="70" y="130" width="130" height="140" rx="8" fill="#2d2d2d" stroke="#1a1a1a" stroke-width="3" />
    <line x1="84" y1="152" x2="186" y2="152" stroke="#f5f5f5" stroke-width="3" />
    <line x1="84" y1="168" x2="186" y2="168" stroke="#f5f5f5" stroke-width="3" />
    
    <path d="M118 190 v-12 a17 17 0 0 1 34 0 v12" fill="none" stroke="#8b0000" stroke-width="7" />
    <rect x="110" y="190" width="50" height="44" rx="5" fill="#8b0000" stroke="#1a1a1a" stroke-width="2.5" />
    <circle cx="135" cy="208" r="5" fill="#f5f5f5" />
    <rect x="132" y="210" width="6" height="14" fill="#f5f5f5" />
  </g>
  <text x="135" y="305" font-family="Arial, 'Helvetica Neue', 'Segoe UI', sans-serif" font-size="28" font-weight="bold" text-anchor="middle" fill="#1a1a1a">Server gesperrt</text>

  
  <g>
    <rect x="300" y="120" width="170" height="150" rx="6" fill="#f5f5f5" stroke="#1a1a1a" stroke-width="3" />
    <rect x="300" y="120" width="170" height="32" rx="6" fill="#8b0000" />
    <line x1="305" y1="190" x2="465" y2="190" stroke="#1a1a1a" stroke-width="2.5" />
    <line x1="305" y1="228" x2="465" y2="228" stroke="#1a1a1a" stroke-width="2.5" />
    <line x1="345" y1="152" x2="345" y2="270" stroke="#1a1a1a" stroke-width="2.5" />
    <line x1="385" y1="152" x2="385" y2="270" stroke="#1a1a1a" stroke-width="2.5" />
    <line x1="425" y1="152" x2="425" y2="270" stroke="#1a1a1a" stroke-width="2.5" />
    
    <g stroke="#8b0000" stroke-width="3.5" stroke-linecap="round">
      <line x1="312" y1="160" x2="338" y2="184" /><line x1="338" y1="160" x2="312" y2="184" />
      <line x1="352" y1="160" x2="378" y2="184" /><line x1="378" y1="160" x2="352" y2="184" />
      <line x1="392" y1="160" x2="418" y2="184" /><line x1="418" y1="160" x2="392" y2="184" />
      <line x1="432" y1="160" x2="458" y2="184" /><line x1="458" y1="160" x2="432" y2="184" />
      <line x1="312" y1="198" x2="338" y2="222" /><line x1="338" y1="198" x2="312" y2="222" />
      <line x1="352" y1="198" x2="378" y2="222" /><line x1="378" y1="198" x2="352" y2="222" />
      <line x1="392" y1="198" x2="418" y2="222" /><line x1="418" y1="198" x2="392" y2="222" />
      <line x1="432" y1="198" x2="458" y2="222" /><line x1="458" y1="198" x2="432" y2="222" />
      <line x1="312" y1="236" x2="338" y2="262" /><line x1="338" y1="236" x2="312" y2="262" />
      <line x1="352" y1="236" x2="378" y2="262" /><line x1="378" y1="236" x2="352" y2="262" />
    </g>
  </g>
  <text x="385" y="305" font-family="Arial, 'Helvetica Neue', 'Segoe UI', sans-serif" font-size="28" font-weight="bold" text-anchor="middle" fill="#1a1a1a">24 Tage offline</text>

  
  <g>
    <ellipse cx="620" cy="105" rx="36" ry="13" fill="#8b0000" stroke="#1a1a1a" stroke-width="2.5" />
    <ellipse cx="620" cy="123" rx="36" ry="13" fill="#8b0000" stroke="#1a1a1a" stroke-width="2.5" />
    <ellipse cx="620" cy="141" rx="36" ry="13" fill="#8b0000" stroke="#1a1a1a" stroke-width="2.5" />
    <path d="M620 158 v22" stroke="#8b0000" stroke-width="5" />
    <path d="M607 172 l13 14 l13 -14" fill="none" stroke="#8b0000" stroke-width="5" stroke-linecap="round" stroke-linejoin="round" />
  </g>
  <text x="620" y="210" font-family="Arial, 'Helvetica Neue', 'Segoe UI', sans-serif" font-size="28" font-weight="bold" text-anchor="middle" fill="#1a1a1a">Täglich Verluste</text>

  
  <g>
    <line x1="595" y1="232" x2="585" y2="248" stroke="#1a1a1a" stroke-width="2.5" />
    <line x1="645" y1="232" x2="655" y2="248" stroke="#1a1a1a" stroke-width="2.5" />
    <rect x="565" y="248" width="110" height="60" rx="6" fill="#8b0000" stroke="#1a1a1a" stroke-width="3" />
    <line x1="582" y1="278" x2="658" y2="278" stroke="#f5f5f5" stroke-width="4" />
  </g>
  <text x="620" y="350" font-family="Arial, 'Helvetica Neue', 'Segoe UI', sans-serif" font-size="28" font-weight="bold" text-anchor="middle" fill="#1a1a1a">Wochen geschlossen</text>
</svg>
