<svg xmlns="http://www.w3.org/2000/svg" viewBox="0 0 390 600" width="390" height="600" role="img" aria-label="A locked server, a calendar with 24 days crossed out, money draining away and a closed sign show weeks of lost business after an attack." font-family="'Apple SD Gothic Neo', 'Malgun Gothic', 'Noto Sans CJK KR', sans-serif">
  <title>A locked server, a calendar with 24 days crossed out, money draining away and a closed sign show weeks of lost business after an attack.</title>

  <rect x="0" y="0" width="390" height="600" fill="#f5f5f5" />

  
  <g>
    <rect x="120" y="28" width="150" height="115" rx="8" fill="#2d2d2d" stroke="#1a1a1a" stroke-width="3" />
    <line x1="136" y1="52" x2="254" y2="52" stroke="#f5f5f5" stroke-width="3" />
    <line x1="136" y1="70" x2="254" y2="70" stroke="#f5f5f5" stroke-width="3" />
    <path d="M178 100 v-12 a17 17 0 0 1 34 0 v12" fill="none" stroke="#8b0000" stroke-width="7" />
    <rect x="170" y="100" width="50" height="44" rx="5" fill="#8b0000" stroke="#1a1a1a" stroke-width="2.5" />
    <circle cx="195" cy="118" r="5" fill="#f5f5f5" />
    <rect x="192" y="120" width="6" height="14" fill="#f5f5f5" />
  </g>
  <text x="195" y="172" font-family="'Apple SD Gothic Neo', 'Malgun Gothic', 'Noto Sans CJK KR', sans-serif" font-size="22" font-weight="bold" text-anchor="middle" fill="#1a1a1a">서버 잠김</text>

  
  <g>
    <rect x="115" y="200" width="160" height="130" rx="6" fill="#f5f5f5" stroke="#1a1a1a" stroke-width="3" />
    <rect x="115" y="200" width="160" height="30" rx="6" fill="#8b0000" />
    <line x1="120" y1="265" x2="270" y2="265" stroke="#1a1a1a" stroke-width="2.5" />
    <line x1="120" y1="298" x2="270" y2="298" stroke="#1a1a1a" stroke-width="2.5" />
    <line x1="157" y1="230" x2="157" y2="330" stroke="#1a1a1a" stroke-width="2.5" />
    <line x1="195" y1="230" x2="195" y2="330" stroke="#1a1a1a" stroke-width="2.5" />
    <line x1="233" y1="230" x2="233" y2="330" stroke="#1a1a1a" stroke-width="2.5" />
    <g stroke="#8b0000" stroke-width="3.5" stroke-linecap="round">
      <line x1="126" y1="238" x2="150" y2="260" /><line x1="150" y1="238" x2="126" y2="260" />
      <line x1="164" y1="238" x2="188" y2="260" /><line x1="188" y1="238" x2="164" y2="260" />
      <line x1="202" y1="238" x2="226" y2="260" /><line x1="226" y1="238" x2="202" y2="260" />
      <line x1="240" y1="238" x2="264" y2="260" /><line x1="264" y1="238" x2="240" y2="260" />
      <line x1="126" y1="271" x2="150" y2="293" /><line x1="150" y1="271" x2="126" y2="293" />
      <line x1="164" y1="271" x2="188" y2="293" /><line x1="188" y1="271" x2="164" y2="293" />
      <line x1="202" y1="271" x2="226" y2="293" /><line x1="226" y1="271" x2="202" y2="293" />
      <line x1="240" y1="271" x2="264" y2="293" /><line x1="264" y1="271" x2="240" y2="293" />
    </g>
  </g>
  <text x="195" y="362" font-family="'Apple SD Gothic Neo', 'Malgun Gothic', 'Noto Sans CJK KR', sans-serif" font-size="22" font-weight="bold" text-anchor="middle" fill="#1a1a1a">24일 중단</text>

  
  <g>
    <ellipse cx="135" cy="408" rx="34" ry="12" fill="#8b0000" stroke="#1a1a1a" stroke-width="2.5" />
    <ellipse cx="135" cy="425" rx="34" ry="12" fill="#8b0000" stroke="#1a1a1a" stroke-width="2.5" />
    <ellipse cx="135" cy="442" rx="34" ry="12" fill="#8b0000" stroke="#1a1a1a" stroke-width="2.5" />
    <path d="M135 458 v20" stroke="#8b0000" stroke-width="5" />
    <path d="M123 471 l12 13 l12 -13" fill="none" stroke="#8b0000" stroke-width="5" stroke-linecap="round" stroke-linejoin="round" />
    
    <line x1="225" y1="398" x2="216" y2="414" stroke="#1a1a1a" stroke-width="2.5" />
    <line x1="275" y1="398" x2="284" y2="414" stroke="#1a1a1a" stroke-width="2.5" />
    <rect x="195" y="414" width="110" height="58" rx="6" fill="#8b0000" stroke="#1a1a1a" stroke-width="3" />
    <line x1="212" y1="443" x2="288" y2="443" stroke="#f5f5f5" stroke-width="4" />
  </g>
  <text x="135" y="512" font-family="'Apple SD Gothic Neo', 'Malgun Gothic', 'Noto Sans CJK KR', sans-serif" font-size="22" font-weight="bold" text-anchor="middle" fill="#1a1a1a">매일 손실</text>
  <text x="195" y="555" font-family="'Apple SD Gothic Neo', 'Malgun Gothic', 'Noto Sans CJK KR', sans-serif" font-size="22" font-weight="bold" text-anchor="middle" fill="#1a1a1a">수 주째 폐쇄</text>
</svg>
