<svg xmlns="http://www.w3.org/2000/svg" viewBox="0 0 800 450" width="800" height="450">
  <defs>
    <linearGradient id="serverGrad" x1="0%" y1="0%" x2="0%" y2="100%">
      <stop offset="0%" style="stop-color:#2d2d2d;stop-opacity:1" />
      <stop offset="100%" style="stop-color:#1a1a1a;stop-opacity:1" />
    </linearGradient>
    <filter id="shadow" x="-20%" y="-20%" width="140%" height="140%">
      <feDropShadow dx="0" dy="2" stdDeviation="3" flood-color="#000" flood-opacity="0.3"/>
    </filter>
  </defs>

  <!-- Background -->
  <rect width="800" height="450" fill="#f5f5f5"/>

  <!-- Timeline axis -->
  <line x1="80" y1="225" x2="720" y2="225" stroke="#e0e0e0" stroke-width="2"/>

  <!-- Left side: Limited retention (faded old snapshots) -->
  <!-- Snapshot 1 - oldest, nearly invisible -->
  <g transform="translate(100, 160)" opacity="0.1">
    <rect width="60" height="80" rx="6" fill="url(#serverGrad)" filter="url(#shadow)"/>
    <rect x="10" y="15" width="40" height="8" rx="2" fill="#1a1a1a"/>
    <rect x="10" y="30" width="40" height="8" rx="2" fill="#1a1a1a"/>
    <circle cx="15" cy="19" r="2" fill="#556b2f"/>
    <circle cx="15" cy="34" r="2" fill="#556b2f"/>
  </g>
  <text x="130" y="260" text-anchor="middle" font-family="Arial, sans-serif" font-size="11" fill="#999999">Day 1</text>

  <!-- Snapshot 2 - very faded -->
  <g transform="translate(200, 160)" opacity="0.2">
    <rect width="60" height="80" rx="6" fill="url(#serverGrad)" filter="url(#shadow)"/>
    <rect x="10" y="15" width="40" height="8" rx="2" fill="#1a1a1a"/>
    <rect x="10" y="30" width="40" height="8" rx="2" fill="#1a1a1a"/>
    <circle cx="15" cy="19" r="2" fill="#556b2f"/>
    <circle cx="15" cy="34" r="2" fill="#556b2f"/>
  </g>
  <text x="230" y="260" text-anchor="middle" font-family="Arial, sans-serif" font-size="11" fill="#999999">Day 7</text>

  <!-- Snapshot 3 - faded -->
  <g transform="translate(300, 160)" opacity="0.35">
    <rect width="60" height="80" rx="6" fill="url(#serverGrad)" filter="url(#shadow)"/>
    <rect x="10" y="15" width="40" height="8" rx="2" fill="#1a1a1a"/>
    <rect x="10" y="30" width="40" height="8" rx="2" fill="#1a1a1a"/>
    <circle cx="15" cy="19" r="2" fill="#556b2f"/>
    <circle cx="15" cy="34" r="2" fill="#556b2f"/>
  </g>
  <text x="330" y="260" text-anchor="middle" font-family="Arial, sans-serif" font-size="11" fill="#999999">Day 14</text>

  <!-- X marks on faded snapshots -->
  <g transform="translate(115, 170)" opacity="0.4">
    <line x1="0" y1="0" x2="30" y2="30" stroke="#1a1a1a" stroke-width="3" stroke-linecap="round"/>
    <line x1="30" y1="0" x2="0" y2="30" stroke="#1a1a1a" stroke-width="3" stroke-linecap="round"/>
  </g>
  <g transform="translate(215, 170)" opacity="0.5">
    <line x1="0" y1="0" x2="30" y2="30" stroke="#1a1a1a" stroke-width="3" stroke-linecap="round"/>
    <line x1="30" y1="0" x2="0" y2="30" stroke="#1a1a1a" stroke-width="3" stroke-linecap="round"/>
  </g>

  <!-- Arrow showing time direction -->
  <polygon points="720,225 708,218 708,232" fill="#e0e0e0"/>

  <!-- Snapshot 4 - slightly faded -->
  <g transform="translate(440, 160)" opacity="0.6">
    <rect width="60" height="80" rx="6" fill="url(#serverGrad)" filter="url(#shadow)"/>
    <rect x="10" y="15" width="40" height="8" rx="2" fill="#1a1a1a"/>
    <rect x="10" y="30" width="40" height="8" rx="2" fill="#1a1a1a"/>
    <rect x="10" y="45" width="40" height="8" rx="2" fill="#1a1a1a"/>
    <circle cx="15" cy="19" r="2" fill="#556b2f"/>
    <circle cx="15" cy="34" r="2" fill="#556b2f"/>
    <circle cx="15" cy="49" r="2" fill="#556b2f"/>
  </g>
  <text x="470" y="260" text-anchor="middle" font-family="Arial, sans-serif" font-size="11" fill="#3d3d3d">Day 21</text>

  <!-- Snapshot 5 - current, fully visible -->
  <g transform="translate(560, 150)" filter="url(#shadow)">
    <rect width="70" height="90" rx="6" fill="url(#serverGrad)"/>
    <rect x="10" y="15" width="50" height="8" rx="2" fill="#1a1a1a"/>
    <rect x="10" y="30" width="50" height="8" rx="2" fill="#1a1a1a"/>
    <rect x="10" y="45" width="50" height="8" rx="2" fill="#1a1a1a"/>
    <circle cx="17" cy="19" r="2.5" fill="#556b2f"/>
    <circle cx="17" cy="34" r="2.5" fill="#556b2f"/>
    <circle cx="17" cy="49" r="2.5" fill="#556b2f"/>
  </g>
  <text x="595" y="260" text-anchor="middle" font-family="Arial, sans-serif" font-size="11" fill="#1a1a1a">Today</text>

  <!-- Shield checkmark on current snapshot -->
  <g transform="translate(575, 105)">
    <path d="M20 3 L37 10 L37 23 C37 33 20 46 20 46 C20 46 3 33 3 23 L3 10 Z" fill="#556b2f" stroke="#1a1a1a" stroke-width="1.5"/>
    <path d="M20 8 L32 13 L32 22 C32 30 20 40 20 40 C20 40 8 30 8 22 L8 13 Z" fill="#f5f5f5"/>
    <polyline points="12,21 18,28 28,16" fill="none" stroke="#556b2f" stroke-width="3" stroke-linecap="round" stroke-linejoin="round"/>
  </g>

  <!-- Retention bracket labels -->
  <path d="M100 290 L100 300 L360 300 L360 290" fill="none" stroke="#e0e0e0" stroke-width="1.5"/>
  <text x="230" y="320" text-anchor="middle" font-family="Arial, sans-serif" font-size="12" fill="#999999">Lost History</text>

  <path d="M440 290 L440 300 L630 300 L630 290" fill="none" stroke="#556b2f" stroke-width="1.5"/>
  <text x="535" y="320" text-anchor="middle" font-family="Arial, sans-serif" font-size="12" fill="#556b2f">Available</text>

  <!-- Decorative elements -->
  <circle cx="70" cy="380" r="35" fill="#e0e0e0" opacity="0.3"/>
  <circle cx="700" cy="400" r="50" fill="#e0e0e0" opacity="0.2"/>
  <circle cx="400" cy="410" r="25" fill="#556b2f" opacity="0.1"/>
</svg>
