<svg xmlns="http://www.w3.org/2000/svg" viewBox="0 0 800 450" width="800" height="450" style="display:block;width:100%;height:auto" fill="none" stroke-width="3" stroke-linecap="round" stroke-linejoin="round" aria-hidden="true">
  <!-- Real server, safe -->
  <g style="stroke:var(--illustration-ink,#1a1a1a)">
    <rect x="90" y="150" width="180" height="150" rx="12"/>
    <line x1="120" y1="190" x2="240" y2="190"/>
    <line x1="120" y1="225" x2="240" y2="225"/>
    <line x1="120" y1="260" x2="240" y2="260"/>
  </g>
  <g style="stroke:var(--illustration-accent,#4a7c3f)">
    <circle cx="270" cy="150" r="26" style="fill:var(--illustration-surface,#ffffff);stroke:var(--illustration-accent,#4a7c3f)"/>
    <path d="M258 150 L267 159 L284 139" stroke-width="4"/>
  </g>
  <!-- Sandbox -->
  <rect x="430" y="90" width="300" height="280" rx="18" style="stroke:var(--illustration-ink-soft,#6e6e73)" stroke-dasharray="14 12"/>
  <!-- Update dropping in -->
  <g style="stroke:var(--illustration-accent,#4a7c3f)" stroke-width="4">
    <line x1="580" y1="112" x2="580" y2="164"/>
    <path d="M560 146 L580 170 L600 146"/>
  </g>
  <!-- The copy that takes the risk -->
  <g style="stroke:var(--illustration-accent,#4a7c3f)">
    <rect x="490" y="190" width="180" height="150" rx="12"/>
    <line x1="520" y1="230" x2="640" y2="230"/>
    <line x1="520" y1="265" x2="640" y2="265"/>
    <line x1="520" y1="300" x2="640" y2="300"/>
  </g>
</svg>
