<svg width="1100" height="618" viewBox="0 0 1100 618" fill="none" xmlns="http://www.w3.org/2000/svg">
  <defs>
    <filter id="drop-shadow" x="-20%" y="-20%" width="140%" height="140%">
      <feGaussianBlur in="SourceAlpha" stdDeviation="3"/>
      <feOffset dx="2" dy="2" result="offsetblur"/>
      <feMerge>
        <feMergeNode/>
        <feMergeNode in="SourceGraphic"/>
      </feMerge>
    </filter>
  </defs>

  <style>
    .bg { fill: #f5f5f5; }
    .brand-color { fill: #556b2f; }
    .brand-stroke { stroke: #556b2f; }
    .light-gray-fill { fill: #e0e0e0; }
    .light-gray-stroke { stroke: #e0e0e0; }
    .dark-gray-text { fill: #1a1a1a; font-family: Arial, sans-serif; font-size: 16px; font-weight: bold; }
    .white-text { fill: #ffffff; font-family: Arial, sans-serif; font-size: 16px; font-weight: bold; }
  </style>

  <rect class="bg" width="1100" height="618"/>

  <!-- Decorative background circles -->
  <circle cx="100" cy="100" r="200" fill="#e0e0e0" opacity="0.1"/>
  <circle cx="950" cy="500" r="150" fill="#e0e0e0" opacity="0.1"/>
  <circle cx="550" cy="309" r="250" fill="#e0e0e0" opacity="0.05"/>

  <!-- World Map Outline -->
  <g opacity="0.2" fill="#e0e0e0" stroke="#e0e0e0" stroke-width="2">
    <!-- North America -->
    <polygon points="150,200 200,180 300,150 350,200 380,280 300,320 220,300 150,250" />
    <!-- South America -->
    <polygon points="320,350 380,380 390,450 350,500 300,480 280,400" />
    <!-- Europe -->
    <polygon points="480,180 580,160 620,220 590,280 520,260" />
    <!-- Africa -->
    <polygon points="490,300 550,290 600,350 580,450 520,480 480,380" />
    <!-- Asia -->
    <polygon points="650,150 800,140 900,200 920,300 850,350 750,320 680,250" />
    <!-- Australia -->
    <polygon points="850,400 950,420 960,480 900,520 840,480" />
  </g>

  <!-- Cloud Nodes -->
  <g id="cloud-us" transform="translate(250, 220)" filter="url(#drop-shadow)">
    <path d="M-50,0 Q-60,-40 -30,-50 Q0,-70 30,-50 Q60,-40 50,0 Z" class="light-gray-fill"/>
    <text x="0" y="-15" text-anchor="middle" class="dark-gray-text">US</text>
  </g>
  <g id="cloud-eu" transform="translate(550, 190)" filter="url(#drop-shadow)">
    <path d="M-50,0 Q-60,-40 -30,-50 Q0,-70 30,-50 Q60,-40 50,0 Z" class="light-gray-fill"/>
    <text x="0" y="-15" text-anchor="middle" class="dark-gray-text">EU</text>
  </g>
  <g id="cloud-apac" transform="translate(850, 260)" filter="url(#drop-shadow)">
    <path d="M-50,0 Q-60,-40 -30,-50 Q0,-70 30,-50 Q60,-40 50,0 Z" class="light-gray-fill"/>
    <text x="0" y="-15" text-anchor="middle" class="dark-gray-text">APAC</text>
  </g>

  <!-- Connection Lines -->
  <g class="brand-stroke" stroke-width="4" stroke-linecap="round" fill="none">
    <!-- US to EU -->
    <path d="M300,220 C400,150 450,150 500,190" stroke-dasharray="10, 10"/>
    <!-- EU to APAC -->
    <path d="M600,190 C700,180 750,280 800,260" stroke-dasharray="10, 10"/>
    <!-- APAC to US -->
    <path d="M800,280 C600,450 350,350 300,240" stroke-dasharray="10, 10"/>
  </g>

  <!-- Checkmark Circles -->
  <g>
    <!-- Midpoint US-EU -->
    <circle cx="425" cy="175" r="18" class="brand-color"/>
    <path d="M418 175 l5 5 l10 -10" stroke="#ffffff" stroke-width="3" fill="none"/>
    <!-- Midpoint EU-APAC -->
    <circle cx="715" cy="225" r="18" class="brand-color"/>
    <path d="M708 225 l5 5 l10 -10" stroke="#ffffff" stroke-width="3" fill="none"/>
    <!-- Midpoint APAC-US -->
    <circle cx="550" cy="330" r="18" class="brand-color"/>
    <path d="M543 330 l5 5 l10 -10" stroke="#ffffff" stroke-width="3" fill="none"/>
  </g>

  <!-- Central Shield Icon -->
  <g transform="translate(550, 309) scale(1.5)" filter="url(#drop-shadow)">
    <path d="M-30,-40 C-30,-50 30,-50 30,-40 L30,0 C30,30 0,40 0,40 C0,40 -30,30 -30,0 Z" fill="#2d2d2d"/>
    <path d="M-15,-20 L-5,-10 L15,-30" stroke="#556b2f" stroke-width="6" stroke-linecap="round" fill="none"/>
  </g>
</svg>