<svg xmlns="http://www.w3.org/2000/svg" viewBox="0 0 800 450" width="800" height="450">
  <defs>
    <linearGradient id="serverGrad" x1="0%" y1="0%" x2="0%" y2="100%">
      <stop offset="0%" style="stop-color:#2d2d2d;stop-opacity:1" />
      <stop offset="100%" style="stop-color:#1a1a1a;stop-opacity:1" />
    </linearGradient>
    <filter id="shadow" x="-20%" y="-20%" width="140%" height="140%">
      <feDropShadow dx="0" dy="2" stdDeviation="3" flood-color="#000" flood-opacity="0.3"/>
    </filter>
  </defs>

  <!-- Background -->
  <rect width="800" height="450" fill="#f5f5f5"/>

  <!-- VS divider -->
  <line x1="400" y1="50" x2="400" y2="400" stroke="#e0e0e0" stroke-width="1" stroke-dasharray="6,4"/>

  <!-- LEFT: Broken deployment gears -->
  <g transform="translate(100, 100)">
    <!-- Gear 1 (broken/misaligned) -->
    <g transform="translate(50, 50)">
      <circle cx="0" cy="0" r="40" fill="none" stroke="#e0e0e0" stroke-width="4"/>
      <circle cx="0" cy="0" r="28" fill="#f5f5f5" stroke="#e0e0e0" stroke-width="2"/>
      <circle cx="0" cy="0" r="10" fill="#e0e0e0"/>
      <!-- Gear teeth -->
      <rect x="-6" y="-46" width="12" height="12" rx="2" fill="#e0e0e0"/>
      <rect x="-6" y="34" width="12" height="12" rx="2" fill="#e0e0e0"/>
      <rect x="-46" y="-6" width="12" height="12" rx="2" fill="#e0e0e0"/>
      <rect x="34" y="-6" width="12" height="12" rx="2" fill="#e0e0e0"/>
      <!-- Crack lines -->
      <line x1="-15" y1="-10" x2="5" y2="15" stroke="#1a1a1a" stroke-width="2" stroke-linecap="round"/>
      <line x1="5" y1="15" x2="-5" y2="25" stroke="#1a1a1a" stroke-width="2" stroke-linecap="round"/>
    </g>

    <!-- Gear 2 (jammed) -->
    <g transform="translate(150, 120)">
      <circle cx="0" cy="0" r="35" fill="none" stroke="#e0e0e0" stroke-width="4"/>
      <circle cx="0" cy="0" r="24" fill="#f5f5f5" stroke="#e0e0e0" stroke-width="2"/>
      <circle cx="0" cy="0" r="8" fill="#e0e0e0"/>
      <rect x="-5" y="-41" width="10" height="12" rx="2" fill="#e0e0e0"/>
      <rect x="-5" y="29" width="10" height="12" rx="2" fill="#e0e0e0"/>
      <rect x="-41" y="-5" width="12" height="10" rx="2" fill="#e0e0e0"/>
      <rect x="29" y="-5" width="12" height="10" rx="2" fill="#e0e0e0"/>
    </g>

    <!-- X marks on broken gears -->
    <g transform="translate(30, 30)">
      <line x1="0" y1="0" x2="20" y2="20" stroke="#1a1a1a" stroke-width="3" stroke-linecap="round"/>
      <line x1="20" y1="0" x2="0" y2="20" stroke="#1a1a1a" stroke-width="3" stroke-linecap="round"/>
    </g>
    <g transform="translate(135, 95)">
      <line x1="0" y1="0" x2="16" y2="16" stroke="#1a1a1a" stroke-width="3" stroke-linecap="round"/>
      <line x1="16" y1="0" x2="0" y2="16" stroke="#1a1a1a" stroke-width="3" stroke-linecap="round"/>
    </g>

    <!-- File permission blocks (broken) -->
    <g transform="translate(10, 200)">
      <rect width="200" height="70" rx="6" fill="#fff" stroke="#e0e0e0" stroke-width="1.5"/>
      <rect x="12" y="10" width="40" height="10" rx="2" fill="#e0e0e0"/>
      <rect x="60" y="10" width="60" height="10" rx="2" fill="#e0e0e0" opacity="0.4"/>
      <text x="132" y="19" font-family="system-ui, sans-serif" font-size="10" fill="#1a1a1a">rwx------</text>
      <rect x="12" y="30" width="40" height="10" rx="2" fill="#e0e0e0"/>
      <rect x="60" y="30" width="45" height="10" rx="2" fill="#e0e0e0" opacity="0.4"/>
      <text x="132" y="39" font-family="system-ui, sans-serif" font-size="10" fill="#1a1a1a">rw-rw-rw-</text>
      <rect x="12" y="50" width="40" height="10" rx="2" fill="#e0e0e0"/>
      <rect x="60" y="50" width="55" height="10" rx="2" fill="#e0e0e0" opacity="0.4"/>
      <text x="132" y="59" font-family="system-ui, sans-serif" font-size="10" fill="#1a1a1a">---------</text>
    </g>
  </g>

  <!-- Warning -->
  <g transform="translate(170, 48)">
    <polygon points="20,0 40,35 0,35" fill="#e0e0e0" stroke="#1a1a1a" stroke-width="1.5"/>
    <polygon points="20,5 36,32 4,32" fill="#f5f5f5"/>
    <line x1="20" y1="12" x2="20" y2="22" stroke="#1a1a1a" stroke-width="2.5" stroke-linecap="round"/>
    <circle cx="20" cy="27" r="2" fill="#1a1a1a"/>
  </g>

  <text x="200" y="400" text-anchor="middle" font-family="system-ui, sans-serif" font-size="12" fill="#e0e0e0">Broken Deployment</text>

  <!-- RIGHT: Working deployment gears -->
  <g transform="translate(500, 100)">
    <!-- Gear 1 (smooth) -->
    <g transform="translate(50, 50)">
      <circle cx="0" cy="0" r="40" fill="none" stroke="#556b2f" stroke-width="4"/>
      <circle cx="0" cy="0" r="28" fill="#f5f5f5" stroke="#556b2f" stroke-width="2"/>
      <circle cx="0" cy="0" r="10" fill="#556b2f"/>
      <rect x="-6" y="-46" width="12" height="12" rx="2" fill="#556b2f"/>
      <rect x="-6" y="34" width="12" height="12" rx="2" fill="#556b2f"/>
      <rect x="-46" y="-6" width="12" height="12" rx="2" fill="#556b2f"/>
      <rect x="34" y="-6" width="12" height="12" rx="2" fill="#556b2f"/>
    </g>

    <!-- Gear 2 (meshing properly) -->
    <g transform="translate(145, 115)">
      <circle cx="0" cy="0" r="35" fill="none" stroke="#556b2f" stroke-width="4"/>
      <circle cx="0" cy="0" r="24" fill="#f5f5f5" stroke="#556b2f" stroke-width="2"/>
      <circle cx="0" cy="0" r="8" fill="#556b2f"/>
      <rect x="-5" y="-41" width="10" height="12" rx="2" fill="#556b2f"/>
      <rect x="-5" y="29" width="10" height="12" rx="2" fill="#556b2f"/>
      <rect x="-41" y="-5" width="12" height="10" rx="2" fill="#556b2f"/>
      <rect x="29" y="-5" width="12" height="10" rx="2" fill="#556b2f"/>
    </g>

    <!-- Checkmarks -->
    <g transform="translate(25, 25)">
      <circle cx="10" cy="10" r="10" fill="#556b2f"/>
      <polyline points="5,10 8,13 15,6" fill="none" stroke="#f5f5f5" stroke-width="2" stroke-linecap="round"/>
    </g>
    <g transform="translate(130, 90)">
      <circle cx="10" cy="10" r="10" fill="#556b2f"/>
      <polyline points="5,10 8,13 15,6" fill="none" stroke="#f5f5f5" stroke-width="2" stroke-linecap="round"/>
    </g>

    <!-- File permissions (correct) -->
    <g transform="translate(10, 200)">
      <rect width="200" height="70" rx="6" fill="#fff" stroke="#556b2f" stroke-width="1.5"/>
      <rect x="12" y="10" width="40" height="10" rx="2" fill="#556b2f" opacity="0.2"/>
      <rect x="60" y="10" width="60" height="10" rx="2" fill="#556b2f" opacity="0.15"/>
      <text x="132" y="19" font-family="system-ui, sans-serif" font-size="10" fill="#556b2f">rwxr-xr-x</text>
      <rect x="12" y="30" width="40" height="10" rx="2" fill="#556b2f" opacity="0.2"/>
      <rect x="60" y="30" width="45" height="10" rx="2" fill="#556b2f" opacity="0.15"/>
      <text x="132" y="39" font-family="system-ui, sans-serif" font-size="10" fill="#556b2f">rw-r--r--</text>
      <rect x="12" y="50" width="40" height="10" rx="2" fill="#556b2f" opacity="0.2"/>
      <rect x="60" y="50" width="55" height="10" rx="2" fill="#556b2f" opacity="0.15"/>
      <text x="132" y="59" font-family="system-ui, sans-serif" font-size="10" fill="#556b2f">rwxr-xr-x</text>
    </g>
  </g>

  <text x="600" y="400" text-anchor="middle" font-family="system-ui, sans-serif" font-size="12" fill="#556b2f">Clean Deployment</text>

  <!-- Decorative elements -->
  <circle cx="70" cy="420" r="30" fill="#e0e0e0" opacity="0.3"/>
  <circle cx="730" cy="430" r="50" fill="#e0e0e0" opacity="0.2"/>
  <circle cx="400" cy="440" r="22" fill="#556b2f" opacity="0.1"/>
</svg>
