<svg width="800" height="450" viewBox="0 0 800 450" xmlns="http://www.w3.org/2000/svg">
  <defs>
    <filter id="dropShadow" x="-20%" y="-20%" width="140%" height="140%">
      <feGaussianBlur in="SourceAlpha" stdDeviation="2"/>
      <feOffset dx="1.3" dy="2.7" result="offsetblur"/>
      <feComponentTransfer>
        <feFuncA type="linear" slope="0.5"/>
      </feComponentTransfer>
      <feMerge> 
        <feMergeNode/>
        <feMergeNode in="SourceGraphic"/> 
      </feMerge>
    </filter>
    <path id="cloud" d="M141 90.3 c-23.5 0-43.2 18.2-44.9 41.4 c-3.3-0.7-6.6-1-10.1-1 c-19.8 0-37.2 11-45 26.9 c-5.9-4.3-13.1-6.8-21-6.8 c-21.2 0-38.4 17.2-38.4 38.4 s17.2 38.4 38.4 38.4 h166 c21.2 0 38.4-17.2 38.4-38.4 c0-20.5-16.1-37.3-36.5-38.3 C184.9 107.6 164.9 90.3 141 90.3 z"/>
    <g id="server-icon">
        <path fill="#3d3d3d" d="M0 10 L0 30 L20 40 L40 30 L40 10 L20 0 Z"/>
        <path fill="#2d2d2d" d="M0 10 L20 20 L40 10 L20 0 Z"/>
        <path fill="#1a1a1a" d="M0 10 L0 30 L20 40 L20 20 Z"/>
    </g>
    <marker id="arrowhead" markerWidth="6.7" markerHeight="4.7" refX="6.7" refY="2.3" orient="auto">
      <polygon points="0 0, 6.7 2.3, 0 4.7" fill="#556b2f"/>
    </marker>
  </defs>

  <rect width="100%" height="100%" fill="#f5f5f5"/>

  <circle cx="100" cy="433.3" r="53.3" fill="#e0e0e0" opacity="0.4"/>
  <circle cx="700" cy="443.3" r="66.7" fill="#e0e0e0" opacity="0.3"/>

  <g id="main-elements" filter="url(#dropShadow)">
    <g id="cloud-group">
      <use href="#cloud" x="33.3" y="133.3" fill="#e0e0e0"/>
      <use href="#cloud" x="33.3" y="133.3" fill="#4a6fa5" opacity="0.3"/>
      <use href="#server-icon" x="103.3" y="200" transform="scale(0.8) translate(0, -10)"/>

      <use href="#cloud" x="300" y="133.3" fill="#e0e0e0"/>
      <use href="#cloud" x="300" y="133.3" fill="#a54a4a" opacity="0.3"/>
      <use href="#server-icon" x="370" y="200" transform="scale(0.8) translate(0, -10)"/>

      <use href="#cloud" x="566.7" y="133.3" fill="#e0e0e0"/>
      <use href="#cloud" x="566.7" y="133.3" fill="#a5924a" opacity="0.3"/>
      <use href="#server-icon" x="636.7" y="200" transform="scale(0.8) translate(0, -10)"/>
    </g>

    <path id="infra-box" fill="#e0e0e0" stroke="#3d3d3d" stroke-width="1.3" d="M266.7 333.3 h266.7 v66.7 h-266.7 z"/>
    
    <g id="arrows">
      <line x1="246.7" y1="233.3" x2="346.7" y2="233.3" stroke="#556b2f" stroke-width="2.7" marker-start="url(#arrowhead)" marker-end="url(#arrowhead)"/>
      <line x1="513.3" y1="233.3" x2="613.3" y2="233.3" stroke="#556b2f" stroke-width="2.7" marker-start="url(#arrowhead)" marker-end="url(#arrowhead)"/>
      
      <path d="M333.3 333.3 v-26.7" stroke="#556b2f" stroke-width="2.7" marker-end="url(#arrowhead)"/>
      <path d="M400 306.7 v26.7" stroke="#556b2f" stroke-width="2.7" marker-end="url(#arrowhead)"/>
      <path d="M466.7 333.3 v-26.7" stroke="#556b2f" stroke-width="2.7" marker-end="url(#arrowhead)"/>
    </g>
  </g>
</svg>
