<svg width="1100" height="618" viewBox="0 0 1100 618" xmlns="http://www.w3.org/2000/svg">
  <!--
    Design Language:
    - Background: #f5f5f5
    - Brand Color: #556b2f (Olive Green)
    - Grays: #1a1a1a (darkest), #2d2d2d, #3d3d3d, #e0e0e0 (lightest)
  -->

  <defs>
    <filter id="drop-shadow" x="-0.3" y="-0.3" width="1.6" height="1.6">
      <feGaussianBlur in="SourceAlpha" stdDeviation="5" result="blur"/>
      <feOffset in="blur" dx="3" dy="3" result="offsetBlur"/>
      <feFlood flood-color="#000" flood-opacity="0.15" result="offsetColor"/>
      <feComposite in="offsetColor" in2="offsetBlur" operator="in" result="offsetBlur"/>
      <feMerge>
        <feMergeNode in="offsetBlur"/>
        <feMergeNode in="SourceGraphic"/>
      </feMerge>
    </filter>
  </defs>

  <!-- Background -->
  <rect width="1100" height="618" fill="#f5f5f5"/>

  <!-- Decorative Circles -->
  <circle cx="50" cy="618" r="80" fill="#556b2f" opacity="0.05"/>
  <circle cx="1020" cy="618" r="120" fill="#e0e0e0" opacity="0.5"/>
  <circle cx="920" cy="100" r="40" fill="#e0e0e0" opacity="0.3"/>

  <!-- Center Divider -->
  <line x1="550" y1="40" x2="550" y2="570" stroke="#3d3d3d" stroke-width="2" stroke-dasharray="8, 8"/>

  <!-- Titles -->
  <text x="275" y="70" font-family="Arial, sans-serif" font-size="28" font-weight="bold" fill="#3d3d3d" text-anchor="middle">Manual</text>
  <text x="825" y="70" font-family="Arial, sans-serif" font-size="28" font-weight="bold" fill="#1a1a1a" text-anchor="middle">Automated</text>

  <!-- === Left Side: Manual Flow === -->
  <g id="manual-flow">
    <!-- Winding Path -->
    <path d="M 275 120 C 350 150, 200 180, 275 210 C 350 240, 200 270, 275 300 C 350 330, 200 360, 275 390" stroke="#3d3d3d" stroke-width="2.5" stroke-dasharray="5,5" fill="none"/>

    <!-- Nodes with X marks -->
    <g class="node-error" transform="translate(275, 120)">
      <circle r="22" fill="#e0e0e0" stroke="#3d3d3d" stroke-width="2"/>
      <path d="M -10 -10 L 10 10 M 10 -10 L -10 10" stroke="#3d3d3d" stroke-width="3" stroke-linecap="round"/>
    </g>
     <g class="node-error" transform="translate(275, 210)">
      <circle r="22" fill="#e0e0e0" stroke="#3d3d3d" stroke-width="2"/>
      <path d="M -10 -10 L 10 10 M 10 -10 L -10 10" stroke="#3d3d3d" stroke-width="3" stroke-linecap="round"/>
    </g>
    <g class="node-error" transform="translate(275, 300)">
      <circle r="22" fill="#e0e0e0" stroke="#3d3d3d" stroke-width="2"/>
      <path d="M -10 -10 L 10 10 M 10 -10 L -10 10" stroke="#3d3d3d" stroke-width="3" stroke-linecap="round"/>
    </g>
    <g class="node-error" transform="translate(275, 390)">
      <circle r="22" fill="#e0e0e0" stroke="#3d3d3d" stroke-width="2"/>
      <path d="M -10 -10 L 10 10 M 10 -10 L -10 10" stroke="#3d3d3d" stroke-width="3" stroke-linecap="round"/>
    </g>

    <!-- Hourglass Icon -->
    <g transform="translate(275, 470)">
      <path d="M -15 -20 L 15 -20 L -15 20 L 15 20 Z" fill="none" stroke="#3d3d3d" stroke-width="3"/>
      <path d="M -15 -20 C -5 -5, -5 -5, 0 0 C 5 5, 5 5, 15 20" stroke="#3d3d3d" stroke-width="2" fill="none"/>
      <path d="M -12 -17 H 12" stroke="#3d3d3d" stroke-width="2" />
       <path d="M -12 17 H 12" stroke="#3d3d3d" stroke-width="2" />
    </g>
    <text x="275" y="530" font-family="Arial, sans-serif" font-size="24" font-weight="bold" fill="#3d3d3d" text-anchor="middle">Days</text>
  </g>

  <!-- === Right Side: Automated Flow === -->
  <g id="automated-flow">
    <!-- Straight Path -->
    <line x1="825" y1="120" x2="825" y2="390" stroke="#556b2f" stroke-width="8" stroke-linecap="round"/>

    <!-- Nodes with Checkmarks -->
    <g class="node-success" transform="translate(825, 150)" filter="url(#drop-shadow)">
      <circle r="25" fill="#556b2f"/>
      <path d="M -12 0 L -2 10 L 12 -8" stroke="#FFFFFF" stroke-width="5" fill="none" stroke-linecap="round" stroke-linejoin="round"/>
    </g>
    <g class="node-success" transform="translate(825, 255)" filter="url(#drop-shadow)">
      <circle r="25" fill="#556b2f"/>
      <path d="M -12 0 L -2 10 L 12 -8" stroke="#FFFFFF" stroke-width="5" fill="none" stroke-linecap="round" stroke-linejoin="round"/>
    </g>
    <g class="node-success" transform="translate(825, 360)" filter="url(#drop-shadow)">
      <circle r="25" fill="#556b2f"/>
      <path d="M -12 0 L -2 10 L 12 -8" stroke="#FFFFFF" stroke-width="5" fill="none" stroke-linecap="round" stroke-linejoin="round"/>
    </g>

    <!-- Lightning Bolt Icon -->
    <g transform="translate(825, 470)" filter="url(#drop-shadow)">
      <path d="M 0 -25 L -12 5 L 5 5 L -5 25 L 12 -5 L -5 -5 Z" fill="#556b2f"/>
    </g>
    <text x="825" y="530" font-family="Arial, sans-serif" font-size="24" font-weight="bold" fill="#1a1a1a" text-anchor="middle">Minutes</text>
  </g>
</svg>