<svg xmlns="http://www.w3.org/2000/svg" viewBox="0 0 800 450" width="800" height="450">
  <defs>
    <linearGradient id="serverGrad" x1="0%" y1="0%" x2="0%" y2="100%">
      <stop offset="0%" style="stop-color:#2d2d2d;stop-opacity:1" />
      <stop offset="100%" style="stop-color:#1a1a1a;stop-opacity:1" />
    </linearGradient>
    <filter id="shadow" x="-20%" y="-20%" width="140%" height="140%">
      <feDropShadow dx="0" dy="2" stdDeviation="3" flood-color="#000" flood-opacity="0.3"/>
    </filter>
  </defs>

  <!-- Background -->
  <rect width="800" height="450" fill="#f5f5f5"/>

  <!-- VS divider -->
  <line x1="400" y1="60" x2="400" y2="400" stroke="#e0e0e0" stroke-width="1" stroke-dasharray="6,4"/>

  <!-- LEFT: Opaque Black Box -->
  <!-- Server body - completely opaque -->
  <g transform="translate(120, 100)" filter="url(#shadow)">
    <rect width="160" height="200" rx="10" fill="#1a1a1a"/>
    <!-- No visible internals - just a black rectangle -->
    <!-- Question marks -->
    <text x="80" y="90" text-anchor="middle" font-family="system-ui, sans-serif" font-size="36" fill="#3d3d3d" font-weight="700">?</text>
    <text x="50" y="140" text-anchor="middle" font-family="system-ui, sans-serif" font-size="24" fill="#3d3d3d" font-weight="700">?</text>
    <text x="115" y="150" text-anchor="middle" font-family="system-ui, sans-serif" font-size="28" fill="#3d3d3d" font-weight="700">?</text>
    <text x="80" y="185" text-anchor="middle" font-family="system-ui, sans-serif" font-size="20" fill="#3d3d3d" font-weight="700">?</text>
  </g>

  <!-- Warning triangle -->
  <g transform="translate(170, 40)">
    <polygon points="30,0 60,52 0,52" fill="#e0e0e0" stroke="#1a1a1a" stroke-width="2"/>
    <polygon points="30,8 54,48 6,48" fill="#f5f5f5"/>
    <line x1="30" y1="18" x2="30" y2="32" stroke="#1a1a1a" stroke-width="3" stroke-linecap="round"/>
    <circle cx="30" cy="40" r="2.5" fill="#1a1a1a"/>
  </g>

  <!-- "No visibility" label -->
  <text x="200" y="340" text-anchor="middle" font-family="system-ui, sans-serif" font-size="12" fill="#e0e0e0">No Visibility</text>

  <!-- RIGHT: Transparent monitored server -->
  <g transform="translate(520, 100)" filter="url(#shadow)">
    <!-- Server body with visible internals -->
    <rect width="160" height="200" rx="10" fill="url(#serverGrad)"/>
    <rect x="0" y="0" width="160" height="10" rx="10" fill="#3d3d3d"/>

    <!-- Visible drive bays -->
    <rect x="15" y="30" width="130" height="14" rx="3" fill="#1a1a1a"/>
    <rect x="15" y="52" width="130" height="14" rx="3" fill="#1a1a1a"/>
    <rect x="15" y="74" width="130" height="14" rx="3" fill="#1a1a1a"/>
    <!-- Status lights (all green, healthy) -->
    <circle cx="28" cy="37" r="3.5" fill="#556b2f"/>
    <circle cx="28" cy="59" r="3.5" fill="#556b2f"/>
    <circle cx="28" cy="81" r="3.5" fill="#556b2f"/>
    <!-- Activity indicators -->
    <rect x="40" y="34" width="30" height="6" rx="2" fill="#556b2f" opacity="0.3"/>
    <rect x="40" y="56" width="45" height="6" rx="2" fill="#556b2f" opacity="0.3"/>
    <rect x="40" y="78" width="25" height="6" rx="2" fill="#556b2f" opacity="0.3"/>

    <!-- CPU/Memory metrics -->
    <rect x="15" y="100" width="60" height="30" rx="3" fill="#1a1a1a"/>
    <rect x="20" y="120" width="15" height="6" rx="1" fill="#556b2f" opacity="0.6"/>
    <rect x="38" y="116" width="15" height="10" rx="1" fill="#556b2f" opacity="0.8"/>
    <rect x="56" y="118" width="10" height="8" rx="1" fill="#556b2f" opacity="0.5"/>

    <rect x="85" y="100" width="60" height="30" rx="3" fill="#1a1a1a"/>
    <rect x="90" y="118" width="12" height="8" rx="1" fill="#556b2f" opacity="0.7"/>
    <rect x="105" y="114" width="12" height="12" rx="1" fill="#556b2f" opacity="0.5"/>
    <rect x="120" y="116" width="12" height="10" rx="1" fill="#556b2f" opacity="0.9"/>

    <!-- Network ports -->
    <rect x="15" y="145" width="25" height="10" rx="2" fill="#3d3d3d"/>
    <rect x="48" y="145" width="25" height="10" rx="2" fill="#3d3d3d"/>
    <rect x="81" y="145" width="25" height="10" rx="2" fill="#3d3d3d"/>
    <rect x="114" y="145" width="25" height="10" rx="2" fill="#3d3d3d"/>

    <!-- Logs indicator -->
    <rect x="15" y="168" width="130" height="20" rx="3" fill="#1a1a1a"/>
    <rect x="20" y="173" width="50" height="3" rx="1" fill="#556b2f" opacity="0.4"/>
    <rect x="20" y="179" width="80" height="3" rx="1" fill="#556b2f" opacity="0.3"/>
  </g>

  <!-- Shield checkmark on transparent server -->
  <g transform="translate(570, 55)">
    <path d="M30 5 L55 15 L55 35 C55 50 30 70 30 70 C30 70 5 50 5 35 L5 15 Z" fill="#556b2f" stroke="#1a1a1a" stroke-width="2"/>
    <path d="M30 12 L48 19 L48 34 C48 46 30 62 30 62 C30 62 12 46 12 34 L12 19 Z" fill="#f5f5f5"/>
    <polyline points="18,32 26,42 42,22" fill="none" stroke="#556b2f" stroke-width="4" stroke-linecap="round" stroke-linejoin="round"/>
  </g>

  <!-- "Full Visibility" label -->
  <text x="600" y="340" text-anchor="middle" font-family="system-ui, sans-serif" font-size="12" fill="#556b2f">Full Visibility</text>

  <!-- Decorative elements -->
  <circle cx="80" cy="380" r="35" fill="#e0e0e0" opacity="0.3"/>
  <circle cx="720" cy="400" r="50" fill="#e0e0e0" opacity="0.2"/>
  <circle cx="400" cy="420" r="25" fill="#556b2f" opacity="0.1"/>
</svg>
