<svg xmlns="http://www.w3.org/2000/svg" viewBox="0 0 800 450" width="800" height="450" role="img" aria-label="A dark data box wrapped in red chains with a big red padlock, beside a red price arrow climbing upward, showing vendor lock-in." font-family="'Apple SD Gothic Neo', 'Malgun Gothic', 'Noto Sans CJK KR', sans-serif">
  <title>A dark data box wrapped in red chains with a big red padlock, beside a red price arrow climbing upward, showing vendor lock-in.</title>

  <rect x="0" y="0" width="800" height="450" fill="#f5f5f5" />

  
  <rect x="70" y="150" width="300" height="230" rx="10" fill="#2d2d2d" stroke="#1a1a1a" stroke-width="3" />
  
  <rect x="100" y="185" width="240" height="26" rx="4" fill="#1a1a1a" />
  <rect x="100" y="225" width="240" height="26" rx="4" fill="#1a1a1a" />

  
  <rect x="55" y="250" width="330" height="30" rx="8" fill="#8b0000" stroke="#1a1a1a" stroke-width="2.5" />
  <line x1="60" y1="250" x2="60" y2="280" stroke="#1a1a1a" stroke-width="2.5" />
  <line x1="100" y1="250" x2="100" y2="280" stroke="#1a1a1a" stroke-width="2.5" />
  <line x1="140" y1="250" x2="140" y2="280" stroke="#1a1a1a" stroke-width="2.5" />
  <line x1="180" y1="250" x2="180" y2="280" stroke="#1a1a1a" stroke-width="2.5" />
  <line x1="220" y1="250" x2="220" y2="280" stroke="#1a1a1a" stroke-width="2.5" />
  <line x1="260" y1="250" x2="260" y2="280" stroke="#1a1a1a" stroke-width="2.5" />
  <line x1="300" y1="250" x2="300" y2="280" stroke="#1a1a1a" stroke-width="2.5" />
  <line x1="340" y1="250" x2="340" y2="280" stroke="#1a1a1a" stroke-width="2.5" />
  <line x1="380" y1="250" x2="380" y2="280" stroke="#1a1a1a" stroke-width="2.5" />

  
  <path d="M180 315 v-22 a40 40 0 0 1 80 0 v22" fill="none" stroke="#8b0000" stroke-width="13" />
  <rect x="168" y="312" width="104" height="78" rx="10" fill="#8b0000" stroke="#1a1a1a" stroke-width="2.5" />
  <circle cx="220" cy="345" r="11" fill="#1a1a1a" />
  <rect x="216" y="345" width="8" height="26" fill="#1a1a1a" />

  
  <polyline points="470,360 540,360 540,300 610,300 610,235 680,235 680,165" fill="none" stroke="#8b0000" stroke-width="14" stroke-linejoin="round" />
  <polygon points="680,130 660,170 700,170" fill="#8b0000" />

  
  <text x="220" y="130" text-anchor="middle" font-family="'Apple SD Gothic Neo', 'Malgun Gothic', 'Noto Sans CJK KR', sans-serif" font-size="34" font-weight="bold" fill="#1a1a1a">벤더 종속</text>
  <text x="220" y="425" text-anchor="middle" font-family="'Apple SD Gothic Neo', 'Malgun Gothic', 'Noto Sans CJK KR', sans-serif" font-size="30" fill="#1a1a1a">데이터 잠김</text>
  <text x="600" y="415" text-anchor="middle" font-family="'Apple SD Gothic Neo', 'Malgun Gothic', 'Noto Sans CJK KR', sans-serif" font-size="30" font-weight="bold" fill="#8b0000">가격 계속 인상</text>
  <text x="395" y="180" text-anchor="start" font-family="'Apple SD Gothic Neo', 'Malgun Gothic', 'Noto Sans CJK KR', sans-serif" font-size="30" fill="#8b0000">탈출 불가</text>
</svg>
