<svg xmlns="http://www.w3.org/2000/svg" viewBox="0 0 800 450" width="800" height="450">
  <defs>
    <linearGradient id="serverGrad" x1="0%" y1="0%" x2="0%" y2="100%">
      <stop offset="0%" style="stop-color:#2d2d2d;stop-opacity:1" />
      <stop offset="100%" style="stop-color:#1a1a1a;stop-opacity:1" />
    </linearGradient>
    <filter id="shadow" x="-20%" y="-20%" width="140%" height="140%">
      <feDropShadow dx="0" dy="2" stdDeviation="3" flood-color="#000" flood-opacity="0.3"/>
    </filter>
  </defs>

  <!-- Background -->
  <rect width="800" height="450" fill="#f5f5f5"/>

  <!-- VS divider -->
  <line x1="400" y1="50" x2="400" y2="400" stroke="#e0e0e0" stroke-width="1" stroke-dasharray="6,4"/>

  <!-- LEFT: Server trapped in vendor cage -->
  <!-- Cage bars -->
  <g transform="translate(100, 70)">
    <!-- Cage frame -->
    <rect width="200" height="260" rx="4" fill="none" stroke="#1a1a1a" stroke-width="3"/>
    <!-- Horizontal bars -->
    <line x1="0" y1="0" x2="200" y2="0" stroke="#1a1a1a" stroke-width="4"/>
    <line x1="0" y1="260" x2="200" y2="260" stroke="#1a1a1a" stroke-width="4"/>
    <!-- Vertical bars -->
    <line x1="0" y1="0" x2="0" y2="260" stroke="#1a1a1a" stroke-width="3"/>
    <line x1="40" y1="0" x2="40" y2="260" stroke="#1a1a1a" stroke-width="3"/>
    <line x1="80" y1="0" x2="80" y2="260" stroke="#1a1a1a" stroke-width="3"/>
    <line x1="120" y1="0" x2="120" y2="260" stroke="#1a1a1a" stroke-width="3"/>
    <line x1="160" y1="0" x2="160" y2="260" stroke="#1a1a1a" stroke-width="3"/>
    <line x1="200" y1="0" x2="200" y2="260" stroke="#1a1a1a" stroke-width="3"/>
  </g>

  <!-- Server inside cage -->
  <g transform="translate(140, 110)" filter="url(#shadow)">
    <rect width="120" height="150" rx="8" fill="url(#serverGrad)"/>
    <rect x="15" y="30" width="90" height="12" rx="2" fill="#1a1a1a"/>
    <rect x="15" y="50" width="90" height="12" rx="2" fill="#1a1a1a"/>
    <rect x="15" y="70" width="90" height="12" rx="2" fill="#1a1a1a"/>
    <circle cx="25" cy="36" r="3" fill="#556b2f" opacity="0.3"/>
    <circle cx="25" cy="56" r="3" fill="#556b2f" opacity="0.3"/>
    <circle cx="25" cy="76" r="3" fill="#556b2f" opacity="0.3"/>
    <rect x="15" y="100" width="20" height="8" rx="1" fill="#3d3d3d"/>
    <rect x="45" y="100" width="20" height="8" rx="1" fill="#3d3d3d"/>
    <rect x="75" y="100" width="20" height="8" rx="1" fill="#3d3d3d"/>
  </g>

  <!-- Lock on cage -->
  <g transform="translate(180, 320)">
    <rect x="0" y="10" width="24" height="18" rx="3" fill="#1a1a1a"/>
    <path d="M4 10 L4 5 C4 -2 20 -2 20 5 L20 10" fill="none" stroke="#1a1a1a" stroke-width="3"/>
    <circle cx="12" cy="19" r="2.5" fill="#3d3d3d"/>
  </g>

  <text x="200" y="380" text-anchor="middle" font-family="Arial, sans-serif" font-size="12" fill="#999999">Vendor Lock-In</text>

  <!-- RIGHT: Free server with multi-cloud -->
  <!-- Server -->
  <g transform="translate(540, 130)" filter="url(#shadow)">
    <rect width="120" height="150" rx="8" fill="url(#serverGrad)"/>
    <rect x="0" y="0" width="120" height="8" rx="8" fill="#3d3d3d"/>
    <rect x="15" y="30" width="90" height="12" rx="2" fill="#1a1a1a"/>
    <rect x="15" y="50" width="90" height="12" rx="2" fill="#1a1a1a"/>
    <rect x="15" y="70" width="90" height="12" rx="2" fill="#1a1a1a"/>
    <circle cx="25" cy="36" r="3" fill="#556b2f"/>
    <circle cx="25" cy="56" r="3" fill="#556b2f"/>
    <circle cx="25" cy="76" r="3" fill="#556b2f"/>
    <rect x="15" y="100" width="20" height="8" rx="1" fill="#3d3d3d"/>
    <rect x="45" y="100" width="20" height="8" rx="1" fill="#3d3d3d"/>
    <rect x="75" y="100" width="20" height="8" rx="1" fill="#3d3d3d"/>
  </g>

  <!-- Arrows to multiple clouds -->
  <!-- Cloud 1 (top-right) -->
  <line x1="660" y1="180" x2="710" y2="110" stroke="#556b2f" stroke-width="2"/>
  <polygon points="713,108 705,105 708,114" fill="#556b2f"/>
  <g transform="translate(690, 60)">
    <ellipse cx="30" cy="30" rx="28" ry="18" fill="#e0e0e0"/>
    <ellipse cx="18" cy="25" rx="16" ry="14" fill="#e0e0e0"/>
    <ellipse cx="42" cy="25" rx="16" ry="14" fill="#e0e0e0"/>
    <circle cx="30" cy="30" r="6" fill="#556b2f" opacity="0.3"/>
  </g>

  <!-- Cloud 2 (right) -->
  <line x1="660" y1="210" x2="720" y2="210" stroke="#556b2f" stroke-width="2"/>
  <polygon points="722,210 714,204 714,216" fill="#556b2f"/>
  <g transform="translate(725, 190)">
    <ellipse cx="25" cy="25" rx="24" ry="16" fill="#e0e0e0"/>
    <ellipse cx="15" cy="20" rx="14" ry="12" fill="#e0e0e0"/>
    <ellipse cx="35" cy="20" rx="14" ry="12" fill="#e0e0e0"/>
    <circle cx="25" cy="25" r="5" fill="#556b2f" opacity="0.3"/>
  </g>

  <!-- Cloud 3 (bottom-right) -->
  <line x1="660" y1="240" x2="710" y2="310" stroke="#556b2f" stroke-width="2"/>
  <polygon points="713,312 705,315 708,306" fill="#556b2f"/>
  <g transform="translate(690, 310)">
    <ellipse cx="30" cy="25" rx="28" ry="18" fill="#e0e0e0"/>
    <ellipse cx="18" cy="20" rx="16" ry="14" fill="#e0e0e0"/>
    <ellipse cx="42" cy="20" rx="16" ry="14" fill="#e0e0e0"/>
    <circle cx="30" cy="25" r="6" fill="#556b2f" opacity="0.3"/>
  </g>

  <text x="600" y="380" text-anchor="middle" font-family="Arial, sans-serif" font-size="12" fill="#556b2f">Multi-Cloud Freedom</text>

  <!-- Decorative elements -->
  <circle cx="60" cy="410" r="35" fill="#e0e0e0" opacity="0.3"/>
  <circle cx="400" cy="430" r="25" fill="#556b2f" opacity="0.1"/>
</svg>
