<svg xmlns="http://www.w3.org/2000/svg" viewBox="0 0 800 450" width="800" height="450">
  <rect width="800" height="450" fill="#f5f5f5"/>

  <defs>
    <linearGradient id="serverGrad" x1="0" y1="0" x2="0" y2="1">
      <stop offset="0%" stop-color="#2d2d2d"/>
      <stop offset="100%" stop-color="#1a1a1a"/>
    </linearGradient>
    <filter id="shadow" x="-20%" y="-20%" width="140%" height="140%">
      <feDropShadow dx="0" dy="2" stdDeviation="3" flood-color="#000" flood-opacity="0.3"/>
    </filter>
    <marker id="arrowRight" markerWidth="10" markerHeight="7" refX="10" refY="3.5" orient="auto">
      <polygon points="0 0, 10 3.5, 0 7" fill="#556b2f"/>
    </marker>
    <marker id="arrowLeft" markerWidth="10" markerHeight="7" refX="0" refY="3.5" orient="auto">
      <polygon points="10 0, 0 3.5, 10 7" fill="#556b2f"/>
    </marker>
  </defs>

  <rect x="30" y="35" width="290" height="305" rx="10" fill="#e0e0e0" opacity="0.3"/>
  <text x="175" y="58" font-family="Arial, sans-serif" font-size="16" font-weight="bold" text-anchor="middle" fill="#1a1a1a">Your Workstation</text>

  <g transform="translate(80,90)" filter="url(#shadow)">
    <rect x="0" y="0" width="190" height="120" rx="10" fill="#f5f5f5" stroke="#3d3d3d" stroke-width="3"/>
    <rect x="12" y="12" width="166" height="86" rx="6" fill="#e0e0e0" stroke="#3d3d3d" stroke-width="1.5"/>
    <line x1="95" y1="100" x2="95" y2="110" stroke="#3d3d3d" stroke-width="3"/>
    <rect x="65" y="110" width="60" height="7" rx="3.5" fill="#3d3d3d"/>
    <rect x="20" y="28" width="120" height="32" rx="6" fill="rgba(85,107,47,0.15)" stroke="#556b2f" stroke-width="1.5"/>
    <text x="80" y="48" font-family="Arial, sans-serif" font-size="14" font-weight="bold" text-anchor="middle" fill="#556b2f">rdc (CLI)</text>
    <rect x="20" y="66" width="95" height="20" rx="4" fill="#f5f5f5" stroke="#3d3d3d" stroke-width="1"/>
    <text x="67.5" y="80" font-family="Arial, sans-serif" font-size="11" text-anchor="middle" fill="#1a1a1a">config.json</text>
  </g>

  <rect x="67" y="232" width="216" height="28" rx="14" fill="rgba(85,107,47,0.15)" stroke="#556b2f" stroke-width="1.5"/>
  <text x="175" y="251" font-family="Arial, sans-serif" font-size="12" font-weight="bold" text-anchor="middle" fill="#556b2f">macOS | Linux | Windows</text>

  <rect x="480" y="35" width="290" height="305" rx="10" fill="#e0e0e0" opacity="0.3"/>
  <text x="625" y="58" font-family="Arial, sans-serif" font-size="16" font-weight="bold" text-anchor="middle" fill="#1a1a1a">Remote Server</text>

  <g transform="translate(540,85)" filter="url(#shadow)">
    <rect width="170" height="205" rx="10" fill="url(#serverGrad)" stroke="#3d3d3d" stroke-width="2"/>
    <rect x="16" y="20" width="138" height="22" rx="4" fill="#1a1a1a"/>
    <circle cx="28" cy="31" r="4" fill="#556b2f"/>
    <rect x="16" y="52" width="138" height="22" rx="4" fill="#1a1a1a"/>
    <circle cx="28" cy="63" r="4" fill="#556b2f"/>
    <rect x="16" y="84" width="138" height="22" rx="4" fill="#1a1a1a"/>
    <circle cx="28" cy="95" r="4" fill="#556b2f"/>
    <rect x="16" y="116" width="138" height="22" rx="4" fill="#1a1a1a"/>
    <circle cx="28" cy="127" r="4" fill="#556b2f"/>

    <rect x="20" y="150" width="130" height="40" rx="6" fill="rgba(85,107,47,0.15)" stroke="#556b2f" stroke-width="1.5"/>
    <text x="85" y="174" font-family="Arial, sans-serif" font-size="14" font-weight="bold" text-anchor="middle" fill="#556b2f">renet (Go binary)</text>
  </g>

  <g font-family="Arial, sans-serif" font-size="11" fill="#1a1a1a">
    <circle cx="540" cy="315" r="2.4" fill="#556b2f"/>
    <text x="550" y="319">LUKS encryption</text>
    <circle cx="540" cy="333" r="2.4" fill="#556b2f"/>
    <text x="550" y="337">Docker daemon</text>
    <circle cx="665" cy="315" r="2.4" fill="#556b2f"/>
    <text x="675" y="319">Rediaccfile exec</text>
    <circle cx="665" cy="333" r="2.4" fill="#556b2f"/>
    <text x="675" y="337">Traefik proxy</text>
  </g>

  <line x1="302" y1="170" x2="498" y2="170" stroke="#556b2f" stroke-width="2.5" marker-end="url(#arrowRight)"/>
  <line x1="498" y1="206" x2="302" y2="206" stroke="#556b2f" stroke-width="2.5" marker-end="url(#arrowLeft)"/>
  <rect x="372" y="178" width="56" height="20" rx="10" fill="rgba(85,107,47,0.15)" stroke="#556b2f" stroke-width="1"/>
  <text x="400" y="192" font-family="Arial, sans-serif" font-size="11" text-anchor="middle" fill="#556b2f" font-weight="bold">SSH</text>
  <text x="400" y="160" font-family="Arial, sans-serif" font-size="12" text-anchor="middle" fill="#1a1a1a">Commands →</text>
  <text x="400" y="225" font-family="Arial, sans-serif" font-size="12" text-anchor="middle" fill="#1a1a1a">← stdout/stderr</text>

  <rect x="20" y="375" width="760" height="44" rx="22" fill="#556b2f" filter="url(#shadow)"/>
  <text x="400" y="403" font-family="Arial, sans-serif" font-size="16" font-weight="bold" text-anchor="middle" fill="#ffffff">CLI Orchestrates Over SSH — No Manual Server Access Needed</text>

  <circle cx="40" cy="430" r="16" fill="#e0e0e0" opacity="0.35"/>
  <circle cx="72" cy="440" r="10" fill="#556b2f" opacity="0.12"/>
  <circle cx="760" cy="430" r="16" fill="#e0e0e0" opacity="0.35"/>
  <circle cx="728" cy="440" r="10" fill="#556b2f" opacity="0.12"/>
</svg>
