<svg xmlns="http://www.w3.org/2000/svg" viewBox="0 0 390 600" width="390" height="600" role="img" aria-label="A green live system box is copied into a ready-to-use sandbox in under a minute." font-family="'Hiragino Sans', 'Yu Gothic', 'Meiryo', 'Noto Sans CJK JP', sans-serif">
  <title>A green live system box is copied into a ready-to-use sandbox in under a minute.</title>

  
  <rect x="0" y="0" width="390" height="600" fill="#f5f5f5" />

  
  <rect x="85" y="35" width="220" height="130" rx="10" fill="#4a7c3f" stroke="#2d5227" stroke-width="3" />
  
  <rect x="103" y="53" width="184" height="94" rx="4" fill="#2d5227" />
  
  <rect x="114" y="64" width="160" height="8" rx="2" fill="#f5f5f5" />
  <rect x="114" y="78" width="128" height="8" rx="2" fill="#f5f5f5" />
  <rect x="114" y="92" width="148" height="8" rx="2" fill="#f5f5f5" />
  <rect x="114" y="106" width="112" height="8" rx="2" fill="#f5f5f5" />
  <rect x="114" y="120" width="138" height="8" rx="2" fill="#f5f5f5" />
  <rect x="114" y="134" width="100" height="8" rx="2" fill="#f5f5f5" />

  
  <text x="195" y="192" font-family="'Hiragino Sans', 'Yu Gothic', 'Meiryo', 'Noto Sans CJK JP', sans-serif" font-size="26" font-weight="700" fill="#1a1a1a" text-anchor="middle">本番環境</text>

  
  
  <rect x="111" y="206" width="12" height="10" rx="2" fill="#2d2d2d" />
  
  <circle cx="117" cy="240" r="24" fill="#2d2d2d" stroke="#1a1a1a" stroke-width="3" />
  
  <line x1="117" y1="220" x2="117" y2="226" stroke="#f5f5f5" stroke-width="3" stroke-linecap="round" />
  
  <line x1="117" y1="240" x2="117" y2="226" stroke="#f5f5f5" stroke-width="3" stroke-linecap="round" />
  <line x1="117" y1="240" x2="130" y2="246" stroke="#f5f5f5" stroke-width="3" stroke-linecap="round" />

  <text x="150" y="250" font-family="'Hiragino Sans', 'Yu Gothic', 'Meiryo', 'Noto Sans CJK JP', sans-serif" font-size="22" font-weight="700" fill="#1a1a1a" text-anchor="start">1分以内</text>

  
  <rect x="180" y="275" width="30" height="80" fill="#4a7c3f" />
  <polygon points="160,355 230,355 195,390" fill="#4a7c3f" />

  
  <text x="195" y="415" font-family="'Hiragino Sans', 'Yu Gothic', 'Meiryo', 'Noto Sans CJK JP', sans-serif" font-size="22" fill="#1a1a1a" text-anchor="middle">同一の実データ</text>

  
  <rect x="85" y="430" width="220" height="130" rx="10" fill="#4a7c3f" stroke="#2d5227" stroke-width="3" />
  
  <rect x="103" y="448" width="184" height="94" rx="4" fill="#2d5227" />
  
  <rect x="114" y="459" width="160" height="8" rx="2" fill="#f5f5f5" />
  <rect x="114" y="473" width="128" height="8" rx="2" fill="#f5f5f5" />
  <rect x="114" y="487" width="148" height="8" rx="2" fill="#f5f5f5" />
  <rect x="114" y="501" width="112" height="8" rx="2" fill="#f5f5f5" />
  <rect x="114" y="515" width="138" height="8" rx="2" fill="#f5f5f5" />
  <rect x="114" y="529" width="100" height="8" rx="2" fill="#f5f5f5" />
  
  <circle cx="298" cy="442" r="22" fill="#f5f5f5" stroke="#2d5227" stroke-width="3" />
  <polyline points="287,443 295,452 311,435" fill="none" stroke="#4a7c3f" stroke-width="4" stroke-linecap="round" stroke-linejoin="round" />

  
  <text x="195" y="588" font-family="'Hiragino Sans', 'Yu Gothic', 'Meiryo', 'Noto Sans CJK JP', sans-serif" font-size="26" font-weight="700" fill="#1a1a1a" text-anchor="middle">テスト準備完了</text>
</svg>
