<svg xmlns="http://www.w3.org/2000/svg" viewBox="0 0 1920 384" width="1920" height="384">
  <defs>
    <linearGradient id="bg" x1="0" y1="0" x2="1" y2="0">
      <stop offset="0%" stop-color="#080E1C"/>
      <stop offset="45%" stop-color="#0F1A2E"/>
      <stop offset="55%" stop-color="#0F1A2E"/>
      <stop offset="100%" stop-color="#080E1C"/>
    </linearGradient>
    <linearGradient id="bgV" x1="0" y1="0" x2="0" y2="1">
      <stop offset="0%" stop-color="#000000" stop-opacity="0.15"/>
      <stop offset="50%" stop-color="#000000" stop-opacity="0"/>
      <stop offset="100%" stop-color="#000000" stop-opacity="0.2"/>
    </linearGradient>
    <pattern id="grid" width="40" height="40" patternUnits="userSpaceOnUse">
      <path d="M40 0 L0 0 0 40" fill="none" stroke="#1E3A5F" stroke-width="0.5" stroke-opacity="0.25"/>
    </pattern>
    <radialGradient id="boltGlow" cx="50%" cy="50%" r="50%">
      <stop offset="0%" stop-color="#06B6D4" stop-opacity="0.3"/>
      <stop offset="40%" stop-color="#06B6D4" stop-opacity="0.1"/>
      <stop offset="100%" stop-color="#06B6D4" stop-opacity="0"/>
    </radialGradient>
    <radialGradient id="boltGlowWarm" cx="50%" cy="50%" r="50%">
      <stop offset="0%" stop-color="#FFFFFF" stop-opacity="0.08"/>
      <stop offset="100%" stop-color="#FFFFFF" stop-opacity="0"/>
    </radialGradient>

    <!-- Left wires: cubes ~x=280, bolt region ~x=640 -->
    <linearGradient id="wireL1" x1="280" y1="0" x2="640" y2="0" gradientUnits="userSpaceOnUse">
      <stop offset="0%" stop-color="#67E8F9" stop-opacity="0"/>
      <stop offset="100%" stop-color="#67E8F9" stop-opacity="0.5"/>
    </linearGradient>
    <linearGradient id="wireL2" x1="350" y1="0" x2="640" y2="0" gradientUnits="userSpaceOnUse">
      <stop offset="0%" stop-color="#67E8F9" stop-opacity="0"/>
      <stop offset="100%" stop-color="#67E8F9" stop-opacity="0.5"/>
    </linearGradient>
    <linearGradient id="wireL3" x1="310" y1="0" x2="640" y2="0" gradientUnits="userSpaceOnUse">
      <stop offset="0%" stop-color="#67E8F9" stop-opacity="0"/>
      <stop offset="100%" stop-color="#67E8F9" stop-opacity="0.45"/>
    </linearGradient>
    <linearGradient id="wireL4" x1="380" y1="0" x2="640" y2="0" gradientUnits="userSpaceOnUse">
      <stop offset="0%" stop-color="#67E8F9" stop-opacity="0"/>
      <stop offset="100%" stop-color="#67E8F9" stop-opacity="0.4"/>
    </linearGradient>

    <!-- Right wires: bolt region ~x=730 to cubes ~x=1100 -->
    <linearGradient id="wireR1" x1="730" y1="0" x2="1100" y2="0" gradientUnits="userSpaceOnUse">
      <stop offset="0%" stop-color="#67E8F9" stop-opacity="0.5"/>
      <stop offset="100%" stop-color="#67E8F9" stop-opacity="0"/>
    </linearGradient>
    <linearGradient id="wireR2" x1="730" y1="0" x2="1140" y2="0" gradientUnits="userSpaceOnUse">
      <stop offset="0%" stop-color="#67E8F9" stop-opacity="0.5"/>
      <stop offset="100%" stop-color="#67E8F9" stop-opacity="0"/>
    </linearGradient>
    <linearGradient id="wireR3" x1="730" y1="0" x2="1120" y2="0" gradientUnits="userSpaceOnUse">
      <stop offset="0%" stop-color="#67E8F9" stop-opacity="0.45"/>
      <stop offset="100%" stop-color="#67E8F9" stop-opacity="0"/>
    </linearGradient>

    <filter id="cubeGlow">
      <feGaussianBlur in="SourceGraphic" stdDeviation="3.5" result="blur"/>
      <feMerge>
        <feMergeNode in="blur"/>
        <feMergeNode in="SourceGraphic"/>
      </feMerge>
    </filter>
    <filter id="cubeGlowDim">
      <feGaussianBlur in="SourceGraphic" stdDeviation="2.5" result="blur"/>
      <feMerge>
        <feMergeNode in="blur"/>
        <feMergeNode in="SourceGraphic"/>
      </feMerge>
    </filter>
    <filter id="boltShine">
      <feGaussianBlur in="SourceGraphic" stdDeviation="6" result="blur"/>
      <feMerge>
        <feMergeNode in="blur"/>
        <feMergeNode in="SourceGraphic"/>
      </feMerge>
    </filter>
  </defs>

  <!-- Background -->
  <rect width="1920" height="384" fill="url(#bg)"/>
  <rect width="1920" height="384" fill="url(#bgV)"/>
  <rect width="1920" height="384" fill="url(#grid)"/>

  <!-- LEFT CUBES — spread across left region -->
  <g filter="url(#cubeGlowDim)">
    <rect x="280"  y="62"  width="22" height="22" rx="3.5" fill="#0E7490" opacity="0.55"/>
    <rect x="360"  y="175" width="20" height="20" rx="3.5" fill="#0E7490" opacity="0.5"/>
    <rect x="310"  y="270" width="21" height="21" rx="3.5" fill="#0E7490" opacity="0.45"/>
    <rect x="460"  y="290" width="18" height="18" rx="3.5" fill="#0E7490" opacity="0.5"/>
    <rect x="490"  y="90"  width="20" height="20" rx="3.5" fill="#0E7490" opacity="0.45"/>
    <rect x="200"  y="155" width="17" height="17" rx="3"   fill="#0E7490" opacity="0.4"/>
    <rect x="540"  y="310" width="16" height="16" rx="3"   fill="#0E7490" opacity="0.4"/>
  </g>

  <!-- Wires from left cubes to bolt region -->
  <line x1="302" y1="73"  x2="640" y2="158" stroke="url(#wireL1)" stroke-width="2"/>
  <line x1="380" y1="185" x2="640" y2="185" stroke="url(#wireL2)" stroke-width="2"/>
  <line x1="331" y1="281" x2="640" y2="215" stroke="url(#wireL3)" stroke-width="2"/>
  <line x1="478" y1="299" x2="640" y2="225" stroke="url(#wireL4)" stroke-width="2"/>
  <line x1="510" y1="100" x2="640" y2="165" stroke="url(#wireL1)" stroke-width="2"/>
  <line x1="217" y1="163" x2="640" y2="175" stroke="url(#wireL3)" stroke-width="1.5"/>
  <line x1="556" y1="318" x2="640" y2="235" stroke="url(#wireL4)" stroke-width="1.5"/>

  <!-- CENTER: Glow + Lightning Bolt (centered at ~685,192) -->
  <ellipse cx="685" cy="192" rx="220" ry="180" fill="url(#boltGlow)"/>
  <ellipse cx="685" cy="192" rx="90"  ry="80"  fill="url(#boltGlowWarm)"/>

  <!-- Lightning bolt scaled to canvas height ~340px -->
  <g filter="url(#boltShine)">
    <polygon points="712,32 642,178 672,178 664,352 736,198 706,198" fill="#06B6D4"/>
  </g>
  <polygon points="712,32 642,178 672,178 664,352 736,198 706,198" fill="#67E8F9" opacity="0.25"/>
  <polygon points="712,32 642,178 672,178 664,352 736,198 706,198" fill="none" stroke="#A5F3FC" stroke-width="0.6" stroke-opacity="0.3"/>

  <!-- Wires from bolt to right cubes -->
  <line x1="738" y1="158" x2="960" y2="118" stroke="url(#wireR1)" stroke-width="2"/>
  <line x1="738" y1="178" x2="975" y2="178" stroke="url(#wireR2)" stroke-width="2"/>
  <line x1="738" y1="198" x2="970" y2="218" stroke="url(#wireR1)" stroke-width="2"/>
  <line x1="738" y1="218" x2="960" y2="272" stroke="url(#wireR3)" stroke-width="2"/>
  <line x1="738" y1="240" x2="945" y2="310" stroke="url(#wireR3)" stroke-width="1.5"/>

  <!-- RIGHT CUBES — spread across right region -->
  <g filter="url(#cubeGlow)">
    <rect x="966"  y="100" width="22" height="22" rx="3.5" fill="#22D3EE" opacity="0.55"/>
    <rect x="985"  y="162" width="20" height="20" rx="3.5" fill="#22D3EE" opacity="0.55"/>
    <rect x="975"  y="248" width="22" height="22" rx="3.5" fill="#22D3EE" opacity="0.5"/>
    <rect x="950"  y="290" width="18" height="18" rx="3.5" fill="#22D3EE" opacity="0.45"/>
    <rect x="1050" y="78"  width="18" height="18" rx="3"   fill="#22D3EE" opacity="0.4"/>
    <rect x="1060" y="225" width="18" height="18" rx="3"   fill="#22D3EE" opacity="0.4"/>
    <rect x="1045" y="295" width="16" height="16" rx="3"   fill="#22D3EE" opacity="0.35"/>
  </g>

  <!-- Secondary wires (branching copies) -->
  <line x1="988" y1="111"  x2="1050" y2="78"  stroke="#22D3EE" stroke-width="1" stroke-opacity="0.2"/>
  <line x1="1005" y1="172" x2="1060" y2="230" stroke="#22D3EE" stroke-width="1" stroke-opacity="0.15"/>
  <line x1="997" y1="259"  x2="1060" y2="230" stroke="#22D3EE" stroke-width="1" stroke-opacity="0.15"/>
  <line x1="968" y1="302"  x2="1045" y2="300" stroke="#22D3EE" stroke-width="1" stroke-opacity="0.15"/>

  <!-- Center horizontal data-flow backbone -->
  <line x1="380" y1="184" x2="960" y2="184" stroke="#38BDF8" stroke-width="0.8" stroke-opacity="0.1"/>

  <!-- TAGLINE — right of bolt cluster -->
  <text x="1190" y="165" font-family="'Inter', 'Segoe UI', 'Helvetica Neue', Arial, sans-serif" font-size="40" font-weight="600" fill="#FFFFFF" letter-spacing="0.8" opacity="0.95">Clone Production.</text>
  <text x="1190" y="218" font-family="'Inter', 'Segoe UI', 'Helvetica Neue', Arial, sans-serif" font-size="40" font-weight="600" fill="#67E8F9" letter-spacing="0.8" opacity="0.9">Break Nothing.</text>
  <line x1="1190" y1="234" x2="1700" y2="234" stroke="#06B6D4" stroke-width="1.5" stroke-opacity="0.2"/>

  <!-- Top and bottom edge lines -->
  <line x1="0" y1="1"   x2="1920" y2="1"   stroke="#06B6D4" stroke-width="1.5" stroke-opacity="0.15"/>
  <line x1="0" y1="383" x2="1920" y2="383" stroke="#06B6D4" stroke-width="1.5" stroke-opacity="0.1"/>
</svg>
